<?xml version="1.0" encoding="utf-8"?>
<!-- Generator: Adobe Illustrator 27.4.1, SVG Export Plug-In . SVG Version: 6.00 Build 0)  -->
<svg version="1.1" id="Слой_1" xmlns="http://www.w3.org/2000/svg" xmlns:xlink="http://www.w3.org/1999/xlink" x="0px" y="0px"
	 viewBox="0 0 200 98.4" style="enable-background:new 0 0 200 98.4;" xml:space="preserve">
<style type="text/css">
	.st0{fill:none;}
	.st1{fill-rule:evenodd;clip-rule:evenodd;fill:#155094;}
</style>
<rect x="57.6" y="6.4" class="st0" width="86.4" height="82.1"/>
<g id="Слой_x0020_1">
	<path class="st1" d="M96.8,23c-4.2,1.1-6.5,2.2-9.2,4.4c-8.8,7-10,19.6-1.8,28.3c8.5,9,24.9,9,33.2-1.5c0.6-0.7,2.4-3.2,2.5-4.3
		c-8.5,6.1-19.4,1.5-22-8.1c-0.7-2.7-0.6-5.6-0.6-8.4c0-2.1,0.1-26.1-0.1-27h-2.1V23L96.8,23z M79.2,88.4v-2.9
		C74.4,85.2,67,87.3,67.1,80c0-2.8,1.3-4.7,3.6-5.2c2.1-0.5,6.1,0,8.5-0.2v-2.8c-2.5-0.2-9.6-0.2-11.6,0.6C64.6,73.4,63,76,63,80
		s1.6,6.7,4.5,7.8C69.8,88.6,76.5,88.5,79.2,88.4L79.2,88.4z M81.8,88.4l3.9,0.1c0-3-0.2-6.7,0.1-9.5c0.2-2.8,1.9-4.6,4.9-4.6
		s4.7,1.8,4.9,4.6c0.2,2.8,0.1,6.6,0.1,9.5l3.9,0.1c0-3.1,0.4-9.9-0.6-12.3c-1.2-3.2-4-4.7-8.3-4.7c-4.2,0-7.1,1.6-8.2,4.7
		C81.4,78.5,81.8,85.3,81.8,88.4z M122.4,85.5v2.8c2,0.1,4.6,0,6.7,0c3.3,0,8.7,0.4,9.3-4c0.7-5.3-4.4-5.5-7.9-5.5
		c-2,0-4.5,0-4.4-2.3c0.1-2.1,3-1.8,4.8-1.8c2.3,0,4.6,0,6.8,0v-2.9c-3.2,0-10.2-0.4-12.8,0.6c-4.2,1.4-4,6.5-1,8.1
		c3.7,2,10.7-0.8,10.2,3.3C133.8,86.8,126.8,84.9,122.4,85.5L122.4,85.5z M118.9,88.4v-2.9c-2.8,0-6,0.1-8.6-0.1
		c-2.4-0.2-4.3-1.7-4.4-4l13.5-0.1c0.2-5.3-1.4-8.5-5.7-9.7c-2.2-0.6-4.8-0.6-6.9,0.1c-2,0.6-3.2,2-4.1,3.7c-1.7,3.2-1.4,9.1,2,11.5
		c1.8,1.3,3.7,1.4,6.4,1.4C113.7,88.4,116.3,88.4,118.9,88.4z M105.9,78.9h9.5c0.1-3.2-1.5-5-4.6-5.1
		C107.3,73.8,105.9,75.6,105.9,78.9z M101.9,22.4c-0.1,1.8,0.8,6,1.4,7.6c1.4,4.1,4.2,8.4,8.7,9.6c4.4,1.1,11.8-2,7.9-7.8
		c-0.4-0.5-0.6-0.8-0.9-1.3c-0.4-0.4-0.7-0.9-1.1-1.3c-1-1-1.5-1.4-2.4-2.2C112.5,24.8,107.1,22.3,101.9,22.4z"/>
</g>
</svg>
