<?xml version="1.0" encoding="utf-8"?>
<!-- Generator: Adobe Illustrator 27.4.1, SVG Export Plug-In . SVG Version: 6.00 Build 0)  -->
<svg version="1.1" id="Слой_1" xmlns="http://www.w3.org/2000/svg" xmlns:xlink="http://www.w3.org/1999/xlink" x="0px" y="0px"
	 viewBox="0 0 200 98.4" style="enable-background:new 0 0 200 98.4;" xml:space="preserve">
<style type="text/css">
	.st0{fill-rule:evenodd;clip-rule:evenodd;fill:#2B2A29;}
</style>
<g id="Слой_x0020_1">
	<path class="st0" d="M86,68.9V55.8c4.5,0,8.6-0.1,13.2-0.1L86,68.9z M122.9,71.8v15.2h9.3v-2.6h-6.1v-13h-2.8
		C123.1,71.4,122.9,71.5,122.9,71.8z M111.8,84.6h-2.1V74c1.9,0,3.9-0.3,5.5,1.5C118.1,78.6,116.2,84.6,111.8,84.6z M106.5,87.1h5
		c5.1,0,8.5-2.5,8.5-7.6c0-1.1-0.2-2.5-0.5-3.3c-1.9-5.4-8.3-4.5-13-4.5V87.1L106.5,87.1z M139.4,78.8h-1.5v-4.6h2.9
		c1.3,0,2.3,0.9,2.3,2.2C143.2,78.4,141.5,78.8,139.4,78.8z M138.8,71.6h-4v15.5h3.2v-5.7c4.5,0,3.6-0.4,5.5,3.9
		c0.2,0.5,0.6,1.1,0.6,1.7h3.9l-2.5-5.4c-0.3-0.5-0.6-1.3-1.3-1.5v-0.3c3.1-0.7,3.8-6.9-0.9-8.2C141.6,71.3,140.6,71.6,138.8,71.6
		L138.8,71.6z M112,50.4c0.4-0.6,8.6-8.6,9.8-9.8c0.6-0.6,0.7-0.5,1.7-0.5h13.2c-0.4,0.6-8.6,8.6-9.8,9.8c-0.6,0.6-0.7,0.5-1.7,0.5
		C125.1,50.4,112,50.4,112,50.4z M89.8,50.4c0.9-1.3,4.3-4.3,5.4-5.3l4.3-4.4c0.6-0.7,0.5-0.5,1.7-0.5h13.3
		c-0.3,0.5-3.7,3.9-4.3,4.4l-5.5,5.3c-0.6,0.7-0.5,0.5-1.7,0.5L89.8,50.4L89.8,50.4z M67.7,50.4c0.4-0.6,1.5-1.6,2.1-2.2l7.6-7.6
		c0.6-0.6,0.7-0.5,1.7-0.5h13.2c-0.4,0.6-1.5,1.6-2.1,2.2L82.6,50c-0.6,0.6-0.7,0.5-1.7,0.5C80.9,50.4,67.7,50.4,67.7,50.4z
		 M118.5,21.6v13.2h-13.2L118.5,21.6z M54.8,55.8h25.7v26.1c0.7-0.5,23.2-23.1,25.4-25.3c0.4-0.4,0.5-0.7,1.1-0.7h20
		c2,0,1.5,0.1,2.6-1l16.4-16.4c0.9-0.9,3.1-2.9,3.6-3.7h-25.7V8.7c-0.9,0.5-2.8,2.7-3.6,3.5L98.5,34.1c-0.4,0.5-0.4,0.6-1.1,0.7
		h-5.5c-4.8,0-9.6,0-14.4,0c-2,0-1.5-0.1-2.6,1L58.5,52.2C57.6,53,55.4,55,54.8,55.8L54.8,55.8z"/>
</g>
</svg>
