<?xml version="1.0" encoding="utf-8"?>
<!-- Generator: Adobe Illustrator 27.4.1, SVG Export Plug-In . SVG Version: 6.00 Build 0)  -->
<svg version="1.1" id="Слой_1" xmlns="http://www.w3.org/2000/svg" xmlns:xlink="http://www.w3.org/1999/xlink" x="0px" y="0px"
	 viewBox="0 0 200 98.4" style="enable-background:new 0 0 200 98.4;" xml:space="preserve">
<style type="text/css">
	.st0{fill-rule:evenodd;clip-rule:evenodd;}
</style>
<path class="st0" d="M143.3,62h11.8c0.3,0,0.4-0.2,0.4-0.4l0.7-1.9c0.2-0.5,0.9-2.2,0.9-2.6h-8v-7.8h5.8c0.2-0.8,1.8-4.3,1.9-5h-7.7
	v-6.4h6.3c0-0.4,0.3-0.9,0.4-1.3l1.5-3.7h-14L143.3,62L143.3,62z M44.6,62h5.8V33h-5.8V62L44.6,62z M59.5,47.5
	c0,5.1,2.2,9.4,6.2,12.4c1,0.8,2.8,1.8,4.2,2.1c0-0.4,1.2-3.3,1.5-3.9c0.1-0.4,0.4-0.9,0.5-1.3c-0.2-0.1-0.4-0.1-0.6-0.3l-1.9-1
	c-4.8-3.5-5-10.4-1.3-14.9c1.1-1.4,3.8-3.1,6.4-3.1c1.5,0,2.6,0,4,0.6c0.4,0.1,0.4,0.3,0.8,0.4c0.1-0.6,1.7-4.2,1.9-4.9
	c-4.4-2.1-11.3-1.7-15.6,1.5c-1.5,1.1-2.1,1.9-3.2,3.2c-1.3,1.7-2,3.7-2.5,5.8C59.7,45.1,59.5,46.4,59.5,47.5L59.5,47.5z
	 M119.9,48.9V62h5.8V48.9c0-0.2,0.4-0.8,0.6-1c0.2-0.4,0.4-0.6,0.6-1.1c3-4.5,6-9.4,9-13.9h-6.8c-0.3,0.4-0.5,0.8-0.8,1.2l-4.7,7.6
	c-0.1,0.3-0.6,1.1-0.8,1.3c-0.1-0.4-2.7-4.5-3-5c-0.3-0.5-3-4.6-3-5H110c0.1,0.6,5.4,8.7,6.2,9.9C116.6,43.6,119.9,48.7,119.9,48.9
	L119.9,48.9z M89.5,62h11.4c0.4,0,0.4-0.5,0.6-1.1c0.3-0.7,1.4-3.5,1.5-3.9h-7.7v-7.8h5.6c0.2-0.8,1.8-4.3,1.9-5h-7.5v-6.4h5.6
	c0.3,0,0.4-0.2,0.4-0.4l1.8-4.4H89.5V62z"/>
</svg>
