<?xml version="1.0" encoding="utf-8"?>
<!-- Generator: Adobe Illustrator 27.4.1, SVG Export Plug-In . SVG Version: 6.00 Build 0)  -->
<svg version="1.1" id="Слой_1" xmlns="http://www.w3.org/2000/svg" xmlns:xlink="http://www.w3.org/1999/xlink" x="0px" y="0px"
	 viewBox="0 0 200 98.4" style="enable-background:new 0 0 200 98.4;" xml:space="preserve">
<style type="text/css">
	.st0{clip-path:url(#SVGID_00000124867661297337987930000006584699334418850981_);}
	.st1{fill-rule:evenodd;clip-rule:evenodd;fill:#1E3E82;}
	.st2{fill-rule:evenodd;clip-rule:evenodd;fill:#FFFFFF;}
	.st3{fill-rule:evenodd;clip-rule:evenodd;fill:#E30613;}
	.st4{fill:#FFFFFF;}
</style>
<g>
	<defs>
		<rect id="SVGID_1_" x="51.5" y="6.1" width="102" height="86.2"/>
	</defs>
	<clipPath id="SVGID_00000080208899804173435860000016580016482809074844_">
		<use xlink:href="#SVGID_1_"  style="overflow:visible;"/>
	</clipPath>
	<g style="clip-path:url(#SVGID_00000080208899804173435860000016580016482809074844_);">
		<path class="st1" d="M98.5,92.3c23.8,0,43.1-19.3,43.1-43.1S122.3,6.1,98.5,6.1S55.4,25.4,55.4,49.2S74.7,92.3,98.5,92.3
			L98.5,92.3z"/>
		<path class="st2" d="M98.1,65.2c-0.9-0.2-3.4-2.5-3.4-2.5l-0.8,0.7c0,0,1.8,2.1,2.9,3.6L98.1,65.2L98.1,65.2z"/>
		<path class="st2" d="M86.3,73.9c0.3,0,0.5-0.2,0.5-0.5c0-0.3-0.2-0.5-0.5-0.5c-0.3,0-0.5,0.2-0.5,0.5C85.8,73.7,86,73.9,86.3,73.9
			z"/>
		<path class="st2" d="M86.8,77.9c0.2,0,0.4-0.2,0.4-0.4c0-0.2-0.2-0.4-0.4-0.4s-0.4,0.2-0.4,0.4C86.4,77.7,86.6,77.9,86.8,77.9z"/>
		<path class="st2" d="M104.6,74.1c0.2,0,0.3-0.2,0.3-0.3c0-0.2-0.2-0.3-0.3-0.3s-0.3,0.2-0.3,0.3C104.3,74,104.4,74.1,104.6,74.1z"
			/>
		<path class="st2" d="M116.7,66.8c0.1,0,0.2-0.1,0.2-0.2s-0.1-0.2-0.2-0.2c-0.1,0-0.2,0.1-0.2,0.2S116.6,66.8,116.7,66.8z"/>
		<path class="st2" d="M117,71.6c0.1,0,0.2-0.1,0.2-0.2c0-0.1-0.1-0.2-0.2-0.2c-0.1,0-0.2,0.1-0.2,0.2
			C116.8,71.4,116.9,71.6,117,71.6z"/>
		<path class="st2" d="M119.3,80.6c0.3,0,0.5-0.2,0.5-0.5c0-0.3-0.2-0.5-0.5-0.5c-0.3,0-0.5,0.2-0.5,0.5
			C118.8,80.4,119,80.6,119.3,80.6z"/>
		<path class="st2" d="M119.8,64.7c0.3,0,0.5-0.2,0.5-0.5c0-0.3-0.2-0.5-0.5-0.5c-0.3,0-0.5,0.2-0.5,0.5
			C119.3,64.5,119.5,64.7,119.8,64.7z"/>
		<path class="st2" d="M120,67.7c0.1,0,0.3-0.1,0.3-0.3c0-0.1-0.1-0.3-0.3-0.3s-0.3,0.1-0.3,0.3C119.7,67.6,119.8,67.7,120,67.7z"/>
		<path class="st2" d="M124.9,62.1c0.1,0,0.3-0.1,0.3-0.3c0-0.1-0.1-0.3-0.3-0.3s-0.3,0.1-0.3,0.3C124.6,62,124.7,62.1,124.9,62.1z"
			/>
		<path class="st2" d="M129.7,67.6c0.2,0,0.3-0.1,0.3-0.3s-0.1-0.3-0.3-0.3s-0.3,0.1-0.3,0.3S129.5,67.6,129.7,67.6z"/>
		<path class="st2" d="M131.8,66.6c0.2,0,0.4-0.2,0.4-0.4c0-0.2-0.2-0.4-0.4-0.4c-0.2,0-0.4,0.2-0.4,0.4
			C131.4,66.4,131.6,66.6,131.8,66.6z"/>
		<path class="st2" d="M125.7,71.2c0.2,0,0.4-0.2,0.4-0.4c0-0.2-0.2-0.4-0.4-0.4s-0.4,0.2-0.4,0.4C125.2,71,125.4,71.2,125.7,71.2z"
			/>
		<path class="st2" d="M130.1,73.2c0.1,0,0.2-0.1,0.2-0.2c0-0.1-0.1-0.2-0.2-0.2s-0.2,0.1-0.2,0.2C129.8,73.1,129.9,73.2,130.1,73.2
			z"/>
		<path class="st2" d="M102,16.9c0.3,0,0.5-0.2,0.5-0.5c0-0.3-0.2-0.5-0.5-0.5c-0.3,0-0.5,0.2-0.5,0.5
			C101.5,16.7,101.7,16.9,102,16.9z"/>
		<path class="st2" d="M99.9,11.5c0.2,0,0.3-0.1,0.3-0.3c0-0.2-0.1-0.3-0.3-0.3c-0.2,0-0.3,0.1-0.3,0.3
			C99.6,11.3,99.8,11.5,99.9,11.5z"/>
		<path class="st2" d="M99.4,18.2c0.1,0,0.2-0.1,0.2-0.2c0-0.1-0.1-0.2-0.2-0.2c-0.1,0-0.2,0.1-0.2,0.2
			C99.3,18.2,99.3,18.2,99.4,18.2z"/>
		<path class="st2" d="M91.2,19c0.2,0,0.4-0.2,0.4-0.4c0-0.2-0.2-0.4-0.4-0.4c-0.2,0-0.4,0.2-0.4,0.4C90.9,18.9,91,19,91.2,19z"/>
		<path class="st2" d="M90.5,18.2c0.1,0,0.2-0.1,0.2-0.2c0-0.1-0.1-0.2-0.2-0.2s-0.2,0.1-0.2,0.2C90.4,18.1,90.4,18.2,90.5,18.2z"/>
		<path class="st2" d="M107.5,26c0.2,0,0.4-0.2,0.4-0.4c0-0.2-0.2-0.4-0.4-0.4c-0.2,0-0.4,0.2-0.4,0.4C107.2,25.8,107.3,26,107.5,26
			z"/>
		<path class="st2" d="M112,47.5c0,0,6.5,2,4.3,7.6c0,0-2.8,5.7-11.2,2.9l-1.7,1.5l-0.1-5.4l2.4,1.8c0,0,5.6,1.5,5.7-1.7
			c0,0-0.3-1.2-4.6-2.5c0,0-5-1.5-3.9-5.9c0,0,0.8-6.8,10.7-4.1l1.7-0.9l0,5.2l-2.1-2.1c0,0-4.5-1.4-5.1,0.7
			C107.5,47.1,110.4,46.9,112,47.5L112,47.5z"/>
		<path class="st2" d="M121.7,41.4h7.5l6,14.5l2,1.9H127l1.6-1.6l-0.8-2.2h-5.5l-0.6,2.3l1.1,1.5H118l1.7-1.7l4-12.8L121.7,41.4z"/>
		<path class="st1" d="M127.1,51.8l-2.3-5.6l-1.8,5.6H127.1z"/>
		<path class="st2" d="M97.2,15.8c0.3,0,0.5-0.2,0.5-0.5c0-0.3-0.2-0.5-0.5-0.5c-0.3,0-0.5,0.2-0.5,0.5
			C96.6,15.6,96.9,15.8,97.2,15.8z"/>
		<path class="st2" d="M83.7,27.5c0.2,0,0.4-0.2,0.4-0.4c0-0.2-0.2-0.4-0.4-0.4s-0.4,0.2-0.4,0.4C83.4,27.3,83.5,27.5,83.7,27.5z"/>
		<path class="st2" d="M84.8,29.3c0.2,0,0.4-0.2,0.4-0.4c0-0.2-0.2-0.4-0.4-0.4c-0.2,0-0.4,0.2-0.4,0.4
			C84.5,29.1,84.6,29.3,84.8,29.3z"/>
		<path class="st2" d="M88.1,33.5c0.1,0,0.2-0.1,0.2-0.2s-0.1-0.2-0.2-0.2c-0.1,0-0.2,0.1-0.2,0.2S88,33.5,88.1,33.5z"/>
		<path class="st2" d="M92.1,19.3c0.1,0,0.2-0.1,0.2-0.2S92.2,19,92.1,19c-0.1,0-0.2,0.1-0.2,0.2S92.1,19.3,92.1,19.3z"/>
		<path class="st2" d="M91.6,21.4c0.2,0,0.3-0.1,0.3-0.3c0-0.2-0.1-0.3-0.3-0.3c-0.2,0-0.3,0.1-0.3,0.3
			C91.3,21.3,91.5,21.4,91.6,21.4z"/>
		<path class="st2" d="M97.8,19.3c0.2,0,0.3-0.1,0.3-0.3c0-0.2-0.1-0.3-0.3-0.3c-0.2,0-0.3,0.1-0.3,0.3
			C97.5,19.2,97.7,19.3,97.8,19.3z"/>
		<path class="st2" d="M101.6,21.6c0.2,0,0.3-0.1,0.3-0.3c0-0.2-0.1-0.3-0.3-0.3c-0.2,0-0.3,0.1-0.3,0.3
			C101.3,21.4,101.4,21.6,101.6,21.6z"/>
		<path class="st2" d="M126.9,73.7c0.4,0,0.6-0.3,0.6-0.6s-0.3-0.6-0.6-0.6c-0.4,0-0.6,0.3-0.6,0.6S126.5,73.7,126.9,73.7z"/>
		<path class="st2" d="M126.5,72.5l0.4-1.1l0.4,1.1L126.5,72.5z"/>
		<path class="st2" d="M126.5,73.5l0.4,1.1l0.4-1.1L126.5,73.5z"/>
		<path class="st2" d="M126.4,73.4l-1.1-0.4l1.1-0.4L126.4,73.4z"/>
		<path class="st2" d="M127.4,73.4l1.1-0.4l-1.1-0.4L127.4,73.4z"/>
		<path class="st2" d="M125.7,64.6c0.2,0,0.4-0.2,0.4-0.4c0-0.2-0.2-0.4-0.4-0.4s-0.4,0.2-0.4,0.4C125.3,64.4,125.5,64.6,125.7,64.6
			z"/>
		<path class="st2" d="M112.2,81.7c0.2,0,0.4-0.2,0.4-0.4c0-0.2-0.2-0.4-0.4-0.4c-0.2,0-0.4,0.2-0.4,0.4
			C111.8,81.5,112,81.7,112.2,81.7z"/>
		<path class="st2" d="M96.6,77.2c0.2,0,0.4-0.2,0.4-0.4c0-0.2-0.2-0.4-0.4-0.4c-0.2,0-0.4,0.2-0.4,0.4C96.2,77,96.4,77.2,96.6,77.2
			z"/>
		<path class="st2" d="M81.9,77.3c0.2,0,0.4-0.2,0.4-0.4c0-0.2-0.2-0.4-0.4-0.4c-0.2,0-0.4,0.2-0.4,0.4
			C81.5,77.1,81.7,77.3,81.9,77.3z"/>
		<path class="st2" d="M83.6,67.7c0.2,0,0.3-0.1,0.3-0.3c0-0.2-0.1-0.3-0.3-0.3c-0.2,0-0.3,0.1-0.3,0.3
			C83.3,67.5,83.5,67.7,83.6,67.7z"/>
		<path class="st2" d="M78.6,71.1c0.2,0,0.3-0.1,0.3-0.3s-0.1-0.3-0.3-0.3c-0.2,0-0.3,0.1-0.3,0.3S78.4,71.1,78.6,71.1z"/>
		<path class="st2" d="M84.7,59.7c0.2,0,0.3-0.1,0.3-0.3s-0.1-0.3-0.3-0.3c-0.2,0-0.3,0.1-0.3,0.3S84.5,59.7,84.7,59.7z"/>
		<path class="st2" d="M67.4,67.8c0.2,0,0.3-0.1,0.3-0.3c0-0.2-0.1-0.3-0.3-0.3c-0.2,0-0.3,0.1-0.3,0.3
			C67.1,67.7,67.2,67.8,67.4,67.8z"/>
		<path class="st2" d="M72,68.2c0.2,0,0.3-0.1,0.3-0.3c0-0.2-0.1-0.3-0.3-0.3c-0.2,0-0.3,0.1-0.3,0.3C71.7,68.1,71.8,68.2,72,68.2z"
			/>
		<path class="st2" d="M71.1,70.5c0.3,0,0.5-0.2,0.5-0.5c0-0.3-0.2-0.5-0.5-0.5c-0.3,0-0.5,0.2-0.5,0.5
			C70.6,70.3,70.9,70.5,71.1,70.5z"/>
		<path class="st2" d="M72.7,72.4c0.3,0,0.5-0.2,0.5-0.5c0-0.3-0.2-0.5-0.5-0.5c-0.3,0-0.5,0.2-0.5,0.5
			C72.2,72.2,72.5,72.4,72.7,72.4z"/>
		<path class="st3" d="M137.2,24.8c7.8-6.4,14.1-11.9,16.4-16.1c0,0-4.9,16.5-27.9,33.7c0,0-35.1,24-44.7,30.7c0,0-8.9,6.3-16.4,16
			l-0.2-1.6c0,0,5.6-8.3,18.5-17.3c11.3-8,15.5-10.6,15.5-10.6s26.8-16.8,32.3-24.1c0,0-19.2,11-52.4,17.4c0,0-15.3,3.9-25.3,10.1
			h-1.4c0,0,8.7-7.4,29-13.2C80.6,49.9,114.9,39.7,137.2,24.8L137.2,24.8z"/>
		<path class="st2" d="M63.1,41.5H70l5.9,10v-8.8l-1.1-1.2h4.3l-1.1,1.7v13l1.6,1.7h-6.9l-5.9-10.3v8.6l1.3,1.7h-5.2l1.5-1.8V43.5
			L63.1,41.5z"/>
		<path class="st2" d="M86.2,41.5h7.7L99.3,56l2,1.9h-9.8l1.6-1.6l-0.8-2.2h-5.5l-0.3,2.3l1.1,1.5h-5.2l1.8-1.7l3.8-12.8L86.2,41.5z
			"/>
		<path class="st1" d="M91.5,51.8l-2.3-5.6l-1.8,5.6H91.5z"/>
		<path class="st3" d="M88.9,47.1l0.6-0.2l1.3,3.2l-3.1,0.8L88.9,47.1z"/>
		<path class="st2" d="M103.2,48.3c0,0-1.7-4.7,3.5-6.4c0,0,2.5-2,7.7,0l1.1-1v5.2c0,0-2.4-2.5-4.1-2.7c-1.7-0.2-3.5,0.2-3.2,2.7
			L103.2,48.3L103.2,48.3z"/>
		<path class="st4" d="M107.2,73c2.5,1.5,5,2.4,7.1,2.7c2.1,0.3,3.8,0,5.1-1c0.2-0.1,0.3-0.3,0.5-0.4c6.2-5.9-1.2-25.2-12.6-37.2
			c0,0-1.1-1.2-1.8-2l0.4-0.4c0.7,0.7,1.7,1.8,1.8,2c11.6,12.2,19,32,12.6,38c-0.2,0.2-0.3,0.3-0.5,0.5c-1.4,1.1-3.3,1.4-5.5,1.1
			c-2.2-0.3-4.8-1.3-7.4-2.8L107.2,73L107.2,73z"/>
		<path class="st4" d="M106.7,36.5c-0.1-0.1-0.2-0.2-0.3-0.3c-0.1-0.1-0.2-0.2-0.3-0.3c-5.5-6.4-10.3-10.3-14.4-12.3
			c-4.7-2.4-8.4-2.2-11-0.5c-2.3,1.4-3.1,5.5-1.6,11.9c1.3,5.3,4.3,12.2,9.5,20.3c0,0,4.8,6.7,5.4,7l-0.4,0.5
			c-0.6-0.5-5.5-7.2-5.5-7.2C83,47.3,80,40.4,78.7,35c-1.6-6.6-0.6-11,1.9-12.5c2.8-1.8,6.7-2,11.6,0.5c4.1,2.1,9,6,14.5,12.5
			c0.1,0.1,0.2,0.2,0.3,0.3c0.1,0.1,0.2,0.2,0.3,0.3L106.7,36.5L106.7,36.5z"/>
		<path class="st2" d="M97.1,67.4c1.2,1,2.5,1.5,2.9,1c0.4-0.5-0.2-1.7-1.4-2.8c-1.2-1-2.5-1.5-2.9-1C95.2,65.1,95.9,66.3,97.1,67.4
			z"/>
		<path class="st2" d="M108.4,17.1c0.4,0,0.8-0.4,0.8-0.8c0-0.4-0.4-0.8-0.8-0.8s-0.8,0.4-0.8,0.8C107.5,16.7,107.9,17.1,108.4,17.1
			z"/>
		<path class="st2" d="M107.9,15.6l0.5-2.9l0.4,2.9L107.9,15.6z"/>
		<path class="st2" d="M107.9,16.9l0.5,2.9l0.4-2.9L107.9,16.9z"/>
		<path class="st2" d="M107.7,16.8l-3-0.5l3-0.4L107.7,16.8z"/>
		<path class="st2" d="M109,16.8l3.1-0.5l-3.1-0.4L109,16.8z"/>
		<path class="st2" d="M88.3,28.7c0.4,0,0.8-0.4,0.8-0.8c0-0.4-0.4-0.8-0.8-0.8c-0.4,0-0.8,0.4-0.8,0.8
			C87.5,28.3,87.8,28.7,88.3,28.7z"/>
		<path class="st2" d="M87.8,27.2l0.5-2.9l0.4,2.9L87.8,27.2z"/>
		<path class="st2" d="M87.8,28.5l0.5,2.9l0.4-2.9L87.8,28.5z"/>
		<path class="st2" d="M87.6,28.4l-3-0.5l3-0.4L87.6,28.4z"/>
		<path class="st2" d="M88.9,28.4l3.1-0.5l-3.1-0.4L88.9,28.4z"/>
		<path class="st2" d="M83.7,83c0.4,0,0.8-0.4,0.8-0.8s-0.4-0.8-0.8-0.8c-0.4,0-0.8,0.4-0.8,0.8S83.3,83,83.7,83z"/>
		<path class="st2" d="M83.3,81.5l0.5-2.9l0.4,2.9L83.3,81.5z"/>
		<path class="st2" d="M83.3,82.8l0.5,2.9l0.4-2.9L83.3,82.8z"/>
		<path class="st2" d="M83.1,82.7l-3-0.5l3-0.4L83.1,82.7z"/>
		<path class="st2" d="M84.4,82.7l3.1-0.5l-3.1-0.4L84.4,82.7z"/>
		<path class="st2" d="M130.9,64.5c0.4,0,0.8-0.4,0.8-0.8c0-0.4-0.4-0.8-0.8-0.8c-0.4,0-0.8,0.4-0.8,0.8
			C130,64.1,130.4,64.5,130.9,64.5z"/>
		<path class="st2" d="M130.4,63l0.5-2.9l0.4,2.9L130.4,63z"/>
		<path class="st2" d="M130.4,64.3l0.5,2.9l0.4-2.9L130.4,64.3z"/>
		<path class="st2" d="M130.2,64.2l-3-0.5l3-0.4L130.2,64.2z"/>
		<path class="st2" d="M131.5,64.2l3.1-0.5l-3.1-0.4L131.5,64.2z"/>
	</g>
</g>
</svg>
