<?xml version="1.0" encoding="utf-8"?>
<!-- Generator: Adobe Illustrator 27.4.1, SVG Export Plug-In . SVG Version: 6.00 Build 0)  -->
<svg version="1.1" id="Слой_1" xmlns="http://www.w3.org/2000/svg" xmlns:xlink="http://www.w3.org/1999/xlink" x="0px" y="0px"
	 viewBox="0 0 200 98.4" style="enable-background:new 0 0 200 98.4;" xml:space="preserve">
<style type="text/css">
	.st0{fill-rule:evenodd;clip-rule:evenodd;fill:#00A7B7;}
	.st1{fill-rule:evenodd;clip-rule:evenodd;fill:#223139;}
</style>
<g>
	<path class="st0" d="M172.3,60.1c1.1,0,2-0.9,2-2s-0.9-2-2-2s-2,0.9-2,2S171.1,60.1,172.3,60.1z"/>
	<path class="st0" d="M61.3,13.3c16.2,0,30,10.6,34.7,25.3c-0.8-0.1-2,0-2.7,0.2c0,0,0,0-0.1,0c-4.5-13.3-17.1-22.9-31.9-22.9
		c-18.6,0-33.7,15.2-33.7,33.8s15.1,33.8,33.8,33.8c14.9,0,27.5-9.6,32-23h0.1c0.8,0.2,1.8,0.3,2.7,0.2
		c-4.8,14.7-18.6,25.4-34.9,25.4c-20.1,0-36.4-16.3-36.4-36.4C24.9,29.6,41.2,13.3,61.3,13.3z"/>
	<path class="st1" d="M54.2,42.3c-0.3-0.3-0.1-0.7-0.4-1.4c-0.6-1.3-1.9-2.3-3.5-2.2v25.1c0,2.5,1.7,4.3,4.1,4.3V57.2
		c0.2,0.1,1,1.3,2,2c0.9,0.6,1.7,1,2.9,1.3c7.2,1.8,13.6-3.9,13.3-10.9c-0.4-10.1-10.7-13.3-16.3-9.2C55,41.1,55,41.3,54.2,42.3
		L54.2,42.3z M161,39.1h-2.9v3.6h2.8c0.1,1.2,0,8.7,0,10.6c0,1.6-0.2,3.5,0.5,4.8c0.6,1.1,1.7,1.9,3.4,2V42.7h3.5v-3.6h-3.5
		c0-1.7,0.3-3.4-0.5-5c-0.6-1.1-1.8-2.1-3.5-2.1L161,39.1L161,39.1z M155.2,56.2l-3-1.8c-1.6,1.8-4.6,3.3-8.1,2.4
		c-1.5-0.4-2.7-1.2-3.5-2c-0.6-0.6-1.8-2.3-1.9-3.6h17.4c1-6.3-3.1-11.1-7.7-12.4c-5.4-1.5-10.9,1.3-12.9,6.6
		c-3.2,8.5,4.7,17,13.6,14.7c1.4-0.3,2.5-0.9,3.6-1.6C153.3,58.2,154.9,57,155.2,56.2L155.2,56.2z M138.6,48.3
		c0-3.3,3.4-6.2,6.8-6.2c3.5,0,6.7,2.8,6.8,6.2H138.6L138.6,48.3z M115.6,41.3c0-0.6,0.1-1.7-0.1-2.2H112v21h3.9V48.4
		c0.1-3.6,1.8-6.3,5.4-6.4c3.8-0.1,5.4,2.5,5.4,6.3v11.8h3.9v-9.8c0-3.2,0.1-6-1.5-8.3c-2.7-3.9-8.9-4.6-12.2-1.9L116,41
		C115.8,41.3,115.9,41.2,115.6,41.3L115.6,41.3z M93.3,38.8C85,40.4,81.8,50.5,87.1,57c1.8,2.1,3.7,2.9,6.2,3.6
		c0.8,0.2,1.9,0.3,2.8,0.2c5.2-0.4,6.1-3.4,6.8-3.8v3.2h3.9V39.1H103l-0.1,2.9c-1.1-1.2-2.2-3.2-6.9-3.5
		C95.2,38.5,94,38.6,93.3,38.8L93.3,38.8z M94.8,42.2c4.4-0.6,7.7,2.6,8.1,6.5c0.5,4.4-2.5,7.8-6.2,8.4c-4.4,0.7-7.8-2.7-8.2-6.4
		C88,46.8,90.4,42.8,94.8,42.2L94.8,42.2z M76.6,60.2h3.9V32.1h-3.9V60.2L76.6,60.2z M60.7,42.2c4.2-0.5,7.4,2.9,7.9,6.6
		c0.6,4.4-2.5,7.8-6.2,8.3c-4.3,0.5-7.6-2.7-8-6.5C53.9,46.1,56.8,42.6,60.7,42.2z"/>
</g>
</svg>
