<?xml version="1.0" encoding="utf-8"?>
<!-- Generator: Adobe Illustrator 27.4.1, SVG Export Plug-In . SVG Version: 6.00 Build 0)  -->
<svg version="1.1" id="Слой_1" xmlns="http://www.w3.org/2000/svg" xmlns:xlink="http://www.w3.org/1999/xlink" x="0px" y="0px"
	 viewBox="0 0 200 98.4" style="enable-background:new 0 0 200 98.4;" xml:space="preserve">
<style type="text/css">
	.st0{fill-rule:evenodd;clip-rule:evenodd;fill:#000E26;}
	.st1{fill-rule:evenodd;clip-rule:evenodd;fill:#45BEE1;}
	.st2{fill-rule:evenodd;clip-rule:evenodd;fill:#C5C6C9;}
	.st3{fill-rule:evenodd;clip-rule:evenodd;fill:#00A6D3;}
	.st4{fill-rule:evenodd;clip-rule:evenodd;}
</style>
<g>
	<path class="st0" d="M94.6,44.5c0-0.4-0.1-1.1-0.4-1.4c-0.3-0.3-0.6-0.4-1.1-0.4s-0.8,0.1-1.1,0.4c-0.4,0.4-0.4,0.9-0.4,1.4v13.7
		c0,0.4,0.1,1.1,0.4,1.4c0.4,0.4,1,0.4,1.4,0.4h8.9c0.4,0,0.8-0.1,1.2-0.4c0.3-0.2,0.4-0.4,0.4-0.8s-0.1-0.6-0.4-0.8
		c-0.3-0.3-0.7-0.4-1.2-0.4h-7.8L94.6,44.5L94.6,44.5z M183.3,54.8c0-0.4-0.1-0.6-0.4-0.9c-0.3-0.3-0.5-0.4-0.9-0.4
		c-0.3,0-0.6,0.1-0.8,0.3c-0.3,0.3-0.4,0.7-0.5,1.1l0,0c-0.4,1-0.9,1.8-1.8,2.4c-0.8,0.6-1.9,0.8-2.9,0.8c-1,0-1.9-0.2-2.7-0.7
		s-1.4-1.3-1.8-2.2c-0.4-1.1-0.6-2.4-0.6-3.6c0-1.7,0.3-3.6,1.4-5c1-1.3,2.3-1.8,3.8-1.8c0.9,0,1.8,0.2,2.6,0.7
		c0.8,0.5,1.3,1.3,1.8,2.1c0.2,0.4,0.4,0.8,0.7,1.1c0.2,0.2,0.5,0.3,0.8,0.3c0.4,0,0.6-0.1,0.8-0.4c0.3-0.3,0.4-0.5,0.4-0.9
		c0-0.8-0.4-1.5-0.8-2.2c-0.6-0.9-1.5-1.5-2.5-2.1c-1.2-0.6-2.4-0.8-3.8-0.8c-1.2,0-2.2,0.2-3.2,0.6c-1,0.4-1.9,1-2.7,1.8
		s-1.3,1.8-1.7,2.8c-0.4,1.2-0.6,2.5-0.6,3.8c0,0.8,0.1,1.6,0.3,2.4c0.2,0.7,0.4,1.4,0.7,2.1c0.4,0.6,0.7,1.3,1.2,1.8
		s1.1,1.1,1.7,1.4c0.6,0.4,1.3,0.6,2.1,0.8c0.8,0.2,1.7,0.3,2.5,0.3c1.1,0,2.1-0.2,3.1-0.5c0.8-0.4,1.6-0.8,2.2-1.4
		c0.5-0.5,1-1.2,1.3-1.9C183.2,56,183.3,55.4,183.3,54.8L183.3,54.8z M153.6,47.8c0.1,0.2,0.3,0.3,0.4,0.4c0.2,0.1,0.4,0.2,0.6,0.2
		c0.4,0,0.7-0.1,1-0.4c0.3-0.3,0.4-0.5,0.4-0.9c0-0.4-0.2-0.9-0.4-1.3c-0.3-0.5-0.7-1.1-1.3-1.4c-0.6-0.5-1.4-0.9-2.1-1.2
		c-1-0.4-2.1-0.4-3.1-0.4c-1.3,0-2.6,0.2-3.8,0.6c-1.1,0.4-2.1,1-2.9,1.8s-1.3,1.7-1.8,2.8c-0.4,1.2-0.6,2.4-0.6,3.7
		s0.2,2.5,0.6,3.7c0.4,1.1,1,2,1.8,2.8c0.8,0.8,1.7,1.3,2.8,1.8c1.2,0.4,2.4,0.6,3.7,0.6c1.1,0,2.1-0.1,3.2-0.4
		c1.1-0.3,2.1-0.7,3-1.3c0.3-0.2,0.6-0.4,0.9-0.6c0.2-0.2,0.4-0.4,0.4-0.6c0.1-0.3,0.1-0.6,0.1-1v-3.4c0-0.4,0-0.9-0.3-1.2
		c-0.2-0.3-0.4-0.4-0.6-0.4c-0.4-0.1-0.8-0.1-1.2-0.1h-4.1c-0.4,0-0.7,0.1-1,0.3c-0.2,0.2-0.4,0.4-0.4,0.7c0,0.3,0.1,0.5,0.4,0.7
		c0.4,0.2,1,0.3,1.3,0.3h3.2V57l-0.2,0.1c-0.7,0.4-1.5,0.7-2.3,1c-0.8,0.3-1.6,0.4-2.5,0.4c-1.7,0-3.2-0.5-4.3-1.8
		c-1.2-1.4-1.5-3.3-1.5-5c0-0.9,0.1-1.9,0.4-2.8c0.3-0.8,0.6-1.5,1.2-2.1s1.1-1.1,1.8-1.3c0.7-0.4,1.6-0.4,2.4-0.4
		c0.7,0,1.5,0.1,2.1,0.4c0.5,0.3,1,0.5,1.3,1C152.8,46.6,153.2,47.2,153.6,47.8L153.6,47.8z M161,58.6c0,0.4,0.1,1.1,0.4,1.4
		c0.3,0.3,0.6,0.4,1.1,0.4s0.8-0.1,1.1-0.4c0.4-0.4,0.4-0.9,0.4-1.4v-14c0-0.4-0.1-1.1-0.4-1.4c-0.3-0.3-0.6-0.4-1.1-0.4
		s-0.8,0.1-1.1,0.4c-0.4,0.4-0.4,0.9-0.4,1.4V58.6L161,58.6z M24.3,55.1c0-0.7-0.1-1.4-0.4-2.1c-0.3-0.5-0.7-1.1-1.3-1.4
		c-0.6-0.4-1.3-0.7-2.1-1c-0.9-0.3-1.8-0.5-2.8-0.8c-0.6-0.2-1.2-0.3-1.8-0.4c-0.4-0.1-0.7-0.3-1.1-0.4c-0.4-0.2-0.7-0.4-0.9-0.8
		c-0.3-0.4-0.4-0.7-0.4-1.2c0-0.7,0.4-1.3,1-1.8c0.7-0.5,1.6-0.7,2.5-0.7c0.8,0,1.8,0.1,2.4,0.6c0.5,0.4,1,1.1,1.3,1.7
		c0.2,0.3,0.4,0.7,0.6,0.9c0.2,0.2,0.4,0.2,0.7,0.2c0.4,0,0.6-0.1,0.9-0.4c0.3-0.3,0.4-0.5,0.4-0.9c0-0.4-0.1-0.9-0.4-1.3
		c-0.3-0.5-0.6-1-1.1-1.3c-0.5-0.4-1.3-0.8-1.9-1c-0.9-0.3-1.9-0.4-2.8-0.4c-1.2,0-2.4,0.2-3.5,0.6c-0.9,0.4-1.6,0.9-2.2,1.6
		c-0.5,0.7-0.7,1.5-0.7,2.4s0.2,1.7,0.7,2.4c0.5,0.7,1.2,1.2,2,1.5c1,0.4,2.1,0.8,3.2,1c0.8,0.2,1.6,0.4,2.3,0.6
		c0.6,0.2,1.2,0.5,1.5,0.9c0.4,0.4,0.6,1.1,0.6,1.7c0,0.9-0.4,1.6-1.2,2.1c-0.8,0.6-1.9,0.8-2.9,0.8c-0.7,0-1.4-0.1-2.1-0.4
		c-0.5-0.3-0.9-0.6-1.3-1.1c-0.4-0.4-0.5-1-0.8-1.5c-0.1-0.4-0.4-0.7-0.6-1C12.3,54.1,12,54,11.7,54c-0.4,0-0.6,0.1-0.9,0.4
		c-0.3,0.3-0.4,0.5-0.4,0.9c0,0.8,0.3,1.5,0.7,2.1c0.4,0.7,1.1,1.3,1.9,1.8c1.4,1,3,1.2,4.4,1.2c1.3,0,2.6-0.2,3.7-0.7
		c0.9-0.4,1.8-1,2.3-1.9C24,57,24.3,56.1,24.3,55.1L24.3,55.1z M39.6,58.3c0.2,0.4,0.3,0.6,0.4,1c0.1,0.3,0.3,0.5,0.4,0.7
		s0.3,0.3,0.4,0.4c0.2,0.1,0.4,0.1,0.5,0.1c0.4,0,0.7-0.1,1-0.4c0.3-0.3,0.4-0.5,0.4-0.9c0-0.5-0.4-1.3-0.5-1.8l-4.7-11.5
		c-0.2-0.4-0.4-0.9-0.5-1.3c-0.1-0.4-0.3-0.6-0.5-0.9c-0.2-0.3-0.4-0.4-0.7-0.6c-0.4-0.2-0.7-0.3-1.1-0.3c-0.4,0-0.7,0.1-1.1,0.3
		c-0.3,0.2-0.5,0.4-0.7,0.6c-0.3,0.4-0.4,0.7-0.5,1.1c-0.2,0.4-0.4,0.8-0.4,1.2l-4.6,11.5c-0.2,0.4-0.3,0.7-0.4,1.1
		c-0.1,0.2-0.1,0.4-0.1,0.6c0,0.4,0.2,0.6,0.4,0.9c0.3,0.3,0.6,0.4,1,0.4s0.7-0.1,0.9-0.4c0.4-0.4,0.6-1.3,0.8-1.7l0.6-1.6l0,0
		L34.7,45l4.2,11.4L39.6,58.3L39.6,58.3z M55.4,45.3H51v13.3c0,0.4-0.1,1.1-0.4,1.4c-0.3,0.3-0.5,0.4-1,0.4s-0.8-0.1-1.1-0.4
		C48.1,59.6,48,59,48,58.5V45.3h-4.3c-0.4,0-0.9-0.1-1.2-0.4c-0.3-0.2-0.4-0.5-0.4-0.8c0-0.4,0.1-0.6,0.4-0.8
		c0.3-0.3,0.7-0.4,1.2-0.4h11.6c0.4,0,0.9,0.1,1.2,0.4c0.3,0.2,0.4,0.5,0.4,0.8c0,0.4-0.1,0.6-0.4,0.8
		C56.2,45.2,55.7,45.3,55.4,45.3L55.4,45.3z M71.3,45.1c0.4,0,0.8-0.1,1.1-0.3c0.3-0.2,0.3-0.4,0.3-0.8c0-0.3-0.1-0.5-0.3-0.7
		C72.1,43,71.7,43,71.3,43h-9.7c-0.4,0-0.8,0-1.2,0.2c-0.3,0.1-0.4,0.3-0.5,0.5c-0.2,0.4-0.2,0.7-0.2,1.2v13.4
		c0,0.4,0.1,1.1,0.4,1.4c0.4,0.4,1,0.4,1.4,0.4h9.9c0.4,0,0.8-0.1,1.1-0.3c0.3-0.2,0.4-0.4,0.4-0.8c0-0.3-0.1-0.5-0.4-0.8
		S71.9,58,71.6,58h-8.9v-5.8h7.9c0.4,0,0.7-0.1,1-0.3c0.2-0.2,0.3-0.4,0.3-0.7c0-0.3-0.1-0.5-0.3-0.7c-0.3-0.3-0.7-0.3-1-0.3h-8
		v-5.1L71.3,45.1L71.3,45.1z M79.4,44.5c0-0.4-0.1-1.1-0.4-1.4c-0.3-0.3-0.6-0.4-1.1-0.4s-0.8,0.1-1.1,0.4c-0.4,0.4-0.4,0.9-0.4,1.4
		v13.7c0,0.4,0.1,1.1,0.4,1.4c0.4,0.4,1,0.4,1.4,0.4h8.9c0.4,0,0.8-0.1,1.2-0.4c0.3-0.2,0.4-0.4,0.4-0.8s-0.1-0.6-0.4-0.8
		c-0.3-0.3-0.7-0.4-1.2-0.4h-7.8L79.4,44.5L79.4,44.5z"/>
	<path class="st1" d="M115.1,43.4c3.4-3.3,8.9-3.3,12.2,0.1c3.3,3.4,3.3,8.9-0.1,12.2l0,0l4.3,4.4c5.8-5.7,5.9-15,0.2-20.8
		c-5.7-5.8-15-5.9-20.8-0.2l-0.1,0.1L115.1,43.4C115,43.5,115.1,43.4,115.1,43.4L115.1,43.4z M108.6,36.8L108.6,36.8l-5.4-5.4
		l3.8-3.8L108.6,36.8z"/>
	<path class="st2" d="M187.6,42.9c1.1,0,1.9,0.8,1.9,1.9s-0.8,1.9-1.9,1.9c-1.1,0-1.9-0.8-1.9-1.9C185.8,43.8,186.6,42.9,187.6,42.9
		z"/>
	<path class="st3" d="M115,43.5c-3.3,3.4-3.3,8.9,0.1,12.2c3.4,3.3,8.9,3.3,12.2-0.1l0,0l4.4,4.3c-5.7,5.8-15,5.9-20.8,0.2
		c-5.8-5.7-5.9-15-0.2-20.8l0.1-0.1L115,43.5L115,43.5L115,43.5z M108.5,36.9L108.5,36.9l-5.4-5.4l-3.8,3.8L108.5,36.9z"/>
	<path class="st4" d="M186.9,45.9v-2.1h0.9c0.2,0,0.4,0,0.4,0.1c0.1,0,0.2,0.1,0.3,0.2c0.1,0.1,0.1,0.2,0.1,0.3
		c0,0.2-0.1,0.3-0.2,0.4c-0.1,0.1-0.3,0.2-0.4,0.2c0.1,0,0.1,0.1,0.2,0.1c0.1,0.1,0.2,0.2,0.3,0.3l0.4,0.5h-0.4l-0.3-0.4
		c-0.1-0.1-0.2-0.2-0.2-0.3c-0.1-0.1-0.1-0.1-0.2-0.2c0,0-0.1,0-0.1-0.1c0,0-0.1,0-0.2,0h-0.4v0.9h-0.3V45.9z M187.2,44.7h0.6
		c0.1,0,0.2,0,0.3,0c0.1,0,0.1-0.1,0.2-0.1c0-0.1,0.1-0.1,0.1-0.2c0-0.1,0-0.2-0.1-0.3c-0.1-0.1-0.2-0.1-0.4-0.1h-0.6L187.2,44.7
		L187.2,44.7z"/>
</g>
</svg>
