<?xml version="1.0" encoding="utf-8"?>
<!-- Generator: Adobe Illustrator 27.4.1, SVG Export Plug-In . SVG Version: 6.00 Build 0)  -->
<svg version="1.1" id="Слой_1" xmlns="http://www.w3.org/2000/svg" xmlns:xlink="http://www.w3.org/1999/xlink" x="0px" y="0px"
	 viewBox="0 0 200 98.4" style="enable-background:new 0 0 200 98.4;" xml:space="preserve">
<style type="text/css">
	.st0{fill-rule:evenodd;clip-rule:evenodd;fill:#E3000F;}
	.st1{fill-rule:evenodd;clip-rule:evenodd;}
</style>
<g>
	<g>
		<path class="st0" d="M59,63.3H27.8c-1.9,0-2.6-2.5-0.9-3.4l8.5-5c0.6-0.4,1.3-0.3,1.9,0l5.3,3.4c0.6,0.4,1.3,0.4,1.9,0l5.3-3.3
			c0.6-0.4,1.3-0.4,1.9,0l8.4,5C61.6,60.9,60.8,63.3,59,63.3z"/>
		<path class="st0" d="M42.4,28L42.4,28c0-1.6-2-2.1-2.8-0.8L24.1,55.4l-0.5,0.9c-0.6,1.3,0.8,2.7,2.1,1.9l8.6-5.2
			c0.5-0.3,0.6-0.7,0.6-1.2v-7c0-0.5,0.3-0.9,0.7-1.2l5.8-3.4c0.5-0.3,0.7-0.7,0.7-1.2V28z"/>
		<path class="st0" d="M44.5,28L44.5,28c0-1.6,2-2.1,2.8-0.8l15.5,28.2l0.5,0.9c0.6,1.3-0.8,2.7-2.1,1.9l-8.6-5.2
			c-0.5-0.3-0.6-0.7-0.6-1.2v-7c0-0.5-0.3-0.9-0.7-1.2l-5.8-3.5c-0.5-0.3-0.7-0.7-0.7-1.2V28z"/>
		<path class="st0" d="M128.9,32.1c1.6,0,2.8-1.2,2.8-2.8c0-1.6-1.3-2.8-2.8-2.8c-1.6,0-2.8,1.2-2.8,2.8
			C126,30.8,127.3,32.1,128.9,32.1z"/>
	</g>
	<g>
		<path class="st1" d="M179.3,50.8c-0.1,0.7-0.7,1.4-1.5,1.4c-3.2,0-6.6,0-10,0h-9.4l0.3,0.8c0.3,0.9,0.6,1.5,1,2.1
			c1.1,1.6,2.4,2.4,4.2,2.9c1,0.3,2.1,0.5,3.1,0.5c1.6,0,3.2-0.4,4.4-1.2c0.6-0.3,0.9-0.6,1.4-1c0.1-0.1,0.2-0.2,0.3-0.3l4.5,2.6
			c-0.6,0.7-1.2,1.4-1.9,2c-2.2,1.8-4.7,2.7-7.9,2.9c-0.4,0-0.7,0-1,0c-3.1,0-5.7-0.6-7.9-2.1c-3.8-2.4-5.8-5.9-6.1-10.7
			c-0.2-4.3,1.1-7.8,3.9-10.5c2.5-2.4,5.7-3.7,9.5-3.7c0.4,0,0.7,0,1.1,0c6.6,0.4,11.5,5.4,12,12.1
			C179.3,48.5,179.4,49.6,179.3,50.8L179.3,50.8L179.3,50.8z M166.3,41.4c-3.2,0-6.9,1.9-7.6,5.8l-0.1,0.7h15l-0.1-0.7
			c-0.5-3.3-3.3-5.7-7-5.9C166.6,41.4,166.4,41.4,166.3,41.4L166.3,41.4z"/>
		<path class="st1" d="M80.1,63.4c-0.7,0-1.6-0.1-2.4-0.2c-2.4-0.3-4.4-1.2-6.1-2.6c-0.9-0.7-1.6-1.7-2.1-2.7l4.9-2.7
			c0.9,1.9,2.7,3.1,5,3.2c0.3,0,0.6,0,0.8,0c0.7,0,1.3-0.1,1.9-0.3l0,0l0,0c1.3-0.5,1.9-1.2,2-2.4c0.1-1-0.5-1.9-1.5-2.3
			c-0.9-0.5-1.9-0.7-2.8-1c-0.5-0.1-0.8-0.3-1.3-0.4C77,51.5,75.5,51,74,50.3c-1.9-1-3-2.2-3.4-3.9c-0.9-3.5,0.5-6.8,3.7-8.5
			c1.6-0.8,3.6-1.3,5.7-1.3c1.9,0,5.7,0.5,8.4,3.5c0.3,0.4,0.6,0.7,0.9,1.2c0,0,0,0,0.1,0.1L84.6,44c-0.2-0.2-0.3-0.5-0.5-0.6
			c-0.9-1.2-2.5-1.9-4.2-1.9c-0.7,0-1.5,0.2-2.1,0.5c-1.2,0.6-1.5,1.5-1.6,2.1c-0.1,1,0.5,1.9,1.4,2.3c1,0.5,2.2,0.8,3.3,1.2
			c0.3,0.1,0.6,0.2,0.9,0.3c1.6,0.5,3.1,0.8,4.4,1.6c2.6,1.4,3.8,3.3,3.8,6.2c0,3-1.3,5-3.9,6.4C84.5,62.9,82.4,63.4,80.1,63.4
			L80.1,63.4z"/>
		<rect x="126.1" y="37.1" class="st1" width="5.7" height="25.6"/>
		<path class="st1" d="M100.7,40c1.9-2.1,4.9-3.5,8.1-3.6h0.5c5.2,0,9.6,3.1,11.6,7.9c2,5.1,1.4,9.8-1.8,14.2c-2.3,3.2-5.9,5-9.8,5
			c-1.6,0-3.2-0.3-4.6-0.9c-1.1-0.5-2.1-1.2-3-2.1c-0.1-0.1-0.3-0.3-0.5-0.5l-1.2-1.2V72h-5.7V38.6c0-0.8,0.6-1.5,1.6-1.5h4.2v3.8
			L100.7,40L100.7,40z M107.9,41.8c-4.5,0-7.9,3.3-8,8.1c0,2.3,0.7,4.4,2.1,5.8c1.5,1.5,3.5,2.4,5.7,2.4h0.2c4.5,0,8-3.3,8.1-8
			c0-2.3-0.7-4.4-2.1-5.9c-1.5-1.5-3.5-2.3-5.8-2.4C108,41.8,108,41.8,107.9,41.8L107.9,41.8z"/>
		<path class="st1" d="M141.8,41.1v-4.1h-5.7v25.6h4.2c0.8,0,1.6-0.6,1.6-1.5v-9.6c0-0.4,0-0.6,0-0.9c0-1.8,0.4-3.2,1.1-4.4
			c1.1-1.8,2.9-2.8,5.3-3.1c0.6-0.1,1.1-0.1,1.7-0.1h0.1c1-2.4,2.5-4.5,4.4-6.3c-1.3-0.1-2.3-0.2-3-0.2c-0.6,0-0.7,0-0.7,0l0,0
			c-3.7,0.2-7.3,2.4-8.8,5.4L141.8,41.1z"/>
	</g>
</g>
</svg>
