<?xml version="1.0" encoding="utf-8"?>
<!-- Generator: Adobe Illustrator 27.4.1, SVG Export Plug-In . SVG Version: 6.00 Build 0)  -->
<svg version="1.1" id="Слой_1" xmlns="http://www.w3.org/2000/svg" xmlns:xlink="http://www.w3.org/1999/xlink" x="0px" y="0px"
	 viewBox="0 0 200 98.4" style="enable-background:new 0 0 200 98.4;" xml:space="preserve">
<style type="text/css">
	.st0{fill-rule:evenodd;clip-rule:evenodd;fill:#112051;}
</style>
<g>
	<rect x="167.3" y="37.9" class="st0" width="2.3" height="2.4"/>
	<rect x="173.7" y="37.9" class="st0" width="2.3" height="2.4"/>
	<path class="st0" d="M137.8,53.9l-3-5.9c1.3-0.5,2.4-1.6,2.4-3.6c0-2.2-1.6-4.2-4.4-4.2h-5.2v13.6h2.7v-5.5h1.9l2.7,5.5h3V53.9
		L137.8,53.9z M134.6,44.4c0,1-0.8,1.7-1.9,1.7h-2.6v-3.6h2.6C133.8,42.6,134.6,43.5,134.6,44.4L134.6,44.4z"/>
	<path class="st0" d="M177.7,53.9l-5-13.6h-2.1l-5,13.6h2.8l0.8-2.4h4.8l0.8,2.4H177.7L177.7,53.9L177.7,53.9z M173.4,49.3H170
		l1.7-4.9L173.4,49.3L173.4,49.3z"/>
	<path class="st0" d="M82.2,49.3v-9h-2.7v8.8c0,1.5-0.9,2.4-2.4,2.4c-1.5,0-2.3-0.9-2.3-2.4v-8.8h-2.7v9c0,2.9,2.2,4.8,5,4.8
		S82.2,52.1,82.2,49.3L82.2,49.3z"/>
	<polygon class="st0" points="95.7,53.9 95.7,40.3 93,40.3 93,48.6 87.7,40.3 85.2,40.3 85.2,53.9 87.9,53.9 87.9,45.5 93.2,53.9 	
		"/>
	<rect x="98.8" y="40.3" class="st0" width="2.7" height="13.6"/>
	<polygon class="st0" points="114.2,40.3 111.5,40.3 108.7,49.2 106,40.3 103.2,40.3 107.8,53.9 109.6,53.9 	"/>
	<polygon class="st0" points="124.9,53.8 124.9,51.5 118.6,51.5 118.6,48.2 123.9,48.2 123.9,45.9 118.6,45.9 118.6,42.6 
		124.9,42.6 124.9,40.3 115.9,40.3 115.9,53.8 	"/>
	<path class="st0" d="M149,49.9c0-1.2-0.3-2.2-1-2.9c-0.6-0.6-1.3-0.9-2.6-1l-1.6-0.2c-0.6-0.1-0.9-0.3-1.3-0.6
		c-0.2-0.2-0.3-0.6-0.3-0.9c0-0.9,0.7-1.7,2.1-1.7c0.9,0,2,0.1,2.8,0.9l1.7-1.6c-1.2-1.2-2.6-1.6-4.4-1.6c-2.9,0-4.8,1.7-4.8,4.2
		c0,1.2,0.3,2,0.9,2.7c0.6,0.6,1.5,0.9,2.7,1.2l1.6,0.2c0.6,0.1,0.9,0.2,1.2,0.5c0.3,0.3,0.5,0.7,0.5,1.2c0,1-0.9,1.6-2.4,1.6
		c-1.2,0-2.4-0.3-3.3-1.2l-1.7,1.7c1.3,1.4,2.9,1.7,5,1.7C146.7,54,149,52.5,149,49.9L149,49.9z"/>
	<rect x="151.5" y="40.3" class="st0" width="2.7" height="13.6"/>
	<polygon class="st0" points="166.2,42.6 166.2,40.3 156.4,40.3 156.4,42.6 160,42.6 160,53.8 162.6,53.8 162.6,42.6 	"/>
	<polygon class="st0" points="187,42.6 187,40.3 177.3,40.3 177.3,42.6 180.8,42.6 180.8,53.9 183.5,53.9 183.5,42.6 	"/>
	<path class="st0" d="M82.1,65.1c0-2.1,0.2-4-1.4-5.4c-0.9-0.9-2.1-1.3-3.6-1.3h-4.9v13.6h4.9c1.4,0,2.7-0.3,3.6-1.3
		C82.2,69.2,82.1,67.2,82.1,65.1L82.1,65.1L82.1,65.1z M79.4,65.1c0,2.1-0.1,3-0.6,3.6c-0.5,0.6-1,0.8-2,0.8h-2v-8.8h2
		c0.9,0,1.5,0.3,2,0.8C79.3,62.2,79.4,63,79.4,65.1L79.4,65.1z"/>
	<path class="st0" d="M95.1,72l-3-5.8c1.3-0.5,2.4-1.6,2.4-3.6c0-2.3-1.6-4.2-4.4-4.2h-5.4V72h2.7v-5.4h2l2.7,5.4H95.1L95.1,72
		L95.1,72z M92,62.5c0,1-0.7,1.7-1.9,1.7h-2.6v-3.6h2.6C91.1,60.8,92,61.5,92,62.5L92,62.5z"/>
	<polygon class="st0" points="106.4,72 106.4,69.6 100.1,69.6 100.1,66.3 105.5,66.3 105.5,63.9 100.1,63.9 100.1,60.8 106.4,60.8 
		106.4,58.3 97.4,58.3 97.4,72 	"/>
	<path class="st0" d="M117.8,68c0-1.2-0.3-2.2-1-2.9c-0.6-0.6-1.4-0.9-2.6-1l-1.6-0.2c-0.6,0-0.9-0.3-1.3-0.6
		c-0.3-0.2-0.3-0.6-0.3-0.9c0-0.9,0.7-1.7,2.1-1.7c0.9,0,2,0.1,2.8,0.9l1.7-1.6c-1.2-1.2-2.6-1.5-4.4-1.5c-3,0-4.8,1.7-4.8,4.1
		c0,1.2,0.3,2.1,0.9,2.7s1.5,0.9,2.7,1.2l1.6,0.2c0.6,0.1,0.9,0.2,1.2,0.5c0.3,0.2,0.3,0.6,0.3,1.2c0,1.2-0.8,1.7-2.4,1.7
		c-1.3,0-2.4-0.3-3.3-1.2l-1.7,1.7c1.3,1.4,2.9,1.7,4.9,1.7C115.7,72.1,117.8,70.6,117.8,68L117.8,68z"/>
	<path class="st0" d="M130.2,65.1c0-2.1,0.1-4-1.4-5.4c-0.8-0.9-2.1-1.4-3.6-1.4h-4.9V72h4.9c1.4,0,2.7-0.3,3.6-1.3
		C130.3,69.2,130.2,67.2,130.2,65.1L130.2,65.1L130.2,65.1z M127.7,65.1c0,2.1-0.1,3-0.6,3.6s-1,0.8-2,0.8h-2v-8.8h2
		c0.9,0,1.5,0.3,2,0.8C127.6,62.2,127.7,63,127.7,65.1L127.7,65.1z"/>
	<polygon class="st0" points="142,72 142,69.6 135.7,69.6 135.7,66.3 141,66.3 141,63.9 135.7,63.9 135.7,60.8 142,60.8 142,58.3 
		133,58.3 133,72 	"/>
	<polygon class="st0" points="155.1,72 155.1,58.3 152.4,58.3 152.4,66.7 147.1,58.3 144.7,58.3 144.7,72 147.3,72 147.3,63.6 
		152.7,72 	"/>
	<polygon class="st0" points="82,24.5 82,22.2 72.2,22.2 72.2,24.5 75.8,24.5 75.8,35.8 78.3,35.8 78.3,24.5 	"/>
	<polygon class="st0" points="93.4,35.8 93.4,33.3 87,33.3 87,30.1 92.3,30.1 92.3,27.7 87,27.7 87,24.5 93.4,24.5 93.4,22.2 
		84.4,22.2 84.4,35.8 	"/>
	<path class="st0" d="M105.7,31.6H103c-0.3,1-0.9,1.9-2.3,1.9c-0.7,0-1.3-0.2-1.7-0.7c-0.6-0.6-0.7-1.2-0.7-3.8s0.1-3.3,0.7-3.8
		c0.3-0.5,0.9-0.7,1.7-0.7c1.3,0,2,0.8,2.3,1.9h2.7c-0.6-2.8-2.6-4.2-5-4.2c-1.5,0-2.7,0.6-3.6,1.5c-1.4,1.4-1.3,3-1.3,5.4
		s0,4.1,1.3,5.4c0.9,0.9,2.2,1.5,3.6,1.5C103.1,35.9,105.1,34.4,105.7,31.6L105.7,31.6z"/>
	<polygon class="st0" points="118,35.8 118,22.2 115.3,22.2 115.3,27.7 110.8,27.7 110.8,22.2 108.1,22.2 108.1,35.8 110.8,35.8 
		110.8,30.1 115.3,30.1 115.3,35.8 	"/>
	<polygon class="st0" points="131.9,35.8 131.9,22.2 129.2,22.2 129.2,30.4 123.7,22.2 121.4,22.2 121.4,35.8 124.1,35.8 
		124.1,27.4 129.4,35.8 	"/>
	<rect x="135.2" y="22.2" class="st0" width="2.7" height="13.5"/>
	<path class="st0" d="M150,31.7c0-1.2-0.3-2.2-1-2.9c-0.6-0.6-1.3-0.9-2.6-1l-1.6-0.2c-0.6-0.1-0.9-0.3-1.3-0.6
		c-0.2-0.3-0.3-0.6-0.3-0.9c0-0.9,0.7-1.7,2.1-1.7c0.9,0,2,0.1,2.8,0.9l1.7-1.6c-1.2-1.2-2.6-1.6-4.4-1.6c-2.9,0-4.8,1.7-4.8,4.2
		c0,1.2,0.3,2,0.9,2.7c0.6,0.6,1.5,0.9,2.7,1.2l1.6,0.2c0.6,0.1,0.9,0.2,1.2,0.5c0.3,0.3,0.5,0.7,0.5,1.2c0,1-0.9,1.6-2.4,1.6
		c-1.2,0-2.4-0.3-3.3-1.2L140,34c1.3,1.4,2.9,1.7,5,1.7C147.8,35.9,150,34.4,150,31.7L150,31.7z"/>
	<path class="st0" d="M162.3,31.6h-2.7c-0.2,1-0.9,1.9-2.3,1.9c-0.7,0-1.3-0.2-1.7-0.7c-0.5-0.6-0.6-1.2-0.6-3.8s0.1-3.3,0.6-3.8
		c0.3-0.5,0.9-0.7,1.7-0.7c1.3,0,2.1,0.8,2.3,1.9h2.7c-0.5-2.8-2.4-4.3-5-4.3c-1.5,0-2.7,0.6-3.7,1.5c-1.4,1.4-1.3,3-1.3,5.4
		s0,4.1,1.3,5.4c0.9,0.9,2.2,1.5,3.7,1.5C159.8,35.9,161.9,34.4,162.3,31.6L162.3,31.6z"/>
	<polygon class="st0" points="174.7,35.8 174.7,22.2 172,22.2 172,27.7 167.5,27.7 167.5,22.2 164.8,22.2 164.8,35.8 167.5,35.8 
		167.5,30.1 172,30.1 172,35.8 	"/>
	<polygon class="st0" points="187.1,35.8 187.1,33.3 180.7,33.3 180.7,30.1 186.1,30.1 186.1,27.7 180.7,27.7 180.7,24.5 
		187.1,24.5 187.1,22.2 178.2,22.2 178.2,35.8 	"/>
	<path class="st0" d="M17.5,41.8h13.6v15.8h16.6V41.8h13.5v13.8L48,68.9H30.8L17.5,55.7V41.8L17.5,41.8L17.5,41.8z M59.9,43.3H49.3
		v15.8H29.6V43.3H19v11.7l12.3,12.3h16.1l12.3-12.3L59.9,43.3L59.9,43.3L59.9,43.3z M59.5,38.8L47.4,26.7H31.4l-12,12.1h14.8v15.8
		h10.6V38.8H59.5L59.5,38.8L59.5,38.8z M61.2,40.3L61.2,40.3L61.2,40.3v-1.9L48,25.2H30.8L17.5,38.5v1.9h15.1v15.8h13.6V40.3H61.2
		L61.2,40.3z M14.5,37.3v19.5L29.6,72h19.7l15-15.1V37.3l-15-15.1H29.6L14.5,37.3L14.5,37.3L14.5,37.3z M16,37.9v18.4l14.2,14.2
		h18.4l14.2-14.2V37.9L48.6,23.7H30.2L16,37.9L16,37.9z"/>
</g>
</svg>
