<?xml version="1.0" encoding="utf-8"?>
<!-- Generator: Adobe Illustrator 27.4.1, SVG Export Plug-In . SVG Version: 6.00 Build 0)  -->
<svg version="1.1" id="Слой_1" xmlns="http://www.w3.org/2000/svg" xmlns:xlink="http://www.w3.org/1999/xlink" x="0px" y="0px"
	 viewBox="0 0 200 98.4" style="enable-background:new 0 0 200 98.4;" xml:space="preserve">
<style type="text/css">
	.st0{fill-rule:evenodd;clip-rule:evenodd;fill:#E3000F;}
</style>
<path class="st0" d="M118.3,89.1c6.3,0,10.7-1.9,14.2-4.2c3.3-2.2,5.8-4.8,7.7-8.2c2.4-4.3,3.3-8.3,3.5-10.6l4.5-48.5h-23.2
	C125.2,17.8,118.3,89.1,118.3,89.1L118.3,89.1z M64,82.6h20.6L89,38.6H68.3C68.2,38.6,64.6,76.9,64,82.6L64,82.6L64,82.6z M96.3,34
	c0,0-41.1,0-42.5,0c-2.7,0-10.4-2.9-10.4-11.7c0.1-7,6.4-11.2,10.6-11.2h55.5c1.5,0,5.2,0.8,7.8,3.7c2.2,2.4,3.1,5.4,2.9,8.5
	c0,0-6.1,63.3-6.3,65.3c-7.1-1.3-13.2-4.3-16.5-8.2c-1.9-2.1-4.8-6.2-4.2-14L96.3,34L96.3,34z M143.2,24.1H138c-1,0-1.6,0.2-1.7,1.2
	c-0.1,1.2,1,2.1,2.7,2.1h3.8l-0.1,1.7h-8l0.1-1.6c0.5,0,1.2,0,1.5,0.1l0,0c-0.9-0.5-1.6-1.4-1.5-2.8c0.2-1.9,1.4-2.4,2.8-2.4h5.6
	L143.2,24.1L143.2,24.1z M142.2,33.3h-8l0.1-1.7h8L142.2,33.3L142.2,33.3z M132.9,32.4c0,0.6-0.6,1.2-1.2,1.2s-1-0.5-0.9-1.2
	c0-0.6,0.6-1,1.2-1C132.6,31.3,133,31.8,132.9,32.4L132.9,32.4z M141.9,37.4h-11.8l0.1-1.7H142L141.9,37.4L141.9,37.4z M135.2,38.9
	c-0.5,1.6,0.6,2.3,2.9,2.3h3.3l-0.1,1.7h-8l0.1-1.6c0.5,0,1.2,0,1.7,0.1l0,0c-1-0.3-2-1.2-1.6-2.7L135.2,38.9L135.2,38.9z M134,48.3
	c0.1-1,0.8-1.6,2-1.6l-0.3,3.5C134.5,50,133.8,49.3,134,48.3L134,48.3z M137.3,45.1l-0.6,5.1c1.9,0,2.7-0.7,2.8-2.3
	c0.1-0.8,0-1.6-0.2-2.3l1.4-0.2c0.2,0.8,0.3,1.9,0.2,2.8c-0.2,2.4-1.6,3.8-4.4,3.8c-2.4,0-4.1-1.4-3.8-3.7c0.2-2.3,1.9-3.3,3.6-3.3
	C136.5,44.9,137,45.1,137.3,45.1L137.3,45.1z M133.3,56.7c0.1-1,1-1.6,2.7-1.6c2.1,0,2.9,0.9,2.8,2.3c0,0.5-0.1,0.9-0.2,1.3h-2.4
	C134.5,58.8,133.1,58.1,133.3,56.7L133.3,56.7z M140,57.6c-0.1,1.2-0.3,2-0.6,2.9h-11.5l0.1-1.7h3.7c0.5,0,1,0,1.5,0.1l0,0
	c-0.9-0.5-1.5-1.4-1.4-2.6c0.2-1.9,1.6-2.9,4.1-2.9C138.7,53.3,140.2,55,140,57.6z"/>
</svg>
