<?xml version="1.0" encoding="utf-8"?>
<!-- Generator: Adobe Illustrator 27.4.1, SVG Export Plug-In . SVG Version: 6.00 Build 0)  -->
<svg version="1.1" id="Слой_1" xmlns="http://www.w3.org/2000/svg" xmlns:xlink="http://www.w3.org/1999/xlink" x="0px" y="0px"
	 viewBox="0 0 200 98.4" style="enable-background:new 0 0 200 98.4;" xml:space="preserve">
<style type="text/css">
	.st0{fill-rule:evenodd;clip-rule:evenodd;fill:#996F32;}
	.st1{fill-rule:evenodd;clip-rule:evenodd;fill:#2B2A29;}
	.st2{fill-rule:evenodd;clip-rule:evenodd;fill:url(#SVGID_1_);}
	.st3{fill-rule:evenodd;clip-rule:evenodd;fill:#FEFEFE;}
	.st4{fill-rule:evenodd;clip-rule:evenodd;fill:url(#SVGID_00000121977361519029512630000012971045300699366577_);}
	.st5{fill-rule:evenodd;clip-rule:evenodd;fill:url(#SVGID_00000114070630326616206920000014225315524359566482_);}
	.st6{fill-rule:evenodd;clip-rule:evenodd;fill:url(#SVGID_00000172441301825968825750000005920613277815837091_);}
	.st7{fill-rule:evenodd;clip-rule:evenodd;fill:url(#SVGID_00000149343154567728274640000017192564608474457759_);}
	.st8{fill-rule:evenodd;clip-rule:evenodd;fill:url(#SVGID_00000027572633300150503130000000343146786566252734_);}
	.st9{fill-rule:evenodd;clip-rule:evenodd;fill:url(#SVGID_00000050652079475194781130000009747654486700584336_);}
	.st10{fill-rule:evenodd;clip-rule:evenodd;fill:#B68A35;}
	.st11{fill-rule:evenodd;clip-rule:evenodd;fill:url(#SVGID_00000070089117920181294270000005038039603862740396_);}
	.st12{fill-rule:evenodd;clip-rule:evenodd;fill:#D9D9D9;}
	.st13{fill-rule:evenodd;clip-rule:evenodd;fill:url(#SVGID_00000161605959491771010180000008224549758254675094_);}
	.st14{fill-rule:evenodd;clip-rule:evenodd;fill:url(#SVGID_00000156564155075350982030000015088652218842230678_);}
	.st15{fill-rule:evenodd;clip-rule:evenodd;fill:#028245;}
	.st16{fill-rule:evenodd;clip-rule:evenodd;fill:#CD1F2E;}
	.st17{fill-rule:evenodd;clip-rule:evenodd;}
</style>
<g id="Слой_x0020_1">
	<g id="_125836344352">
		<path class="st0" d="M93.5,54.3L93.5,54.3c-0.2,0.5-0.4,1.1-0.5,1.5c-0.4,0.9-0.7,1.9-1.1,2.8h3.2c-0.3-0.8-0.6-1.7-0.9-2.6
			C94,55.5,93.8,54.9,93.5,54.3L93.5,54.3z M98.1,47.2v0.3h-0.4l-0.3,0.7h3.1v-0.7h-1.6c-0.2-1.2,0.9-0.9,1.1-0.5l0.5-0.6
			C99.7,45.4,98.1,45.8,98.1,47.2L98.1,47.2z M128.5,34.8c0.1-1.6,0.4-1.5,2.1-1.5v9.8h9.4c0-1.4,0.2-2.4-0.8-3.3
			c-2.2-2.1-4.8,0.4-5.2,0.5l-1-1.1l4.8-5.3c1-1,1.5-2.1,2.9-0.5c-0.8,1.2-2.6,2.6-3.4,3.8c2,0,2.7,0.4,3.7,1.4
			c1.5,1.6,1.2,3.8,1.2,6H131c-1.8-0.1-2.4-1.2-2.4-3C128.5,39.4,128.5,37.1,128.5,34.8L128.5,34.8z M118.4,38.2h-1.6
			c-1,0-1.8,0.8-1.8,1.8v1.5c0,0.9,0.8,1.8,1.8,1.8l0,0c0.9,0,1.8-0.8,1.8-1.8L118.4,38.2L118.4,38.2z M147.5,38.6
			c0.9,0,1.7,1.1,1.7,2.4c0,1.4-0.8,2.4-1.7,2.4c-0.9,0-1.7-1.1-1.7-2.4C145.8,39.7,146.6,38.6,147.5,38.6z M13.9,33.9v8.8
			c0,1.1,0.8,2.1,1.9,2.1h27.6c0.9,0,1.4-0.2,1.7-0.5c0.4,0.4,0.8,0.5,1.7,0.5H50c1.2,0,2.6-1.6,2.6-2.8v-8.8
			c-2.3,0-1.9-0.2-1.9,2.4l0.1,5.9c0,1.5-0.9,1.5-3,1.5c-0.7,0-1.5-0.4-1.5-1.1v-8.8h-1.4c-0.4,0-0.5,0.2-0.5,0.5l-0.1,8.1
			c0,0.9-0.9,1.2-1.8,1.3c-0.5,0-1.3-0.1-2.6-0.1c1.4-2,1.3-3.9,0.4-5.1c-1.4-1.6-4.2-1.9-5.7-0.1c-1.3,1.6-0.9,3.7-0.1,5.3h-3
			c0-1.8,0.1-3.3-1.2-4.8c-0.4-0.5-0.8-0.8-1.3-1.1c-1.9-0.9-3.7-0.5-5.2,0.6c-1.2,0.8-1.8,1.8-2.2,2.5v-2.1c-2.6,0-2.1-0.4-2.1,4.9
			c-2.4,0-3.7,0.4-3.7-0.6v-9.2C14.5,33.2,13.9,33,13.9,33.9L13.9,33.9z M91.7,38.8c0.9,0,1.7,1,1.7,2.2s-0.8,2.2-1.7,2.2
			c-0.9,0-1.7-1-1.7-2.2C90,39.8,90.7,38.8,91.7,38.8z M22.2,43h7.6c0-1.4,0.1-2.6-0.8-3.8c-0.2-0.2-0.4-0.4-0.6-0.5
			C25.1,37.2,23.3,40.8,22.2,43L22.2,43z M37,43.3l1.4-1.2c0.7-0.6,1.2-2.2,0.4-3.1c-0.7-0.8-2.2-1.1-2.9-0.2
			c-0.8,1-0.7,2.6,0.1,3.4L37,43.3z M26.9,33.2c0.6,0,1.1,0.5,1.1,1.1s-0.5,1.1-1.1,1.1c-0.6,0-1.1-0.5-1.1-1.1
			C25.9,33.8,26.4,33.2,26.9,33.2z M118.3,33.2c0.6,0,1.1,0.5,1.1,1.1s-0.5,1.1-1.1,1.1c-0.6,0-1.1-0.5-1.1-1.1
			S117.7,33.2,118.3,33.2z M116,33.2c0.6,0,1.1,0.5,1.1,1.1s-0.5,1.1-1.1,1.1c-0.6,0-1.1-0.5-1.1-1.1S115.4,33.2,116,33.2z M64.9,36
			c0.6,0,1.1,0.5,1.1,1.1s-0.5,1.1-1.1,1.1c-0.6,0-1.1-0.5-1.1-1.1S64.2,36,64.9,36z M62.3,36c0.6,0,1.1,0.5,1.1,1.1
			s-0.5,1.1-1.1,1.1s-1.1-0.5-1.1-1.1S61.7,36,62.3,36z M37.1,33.3c0.6,0,1.1,0.5,1.1,1.1s-0.5,1.1-1.1,1.1c-0.6,0-1.1-0.5-1.1-1.1
			C36.1,33.8,36.5,33.3,37.1,33.3z M106.3,34.1v10.7h1.9V33.2h-1.1C106.6,33.2,106.3,33.6,106.3,34.1z M71.9,33.9v10.9h1.9V33.2
			h-1.3C72,33.2,71.9,33.4,71.9,33.9L71.9,33.9z M6.7,42.4V43H4.8c0.1,2.5,1.5,1.7,7.7,1.7V43H8.6c-0.4-2.8,2.1-2.2,2.6-1.3l1.1-1.5
			C10.6,38,6.7,39.2,6.7,42.4z M78.5,42.6c0,5.6-2.9,3.5-4.2,3.2c-0.5-0.1-0.9,1.1-0.5,1.4c0.7,0.6,1.7,1,2.8,0.9
			c1.2-0.1,2.2-0.6,2.9-1.4c1.4-1.6,0.9-7.4,0.9-10.2h-1.4c-0.3,0-0.4,0.1-0.4,0.4L78.5,42.6L78.5,42.6z M66.5,43.1h-5.8
			c-2.1,0-1.5-2.2-1.5-5.3c-2.4,0-1.9-0.6-1.9,4.5c0,1.3,1.3,2.5,2.6,2.5h7.1c3.8,0,3-4.8,3-8.5c-2.4,0-1.9-0.5-1.9,3.8
			C68,41.6,68.1,43.1,66.5,43.1z M100.5,43.1v-9.2h-1.9v9.2h-2.1l1.4,1.7c0.8,0,2.1,0,3.5,0c1.8,0,3-1.4,3-3.2v-8.4
			c-1.6,0-2-0.2-2,1.3l0.1,6.9C102.5,42.4,102,43.1,100.5,43.1L100.5,43.1z M144.1,40.5c0,1.4,0,3.1,1.4,3.9
			c1.4,0.9,1.8,0.5,3.4,0.5c-0.1,0.6-0.1,0.7-0.5,1.1c-1.4,1.1-2.9-0.2-3.8-0.4c-0.1,0.2-0.8,1.3,0.3,1.9c1.7,1,3.9,0.8,5.1-0.6
			c1.5-1.6,1.4-7.5,0.1-9c-0.3-0.4-0.5-0.5-0.9-0.8C146.7,36.2,144.1,37.8,144.1,40.5L144.1,40.5z M82.4,33.9v8.9
			c0,1.3,0.9,1.9,2.1,1.9h3.3c0.8,0,1.1-0.4,1.5-0.6c0.8,0.6,0.5,0.6,3.2,0.6c3.5,0,4-7.7-0.4-7.7c-1.4,0-2.8,0.2-3.4,1.9
			c-0.4,1.1-0.4,2.6-0.6,3.8c-0.8,0.2-3.7,0.8-3.7-0.4v-9.2C82.9,33.2,82.4,33.1,82.4,33.9L82.4,33.9z M123.2,43.1
			c-3.6,0-3,0.5-3-6.4c-5,0-7.1-0.6-7.1,4.7c0,4.1,4.7,4.1,5.8,2.5c1.8,1.2,1.7,0.8,5.1,0.8c0.7,0,1.5-0.5,1.8-0.9
			c0.5-0.5,0.7-1.2,0.7-2.1v-8.5c-2.4,0-1.9-0.2-1.9,5.1C124.7,40.5,125.3,43.1,123.2,43.1z M6.8,59.6c0.1,0.2,0.1,0.3,0.2,0.5
			c0.1,0.2,0.2,0.3,0.3,0.4c0.1,0.2,0.2,0.3,0.4,0.4C7.8,61,8,61,8.2,61.2c0.3,0.1,0.5,0.1,0.8,0.1c0.4,0,0.7-0.1,1.1-0.2
			c0.2-0.1,0.5-0.2,0.6-0.4c0.2-0.2,0.3-0.4,0.4-0.5c0.1-0.2,0.1-0.4,0.2-0.5c0-0.2,0.1-0.3,0.1-0.5v-7.1l0.2,0.1
			c0.2,0.1,0.4,0.1,0.5,0.1c0.2,0.1,0.3,0.1,0.5,0.2c0.2,0.1,0.3,0.2,0.4,0.3s0.2,0.3,0.2,0.5c0.1,0.2,0.1,0.5,0.1,0.7v5.4
			c0,2.6-1.5,3.7-4,3.7c-0.4,0-0.8-0.1-1.3-0.1c-0.4-0.1-0.7-0.1-1-0.2c-0.3-0.1-0.5-0.2-0.8-0.4C6,62,5.8,61.9,5.7,61.7
			c-0.2-0.2-0.3-0.4-0.4-0.6c-0.1-0.2-0.2-0.4-0.2-0.6c-0.1-0.2-0.1-0.4-0.1-0.6c0-0.2-0.1-0.4-0.1-0.5s0-0.3,0-0.5V52L5,52.1
			c0.1,0,0.2,0,0.2,0.1c0.1,0,0.2,0.1,0.2,0.1s0.2,0.1,0.3,0.1c0.1,0,0.1,0.1,0.2,0.1c0.1,0.1,0.2,0.1,0.3,0.2
			c0.1,0.1,0.1,0.1,0.2,0.2c0.1,0.1,0.2,0.2,0.2,0.3c0.1,0.1,0.1,0.2,0.1,0.4c0.1,0.2,0.1,0.3,0.1,0.4v5.1c0,0.1,0,0.2,0,0.3
			C6.8,59.3,6.8,59.4,6.8,59.6L6.8,59.6z M28.5,58.2v3.1h4.9v0.2c0,0.2,0,0.3,0,0.4s-0.1,0.3-0.1,0.4c-0.1,0.2-0.2,0.3-0.4,0.4
			s-0.4,0.1-0.6,0.2c-0.3,0.1-0.6,0.1-0.9,0.1h-4.9V52h6.9v0.2c0,0.1,0,0.2,0,0.2l0,0c0,0.1-0.1,0.2-0.1,0.4
			c-0.1,0.2-0.2,0.3-0.3,0.4c-0.2,0.1-0.4,0.2-0.6,0.3c-0.3,0.1-0.6,0.1-0.9,0.1h-2.9v3h4.3l0.1,0.1c0.1,0.2,0.1,0.4,0.1,0.6
			c0,0.3-0.1,0.5-0.4,0.7c-0.4,0.2-0.9,0.2-1.2,0.2H28.5L28.5,58.2z M39.2,60.3c0.3,0.4,0.8,0.6,1.2,0.8c0.5,0.2,1.1,0.4,1.7,0.4
			c0.5,0,0.9-0.1,1.3-0.4c0.4-0.2,0.5-0.6,0.5-1.1c0-0.2-0.1-0.3-0.1-0.4c-0.1-0.2-0.2-0.3-0.4-0.4c-0.2-0.1-0.4-0.2-0.6-0.4
			c-0.2-0.1-0.5-0.2-0.8-0.4c-0.3-0.1-0.5-0.2-0.8-0.4c-0.1,0-0.1-0.1-0.1-0.1l0,0l0,0c-0.2-0.1-0.5-0.2-0.6-0.3
			c-0.2-0.1-0.4-0.2-0.6-0.3c-0.2-0.1-0.4-0.2-0.6-0.4c-0.2-0.2-0.4-0.3-0.5-0.5c-0.2-0.2-0.3-0.4-0.4-0.7c-0.1-0.3-0.1-0.5-0.1-0.8
			c0-0.4,0.1-0.8,0.2-1.2c0.1-0.4,0.4-0.7,0.6-0.9c0.3-0.4,0.7-0.5,1.1-0.7c0.5-0.2,1.1-0.2,1.7-0.2c0.9,0,1.8,0.1,2.6,0.5
			c0.6,0.3,1.1,0.7,1.1,1.5c0,0.4-0.2,0.7-0.5,0.9L44.8,55l-0.1-0.1c-0.3-0.4-0.8-0.6-1.2-0.8c-0.5-0.2-1.1-0.4-1.7-0.4
			c-0.5,0-0.9,0.1-1.3,0.4c-0.4,0.2-0.5,0.6-0.5,1.1c0,0.3,0.1,0.5,0.3,0.6c0.2,0.2,0.6,0.4,0.9,0.6c0.5,0.2,1,0.4,1.5,0.6
			c0.3,0.1,0.6,0.2,0.9,0.4c0.3,0.1,0.5,0.3,0.8,0.4c0.2,0.2,0.5,0.4,0.7,0.6c0.2,0.2,0.4,0.5,0.5,0.7c0.1,0.3,0.2,0.6,0.2,1
			c0,0.4-0.1,0.8-0.2,1.2c-0.1,0.4-0.4,0.7-0.6,1c-0.3,0.4-0.7,0.5-1.2,0.7c-0.5,0.2-1.1,0.2-1.7,0.2c-0.9,0-1.8-0.1-2.6-0.5
			c-0.6-0.3-1.1-0.7-1.1-1.5c0-0.4,0.2-0.7,0.5-0.9l0.1-0.1L39.2,60.3L39.2,60.3z M49.5,53.6V63h-0.2c-0.3,0-0.7-0.1-0.9-0.1
			c-0.6-0.2-0.8-0.9-0.8-1.5v-9.1l2.2-0.1c1.4,0.1,3.2,0.1,4,1.2c0.6,0.9,0.8,2.7,0.3,3.7c-1.8,3.2-4.4,1.5-4.2,0.8
			c1.1,0.1,2.1-0.2,2.4-1.5c0.2-0.8,0.2-1.7-0.5-2.4C51.2,53.4,50.1,53.4,49.5,53.6z M71.2,61.5c0.4,0,0.9-0.1,1.3-0.1
			s0.8-0.2,1.1-0.3c0.3-0.1,0.6-0.2,0.8-0.4c0.2-0.1,0.4-0.2,0.5-0.3l0.5-0.3v0.4c0,0.9-0.5,1.5-1.2,2c-0.9,0.5-1.9,0.7-2.9,0.7
			c-0.7,0-1.4-0.1-2-0.3c-0.5-0.2-1.1-0.5-1.5-0.8c-0.4-0.4-0.8-0.8-1-1.2c-0.2-0.5-0.5-1-0.6-1.5S66,58.3,66,57.7
			c0-0.5,0.1-1.1,0.2-1.6c0.1-0.5,0.4-1.1,0.6-1.5c0.3-0.5,0.6-0.9,1-1.2c0.5-0.4,0.9-0.6,1.5-0.8c0.6-0.2,1.4-0.3,2-0.3
			c0.7,0,1.4,0.1,2,0.3c0.6,0.2,1.1,0.5,1.5,0.9c0.4,0.4,0.6,0.9,0.6,1.5v0.3L75.2,55C75.1,55,75.1,55,75,54.9
			c-0.2-0.1-0.4-0.2-0.5-0.3c-0.3-0.1-0.6-0.3-0.9-0.4c-0.4-0.1-0.7-0.2-1.1-0.3c-0.4-0.1-0.9-0.1-1.3-0.1c-0.4,0-0.9,0.1-1.3,0.2
			c-0.4,0.1-0.6,0.3-0.9,0.6c-0.2,0.3-0.5,0.5-0.6,0.9c-0.2,0.4-0.3,0.7-0.4,1.1c-0.1,0.4-0.1,0.8-0.1,1.2c0,0.4,0.1,0.8,0.1,1.2
			c0.1,0.4,0.2,0.7,0.4,1.1c0.2,0.3,0.4,0.6,0.6,0.8c0.2,0.2,0.6,0.4,0.9,0.6C70.3,61.4,70.8,61.5,71.2,61.5L71.2,61.5z M79,58.2
			v3.1h4.9v0.2c0,0.2,0,0.3,0,0.4s-0.1,0.3-0.1,0.4c-0.1,0.2-0.2,0.3-0.4,0.4s-0.4,0.1-0.6,0.2c-0.3,0.1-0.6,0.1-0.9,0.1h-4.9V52.1
			h6.9v0.2c0,0.1,0,0.2,0,0.2l0,0c0,0.1-0.1,0.2-0.1,0.4c-0.1,0.2-0.2,0.3-0.3,0.4c-0.2,0.1-0.4,0.2-0.6,0.3
			c-0.3,0.1-0.6,0.1-0.9,0.1h-2.9v3h4.3l0.1,0.1c0.1,0.2,0.1,0.4,0.1,0.6c0,0.3-0.1,0.5-0.4,0.7c-0.3,0.2-0.8,0.2-1.1,0.2L79,58.2
			L79,58.2z M107.4,61v-3.9h0.2c0.1,0,0.2,0,0.3,0s0.2,0,0.3,0.1c0.1,0,0.2,0.1,0.4,0.1c0.1,0.1,0.2,0.1,0.3,0.2
			c0.1,0.1,0.2,0.2,0.2,0.4c0.1,0.2,0.1,0.3,0.1,0.5c0.1,0.2,0.1,0.4,0.1,0.6v2.9l-0.1,0.1c-1.1,0.9-2.4,1.2-3.8,1.2
			c-0.5,0-1-0.1-1.5-0.2c-0.4-0.1-0.8-0.2-1.2-0.4c-0.4-0.2-0.6-0.4-0.9-0.6s-0.5-0.5-0.7-0.7c-0.2-0.2-0.4-0.5-0.5-0.8
			c-0.1-0.3-0.2-0.5-0.3-0.8c-0.1-0.2-0.1-0.5-0.2-0.8c-0.1-0.2-0.1-0.5-0.1-0.6s0-0.4,0-0.5c0-0.5,0.1-1.1,0.2-1.6s0.3-1.1,0.6-1.5
			c0.3-0.5,0.6-0.9,1-1.2c0.5-0.4,0.9-0.6,1.5-0.8c0.6-0.2,1.4-0.3,2-0.3c0.7,0,1.4,0.1,2,0.3c0.6,0.2,1.1,0.5,1.5,0.9
			c0.4,0.4,0.6,0.9,0.6,1.5v0.3l-0.3-0.2c-0.1-0.1-0.1-0.1-0.2-0.1l0,0c-0.2-0.1-0.4-0.2-0.5-0.3c-0.3-0.1-0.6-0.3-0.9-0.4
			c-0.4-0.1-0.7-0.2-1.1-0.3c-0.4-0.1-0.9-0.1-1.3-0.1c-0.4,0-0.9,0.1-1.3,0.2c-0.4,0.1-0.6,0.3-0.9,0.6c-0.2,0.3-0.4,0.5-0.6,0.9
			c-0.2,0.4-0.3,0.7-0.4,1.1c-0.1,0.4-0.1,0.8-0.1,1.2c0,0.2,0,0.4,0.1,0.5c0,0.2,0.1,0.5,0.1,0.6c0.1,0.2,0.2,0.5,0.2,0.8
			c0.1,0.2,0.3,0.5,0.4,0.7c0.2,0.2,0.4,0.5,0.6,0.6c0.3,0.2,0.6,0.4,0.9,0.4c0.4,0.1,0.8,0.2,1.2,0.2
			C106.2,61.6,106.9,61.4,107.4,61L107.4,61z M113.9,58.2v3.1h4.9v0.2c0,0.2,0,0.3,0,0.4s-0.1,0.3-0.1,0.4c-0.1,0.2-0.2,0.3-0.4,0.4
			c-0.2,0.1-0.4,0.1-0.6,0.2c-0.3,0.1-0.6,0.1-0.9,0.1h-4.9V52.1h6.9v0.2c0,0.1,0,0.2,0,0.2l0,0c0,0.1-0.1,0.2-0.1,0.4
			c-0.1,0.2-0.2,0.3-0.3,0.4c-0.2,0.1-0.4,0.2-0.6,0.3c-0.3,0.1-0.6,0.1-0.9,0.1h-2.9v3h4.3l0.1,0.1c0.1,0.2,0.1,0.4,0.1,0.6
			c0,0.3-0.1,0.5-0.4,0.7c-0.3,0.2-0.8,0.2-1.1,0.2L113.9,58.2L113.9,58.2z M126.9,59.6v-7.5L127,52c0.1,0,0.1,0,0.2,0
			c0.8,0,1.6,0.2,1.6,1.2v9.6h-0.2c-0.2,0-0.3,0-0.5,0c-0.2,0-0.3,0-0.5-0.1c-0.2,0-0.4-0.1-0.5-0.1c-0.2-0.1-0.3-0.1-0.4-0.2
			c-0.2-0.1-0.3-0.2-0.4-0.4c-1.4-2.1-2.8-4.3-4.3-6.4c-0.1-0.1-0.1-0.2-0.2-0.3v7.6h-0.2c-0.1,0-0.2,0-0.4,0c-0.1,0-0.2,0-0.3,0
			c-0.1,0-0.2,0-0.4-0.1c-0.1-0.1-0.2-0.1-0.2-0.1c-0.1-0.1-0.2-0.1-0.2-0.2c-0.1-0.1-0.1-0.2-0.1-0.3c-0.1-0.1-0.1-0.3-0.1-0.4
			c0-0.2,0-0.3,0-0.5v-9.2h0.2c0.2,0,0.3,0,0.5,0c0.2,0,0.3,0,0.5,0.1c0.2,0,0.4,0.1,0.5,0.1s0.3,0.1,0.4,0.2
			c0.2,0.1,0.3,0.2,0.4,0.4c1.2,1.8,2.4,3.6,3.5,5.4C126.3,58.7,126.6,59.1,126.9,59.6L126.9,59.6z M136.7,61.5
			c0.4,0,0.9-0.1,1.3-0.1c0.4-0.1,0.8-0.2,1.1-0.3c0.3-0.1,0.6-0.2,0.8-0.4c0.2-0.1,0.4-0.2,0.5-0.3l0.5-0.3v0.4
			c0,0.9-0.5,1.5-1.2,2c-0.9,0.5-1.9,0.7-2.9,0.7c-0.7,0-1.4-0.1-2-0.3c-0.5-0.2-1.1-0.5-1.5-0.8c-0.4-0.4-0.8-0.8-1-1.2
			c-0.3-0.5-0.5-1-0.6-1.5c-0.1-0.5-0.2-1.1-0.2-1.6c0-0.5,0.1-1.1,0.2-1.6c0.1-0.5,0.4-1.1,0.6-1.5c0.3-0.5,0.6-0.9,1-1.2
			c0.5-0.4,0.9-0.6,1.5-0.8c0.6-0.2,1.4-0.3,2-0.3c0.6,0,1.4,0.1,2,0.3c0.6,0.2,1.1,0.5,1.5,0.9c0.4,0.4,0.6,0.9,0.6,1.5v0.3
			l-0.3-0.2c-0.1-0.1-0.1-0.1-0.2-0.1c-0.2-0.1-0.4-0.2-0.5-0.3c-0.3-0.1-0.6-0.3-0.9-0.4c-0.4-0.1-0.7-0.2-1.1-0.3
			c-0.4-0.1-0.9-0.1-1.3-0.1c-0.4,0-0.9,0.1-1.3,0.2c-0.4,0.1-0.6,0.3-0.9,0.6c-0.2,0.2-0.5,0.5-0.6,0.9c-0.2,0.4-0.3,0.7-0.4,1.1
			c-0.1,0.4-0.1,0.8-0.1,1.2c0,0.4,0.1,0.8,0.1,1.2c0.1,0.4,0.2,0.7,0.4,1.1c0.2,0.3,0.4,0.6,0.6,0.8c0.2,0.2,0.6,0.4,0.9,0.6
			C135.8,61.4,136.3,61.5,136.7,61.5L136.7,61.5z M145.2,58.7l-3.8-6.4l0.2-0.1c0.2-0.1,0.5-0.1,0.8-0.1c0.3,0,0.6,0.1,0.9,0.2
			c0.3,0.2,0.6,0.4,0.8,0.7c0.3,0.5,0.6,1,0.8,1.5c0.3,0.6,0.6,1.2,0.9,1.8l0.2,0.5l1.2-2.1c0.2-0.4,0.4-0.7,0.6-1.1
			c0.2-0.5,0.5-0.9,0.7-1.4l0.1-0.1h0.1c0.1,0,0.2,0,0.4,0c0.2,0,0.3,0.1,0.5,0.1c0.2,0.1,0.4,0.1,0.5,0.2c0.2,0.1,0.2,0.3,0.2,0.5
			s-0.1,0.3-0.1,0.5c-0.3,0.6-0.6,1.2-1,1.8c-0.5,0.8-0.9,1.6-1.4,2.4l-0.6,1.1v4.2l-0.1,0.1c-0.1,0-0.2,0-0.4,0
			c-0.2,0-0.3,0-0.4-0.1c-0.2-0.1-0.3-0.1-0.4-0.2c-0.2-0.1-0.4-0.3-0.4-0.5c-0.1-0.2-0.1-0.5-0.1-0.8v-2.7H145.2z M17.9,58.7h3.2
			c-0.3-0.8-0.6-1.7-0.9-2.6c-0.2-0.6-0.5-1.2-0.6-1.8v0.1c-0.2,0.5-0.4,1-0.5,1.5C18.6,56.8,18.3,57.7,17.9,58.7L17.9,58.7z
			 M21.6,60.1h-4.2c-0.1,0.3-0.2,0.5-0.3,0.8c-0.1,0.2-0.2,0.4-0.2,0.6c-0.1,0.2-0.2,0.5-0.4,0.7c-0.2,0.2-0.4,0.3-0.5,0.4
			c-0.2,0.1-0.3,0.1-0.5,0.2c-0.1-0.1-0.3,0-0.4,0l0,0l-0.5-0.1l3.9-10.8h1.2c0.1,0,0.1,0,0.2,0s0.2,0.1,0.3,0.1
			c0.1,0.1,0.2,0.1,0.4,0.2c0.1,0.1,0.2,0.2,0.4,0.4c0.1,0.2,0.2,0.4,0.3,0.6l3.7,9.4l-0.2,0.1c-0.2,0.1-0.4,0.1-0.5,0.1
			c-0.4,0-0.7-0.1-1-0.3c-0.4-0.2-0.6-0.6-0.8-1.1l0,0c-0.1-0.2-0.2-0.4-0.2-0.6C21.9,60.7,21.8,60.4,21.6,60.1L21.6,60.1z
			 M58.2,58.7h3.2c-0.3-0.8-0.6-1.7-0.9-2.6c-0.2-0.6-0.5-1.2-0.6-1.8v0.1c-0.2,0.5-0.4,1-0.5,1.5C58.9,56.8,58.6,57.7,58.2,58.7
			L58.2,58.7z M62,60.1h-4.2c-0.1,0.3-0.2,0.5-0.3,0.8c-0.1,0.2-0.2,0.4-0.2,0.6c-0.1,0.2-0.2,0.5-0.4,0.7c-0.2,0.2-0.4,0.3-0.5,0.4
			c-0.2,0.1-0.3,0.1-0.5,0.2C55.6,63,55.5,63,55.3,63l0,0l-0.5-0.1l3.9-10.8h1.2c0.1,0,0.1,0,0.2,0c0.1,0,0.2,0.1,0.3,0.1
			c0.1,0.1,0.2,0.1,0.4,0.2c0.1,0.1,0.2,0.2,0.4,0.4c0.1,0.2,0.2,0.4,0.3,0.6l3.7,9.4l-0.2,0.1c-0.2,0.1-0.4,0.1-0.5,0.1
			c-0.4,0-0.7-0.1-1-0.3c-0.4-0.2-0.6-0.6-0.8-1.1l0,0c-0.1-0.2-0.2-0.4-0.2-0.6C62.2,60.7,62.1,60.4,62,60.1L62,60.1z M95.7,60.1
			h-4.2c-0.1,0.3-0.2,0.5-0.3,0.8c-0.1,0.2-0.2,0.4-0.2,0.6c-0.1,0.2-0.2,0.5-0.4,0.7c-0.2,0.2-0.4,0.3-0.5,0.4
			c-0.2,0.1-0.3,0.1-0.5,0.2C89.4,63,89.2,63,89.1,63l0,0l-0.5-0.1l3.9-10.8h1.2c0.1,0,0.1,0,0.2,0s0.2,0.1,0.3,0.1
			c0.1,0.1,0.2,0.1,0.4,0.2c0.1,0.1,0.2,0.2,0.4,0.4c0.1,0.2,0.2,0.4,0.3,0.6l3.7,9.4l-0.2,0.1c-0.2,0.1-0.4,0.1-0.5,0.1
			c-0.4,0-0.7-0.1-1-0.3c-0.4-0.2-0.6-0.6-0.8-1.1l0,0C96.1,61.4,96,61.2,96,61C96,60.7,95.9,60.4,95.7,60.1L95.7,60.1z"/>
		<g>
			<path class="st1" d="M175.2,66.8c-0.1,0-0.2-0.1-0.2-0.1c-0.4,0-0.7,0.2-0.8,0.5c-0.2,0.5,0.1,1.1,0.6,1.1c0.2,0,0.4-0.1,0.5-0.2
				c0.2,0.4,0.4,0.1,0.4,0.1c0-0.1-0.1-0.1-0.1-0.3v-1.8c0-0.1,0-0.2-0.1-0.2c0,0-0.2,0-0.2,0.1c-0.1,0.1-0.1,0.2-0.1,0.4
				C175.2,66.5,175.2,66.6,175.2,66.8z M179.9,67.5c0,0.2,0,0.4,0.2,0.6c0.1,0.1,0.3,0.2,0.5,0.2s0.4-0.1,0.5-0.2
				c0.1,0.3,0.4,0.2,0.4,0.1c0-0.1-0.1,0.1-0.1-0.4c0-0.2,0-0.4,0-0.5c0-0.2-0.1-0.4-0.3-0.5C180.5,66.6,179.9,67,179.9,67.5
				L179.9,67.5z M180.3,67.9c0.2,0.2,0.4,0.2,0.7,0.1c0-0.4,0-0.6,0-1c-0.3-0.1-0.6-0.1-0.7,0.2C180.1,67.5,180.2,67.7,180.3,67.9
				L180.3,67.9z M173.4,68.3c0.2,0,0.5-0.1,0.5-0.3c-0.2,0.1-0.1,0.1-0.4,0.1s-0.5-0.2-0.5-0.5h0.9c0-0.4,0-0.8-0.5-0.8
				C172.4,66.8,172.3,68.4,173.4,68.3L173.4,68.3z M173.3,67c-0.2,0-0.4,0.2-0.4,0.4c0.2,0,0.4,0,0.6,0c0.1,0,0.1-0.1,0.1-0.1
				C173.6,67.2,173.5,67,173.3,67z M188.3,66.4c0,0.3,0.3,0.2,0.3,0.1C188.6,66.2,188.3,66.2,188.3,66.4z M170.9,66.4
				c0,0.2,0.3,0.2,0.4,0c0-0.1,0-0.1-0.1-0.1C171,66.2,170.9,66.3,170.9,66.4z M188.3,66.9v1.4h0.3v-1.6c-0.1,0-0.1,0-0.2,0.1
				C188.3,66.8,188.3,66.9,188.3,66.9z M170.9,66.9v1.4h0.3c0.1,0,0.1,0,0.1-0.1v-1.5C171,66.8,170.9,66.8,170.9,66.9L170.9,66.9z
				 M178.9,66.9v1.5h0.3v-0.9c0-0.2,0.1-0.4,0.2-0.4c0.1,0,0.3,0.1,0.4-0.3c-0.3-0.1-0.4,0.1-0.5,0.2v-0.3
				C179.1,66.7,178.9,66.7,178.9,66.9L178.9,66.9z M189.3,67v-0.2c-0.1,0-0.3,0-0.3,0.2v1.4h0.3v-0.9c0-0.2,0.1-0.4,0.2-0.4
				c0,0,0.3,0,0.4-0.3c-0.1-0.1-0.2-0.1-0.4,0c-0.1,0.1-0.1,0.1-0.1,0.1C189.4,66.9,189.3,67,189.3,67L189.3,67z M171.6,66.7v1.2
				c0,0.5,0.7,0.5,0.8,0.2c0.1-0.1,0-0.1,0-0.1c-0.3,0.2-0.5,0.1-0.5-0.2V67c0.2,0,0.5,0,0.5-0.2H172v-0.2
				C171.9,66.6,171.6,66.6,171.6,66.7L171.6,66.7z M191.7,66.7v1.1c0,0.5,0.4,0.6,0.7,0.4c0.1-0.1,0.1-0.1,0.1-0.2
				c-0.1,0-0.5,0.4-0.5-0.4V67c0-0.1,0-0.1,0-0.1c0.2,0,0.5,0,0.5-0.2H192c0-0.2,0.1-0.2-0.2-0.2C191.8,66.6,191.7,66.7,191.7,66.7
				L191.7,66.7z M194.2,67.2c0,0.5,0.6,0.5,0.6,0.8c0,0.2-0.2,0.2-0.3,0.2c-0.2,0-0.2-0.1-0.4-0.2c0,0.6,0.9,0.5,0.9-0.1
				c0-0.4-0.6-0.5-0.6-0.7c0-0.1,0.1-0.2,0.2-0.2c0.2,0,0.2,0.1,0.3,0.1C195.2,66.6,194.2,66.7,194.2,67.2L194.2,67.2z M169.4,67
				v-0.2c-0.1,0-0.3,0-0.3,0.1v1.5h0.3v-1.1c0-0.1,0.1-0.1,0.1-0.1c0.3-0.2,0.6-0.1,0.6,0.1v1.1c0.2,0,0.3,0.1,0.3-0.1v-1.1
				c0-0.3-0.2-0.5-0.5-0.5C169.7,66.7,169.5,66.9,169.4,67L169.4,67z M193.4,68.3c0.2,0,0.5-0.1,0.5-0.3c-0.2,0.1-0.1,0.1-0.4,0.1
				s-0.5-0.2-0.5-0.5h0.9c0-0.4,0-0.8-0.5-0.8C192.5,66.8,192.3,68.4,193.4,68.3L193.4,68.3z M193.4,67c-0.2,0-0.4,0.2-0.4,0.4
				c0.2,0,0.4,0,0.6,0c0.1,0,0.1-0.1,0.1-0.1C193.6,67.2,193.6,67,193.4,67z M184.1,68.3h1.1c0.1,0,0.1-0.2,0.1-0.3h-0.9v-0.8
				c0.6,0,0.8,0.1,0.8-0.2h-0.8v-0.8h0.6c0.2,0,0.2-0.1,0.2-0.2h-1.1V68.3L184.1,68.3z M176.6,68.3c0.4,0.1,0.3,0.1,0.5-0.3l0.1-0.3
				c0-0.1,0-0.1,0.1-0.1h0.6c0-0.1-0.1-0.1-0.1-0.2h-0.5c0-0.1,0.1-0.4,0.2-0.4l0.2-0.4l0,0l0.6,1.6c0.1,0.2,0.1,0.2,0.4,0.2
				c0.1,0,0.1-0.1-0.1-0.2c-0.1-0.2-0.9-2.1-0.9-2.1c-0.1,0-0.1,0-0.2,0.2L176.6,68.3L176.6,68.3z M167,66v1.4
				c0,0.5,0.3,0.9,0.7,0.9c0.4,0,0.6,0,0.8-0.4c0.1-0.2,0.2-0.5,0.2-0.7V66c-0.1,0-0.2,0-0.3,0.1c-0.1,0.5,0.1,1.5-0.1,1.9
				c-0.2,0.3-0.8,0.4-0.9-0.1c-0.2-0.4-0.1-1.4-0.1-1.8C167.2,66,167,66,167,66L167,66z M185.9,67v-0.2c-0.1,0-0.3,0-0.3,0.1v1.5
				h0.3v-1.1c0-0.1,0.2-0.2,0.3-0.2c0.1,0,0.4-0.1,0.4,0.2v1.1h0.3v-1.1c0-0.1,0.1-0.1,0.2-0.2c0.2-0.2,0.5-0.1,0.5,0.4v0.9h0.3
				c0-0.4,0.1-1.1-0.1-1.4c-0.1-0.2-0.4-0.3-0.6-0.2c-0.1,0.1-0.2,0.1-0.3,0.2c0-0.1-0.1-0.1-0.1-0.2
				C186.3,66.7,186.1,66.9,185.9,67L185.9,67z M189.9,67.5c0,0.2,0,0.4,0.2,0.6c0.1,0.1,0.3,0.2,0.5,0.2s0.4-0.1,0.5-0.2
				c0.1,0.3,0.4,0.2,0.4,0.1c0-0.1-0.1,0.1-0.1-0.4c0-0.2,0-0.4,0-0.5c0-0.2-0.1-0.4-0.3-0.5C190.5,66.6,189.9,67,189.9,67.5
				L189.9,67.5z M190.3,68c0.2,0.2,0.4,0.2,0.7,0.1c0-0.4,0-0.6,0-1c-0.3-0.1-0.6-0.1-0.7,0.2C190.2,67.5,190.2,67.8,190.3,68
				L190.3,68z M181.6,66.1v2.1c0,0.2,0.7,0.3,1.1-0.1c0.3-0.3,0.4-0.8,0.2-1.1c-0.1-0.1-0.2-0.2-0.2-0.2c-0.3-0.1-0.5-0.1-0.7,0.1
				V66C181.8,66,181.6,66,181.6,66.1L181.6,66.1z M182.5,67.2c-0.2-0.2-0.4-0.1-0.6-0.1c0,0.4,0,0.7,0,1c0.2,0.1,0.5,0,0.6-0.2
				C182.7,67.6,182.7,67.3,182.5,67.2L182.5,67.2z M174.6,68c0.2,0.2,0.4,0.1,0.6,0.1c0-0.4,0-0.7,0-1c-0.2-0.1-0.5,0-0.6,0.2
				C174.3,67.5,174.4,67.8,174.6,68L174.6,68z"/>
			<g>
				<path class="st1" d="M176.3,30.1c0,0.4,0.1,0.8,0.4,1.1c-0.1-0.2-0.1-0.2,0-0.5c0.5,0.1,0.7,0.1,1.1,0c0.3,0.3,0.9,0.8,0.9,1.4
					c0,1.5-1.5,2.1-2.8,2.1c-1.1,0-2.2-0.3-3.1-0.8c-1.1-0.6-1.8-1.2-3.2-0.2c-1.2,0.9-2.6,2.9-2.5,4.4c0,1.2,0.1,5.1-0.1,5.9
					c-0.1,0.4-0.1,0.5-0.3,0.7c0.2,0,0.3-0.1,0.4-0.2c0,0.7,0,1.5,0,2.2c0,0.8-0.1,1.2-0.4,1.8c0.2,0,0.2-0.1,0.4-0.1
					c0,0.9,0.1,2.7-0.1,3.6c0,0.2-0.2,0.9-0.3,0.9c0.2-0.1,0.3-0.1,0.3-0.2c0,0.9,0.1,5.4,0,6.3c0,0.2-0.1,0.2-0.1,0.4
					c-0.1,0.1-0.1,0.2-0.1,0.4c0,0.1,0.1,0.2,0.2,0.2c0.3,0,0.7-0.3,0.9-0.4c1.1-0.7,1-1.8,1-2.9c0.6-0.4,1.2-0.6,1.4-1.6
					c0.4-0.2,1.2-0.6,1.4-1.8c0.7-0.5,1.2-1.1,1.2-2.2c0,0,0.7-0.5,0.9-1.1c0.1-0.5,0.1-1.1,0.1-1.6c0.4-0.2,0.6-0.6,0.8-0.8
					c0,1.9-1.1,5.9-1.1,6.2l0.5-0.1c-0.1,0.4-0.6,2.1-0.9,2.5c-0.2-0.1-0.3,0.1-0.4,0.2c-0.2-0.2-0.2-0.4-0.5-0.4
					c-0.5,0-0.5,0.3-0.5,0.4l-2.6,1.6V61c3.4,1.9,7.1,3.2,11.4,3.4c0.1,0.1,0.4,0.4,0.5,0.4l0.5-0.4c3.7-0.1,7.5-1.1,11.4-3.3v-3.7
					l-2.6-1.6c-0.2-0.2,0-0.4-0.5-0.5c-0.4,0-0.5,0.3-0.6,0.5c-0.1-0.2-0.2-0.3-0.4-0.2c-0.2-0.1-0.9-2.2-0.9-2.5l0.5,0.1
					c-0.6-2.2-0.9-4.2-1-6.1c0.3,0.3,0.4,0.5,0.8,0.8c-0.2,2.2,0.8,2.6,1,2.8c0,1,0.4,1.7,1.2,2.2c0.1,0.7,0.5,1.4,1.4,1.8
					c0.2,0.8,0.6,1.3,1.4,1.6c0,1.3,0,2.2,1,2.9c0.1,0.1,0.9,0.6,1.1,0.4c0.1-0.1,0-0.1-0.1-0.4c-0.1-0.5-0.1-1-0.1-1.5v-5.3
					c0.1,0.1,0.2,0.1,0.4,0.1c-0.5-1-0.4-3.3-0.4-4.5c0.1,0.1,0.2,0.1,0.4,0.1c-0.4-0.5-0.4-1.2-0.4-1.7c0-0.7,0-1.5,0-2.2
					c0.1,0.1,0.2,0.1,0.4,0.2c-0.3-0.5-0.4-0.8-0.4-1.6c0-1.3,0.1-4.9-0.1-5.9c-0.4-1.4-2.2-4.2-3.9-4.2c-0.4,0-0.8,0.2-1.1,0.3
					c-1.2,0.6-2.9,1.7-4.2,0.6c-0.5-0.4-0.9-1.5-1.2-2.1c-0.7-1.4-1.4-3-2.9-3.7c-1.2-0.6-2.9-0.3-4,0.5c-0.3,0.2-0.5,0.6-0.7,0.9
					c-0.1,0.1-0.2,0.1-0.2,0.2C176.6,29.5,176.3,29.8,176.3,30.1L176.3,30.1z M175,56.5c0.2,0.3,0.4,0.6,0.5,0.8
					c1.4,0.6,2.8,1.1,5.2,1.1c0.2,0.1,0.3,0.2,0.5,0.4c0.2-0.1,0.3-0.3,0.5-0.4c1.7-0.1,3.5-0.4,5.2-1c0.6-0.7,0.8-1.4,0.5-2.1
					c-0.2-0.5-0.5-0.9-0.7-1.4c0,0.2-0.1,0.4-0.2,0.5c-0.3-1.4-1-2.5-2-3.7c0.6,1.8,0.9,3.5,1.4,4.7c0.2,0.4,0.4,0.8,0.5,1
					c-0.5,0.2-0.9,0.2-1.4,0.1c0.2,0.9-0.9,1.2-1.4,0.5c-0.2,0.9-1.2,0.9-1.7,0.2c-0.1,0.3-0.4,0.6-0.7,0.8
					c-0.4-0.2-0.6-0.5-0.7-0.8c-0.6,0.7-1.4,0.6-1.7-0.2c-0.4,0.6-1.6,0.4-1.4-0.5c-0.5,0.1-0.9,0.1-1.4-0.1
					c0.4-0.5,0.6-1.1,0.8-1.9c0.4-1.2,0.7-2.5,1.1-3.8c-1.1,1.3-1.7,2.5-2,3.7c-0.1-0.2-0.1-0.4-0.1-0.5c-0.2,0.5-0.5,0.9-0.8,1.5
					C174.8,55.8,174.8,56.1,175,56.5L175,56.5z"/>
				
					<linearGradient id="SVGID_1_" gradientUnits="userSpaceOnUse" x1="13838.7676" y1="7408.7021" x2="14640.585" y2="7408.7021" gradientTransform="matrix(2.834571e-02 0 0 2.834571e-02 -222.5088 -149.8552)">
					<stop  offset="0" style="stop-color:#E31E24"/>
					<stop  offset="0.502" style="stop-color:#D85469"/>
					<stop  offset="1" style="stop-color:#C8102E"/>
				</linearGradient>
				<path class="st2" d="M172,56.4c-0.1-0.1-0.1-0.1-0.1-0.2c-0.7,0.5-1.4,0.9-2.1,1.5c0,1,0,2,0,3c3.2,1.7,6.6,3,11,3.1
					c0.1,0.1,0.3,0.2,0.4,0.4c0.1-0.1,0.3-0.2,0.4-0.4c3.7-0.1,7.3-0.9,11-3.1c0-1,0-2,0-2.9c-0.7-0.5-1.4-0.9-2.1-1.4
					c-0.1,0.1-0.1,0.1-0.2,0.2c0.2,0.4,0.3,0.7,0.1,0.9c-0.2,0.3-0.5,0.5-0.7,0.6c-0.1-0.1-0.1-0.2-0.1-0.4
					c-0.2,0.3-0.4,0.5-0.6,0.6c0-0.1,0.1-0.2,0.1-0.4c-0.1,0-0.1-0.1-0.2-0.1c-0.2,0.2-0.4,0.5-0.5,0.6c-0.1-0.1-0.1-0.2,0-0.3
					c-0.4-0.1-0.4-0.4-0.4-0.6c-1.9,0.9-4,1.4-6.2,1.5c-0.2,0.2-0.4,0.3-0.6,0.5c-0.2-0.2-0.4-0.3-0.6-0.5c-2.1,0-4.1-0.5-6.2-1.5
					c0,0.4-0.1,0.6-0.4,0.6c0,0.1,0,0.1,0.1,0.2c-0.2,0-0.4-0.2-0.6-0.5c-0.1,0.1-0.1,0.1-0.2,0.1c0.1,0.1,0.1,0.2,0.1,0.3
					c-0.2-0.1-0.5-0.3-0.6-0.6l-0.1,0.1c0,0.1,0,0.2,0,0.2c-0.2,0-0.3-0.2-0.4-0.3C171.7,57.3,171.7,56.9,172,56.4L172,56.4z"/>
				<path class="st3" d="M171.3,57.4c0.1,0,0.1,0.1,0.1,0.1c0,0.1-0.1,0.1-0.1,0.1s-0.1-0.1-0.1-0.1
					C171.1,57.5,171.2,57.4,171.3,57.4z M191,60l0.3-0.2l-0.1-0.1l-0.2-0.1l-0.1,0.2L191,60L191,60z M182.3,61.8
					c-0.1-0.1-0.2-0.2-0.2-0.4c0.1,0,0.1,0,0.1,0c0-0.1,0.1-0.1,0.1-0.2c0.1,0.1,0.1,0.1,0.1,0.2c0.1,0,0.1,0,0.1,0
					C182.5,61.6,182.5,61.7,182.3,61.8z M170.4,59.4c0.1-0.2,0.2-0.2,0.5-0.2l-0.2,0.3L170.4,59.4z M176.2,61.4v0.1l-0.3-0.1v-0.1
					l0.2-0.1L176.2,61.4L176.2,61.4z M178.6,61.9c0.1,0,0.2,0,0.4,0c0-0.1,0-0.2,0-0.4C178.7,61.6,178.6,61.7,178.6,61.9z M190,60.2
					l0.1,0.1l-0.3,0.2l-0.1-0.1l0.1-0.2L190,60.2L190,60.2z M191.3,60.7c-0.1-0.1-0.2,0.1-0.2,0.2c0.2-0.1,0.4-0.2,0.6-0.3
					c-0.1,0-0.2-0.1-0.2-0.1c0,0.1-0.1,0.1-0.1,0.1c0-0.1-0.1-0.1,0.1-0.1C191.3,60.3,191.2,60.6,191.3,60.7z M192,59.8l0.3-0.2
					l-0.9-1.7c-0.1-0.1-0.1-0.2,0.1-0.2l-0.6-0.2L192,59.8L192,59.8z M185.4,60.7c-0.1,0.5-0.4,0.7-0.8,0.9l0.8,0.5
					c0.7-0.1,1.4-0.3,2.1-0.5l-0.4-1.4l-0.4,0.5c0.2,0,0.2,0.4,0.4,0.6l-1.6,0.4c-0.1-0.1-0.2-0.1-0.3-0.2
					C185.4,61.3,185.5,61,185.4,60.7L185.4,60.7z M184,62.2l0.4-0.1l-0.2-1.8c0-0.2,0-0.3,0.1-0.3l-0.5-0.4L184,62.2L184,62.2z
					 M182.6,61.1c-0.1-0.2-0.2-0.2-0.3-0.2s-0.2,0.1-0.3,0.2h-0.4l0.5,0.9h-0.8v-0.8l-0.5,0.4c0.2,0,0.2,0.2,0.2,0.5
					c0,0.1,0,0.3,0,0.4c-0.1,0.3-0.4,0.3-0.6,0.2c0.2,0.4,1,0.4,0.9-0.3c0.8,0,1.6-0.1,2.4-0.2l-0.2-2.5l-0.4,0.5
					c0.2,0,0.2,0.1,0.2,0.3l0.1,1.5l-0.8,0.1l0.4-0.9L182.6,61.1L182.6,61.1z M177.6,59.5l-0.5,0.3c0.2,0.1,0.1,0.3,0.1,0.5
					l-0.2,1.3l-0.3-0.1c0-0.1,0-0.2,0-0.2c-0.1-0.2-0.2-0.3-0.4-0.5c-0.2,0.1-0.4,0.2-0.5,0.3c-0.1,0.1-0.1,0.1-0.1,0.2l-0.4-0.1
					l0.2-0.9l-0.5,0.3c0.2,0.2,0.1,0.2,0,0.6l-0.4-0.1c0-0.7,0.3-0.9-0.2-1.5c-0.2,0.1-0.2,0.1-0.4,0.2c0.3,0.2,0.4,0.3,0.4,0.5
					c0.1,0.2-0.1,0.5,0,0.8l-0.4-0.1c0.1-0.4,0-0.6-0.3-0.7l-1.8-0.7c0.1-0.2,0.2-0.4,0.3-0.4l-0.2-0.6l-0.5,1.1l2.1,0.8
					c0.2,0.1,0.3,0.2,0.1,0.5c-0.1,0.2-0.1,0.2-0.2,0.2c-0.1-0.1-0.1-0.2-0.1-0.2s0.1-0.1,0.1-0.2l-2.1-0.8l-0.1,0.3l1.8,0.7
					c0,0.1,0,0.1,0,0.2c0,0.2,0.2,0.2,0.3,0.5c0.4-0.2,0.6-0.1,0.6-0.4l0.6,0.2c0.1,0.1,0.1,0.1,0.2,0.2c-0.1-0.1-0.1-0.1-0.1-0.2
					c0.8,0.2,1.6,0.4,2.5,0.6L177.6,59.5L177.6,59.5z M177.4,62l0.4,0.1l0.2-1.5c0.1-0.4,0.1-0.5,0.2-0.6l-0.4-0.5L177.4,62
					L177.4,62z M180.7,62.3l0.1-1.2l-0.5,0.4c0.2,0.1,0.2,0.2,0.2,0.6h-0.3l0.1-0.9l-0.5,0.4c0.2,0.1,0.2,0.1,0.1,0.5l-0.5-0.1
					l0.2-2.2l-0.5,0.4c0.2,0.1,0.1,0.3,0.1,0.5c0,0.2,0,0.5-0.1,0.6c-0.2,0.2-0.6-0.1-0.7,0.9C179,62.3,179.8,62.3,180.7,62.3
					L180.7,62.3z M171.4,57.9c0.1,0.1,0.1,0.1,0.1,0.2c-0.1,0.2-0.4,0.8-0.5,0.9c-0.2,0.1-0.5-0.1-0.7,0.1c-0.1,0.1-0.2,0.4-0.3,0.5
					l0.9,0.5l1.1-2.3L171.4,57.9z M187.7,61.4l0.4-0.1l-0.5-1.8c-0.1-0.1,0-0.2,0.1-0.3L187,59L187.7,61.4z M188,60.6
					c0.1,0,0.2,0,0.2,0.1l0.2,0.6c0.1,0.4-0.2,0.6-0.5,0.4c0.2,0.4,1.1,0.1,0.9-0.4l-0.4-1.2L188,60.6L188,60.6z M188.9,61.1
					c0.5-0.2,1.1-0.4,1.5-0.6l-0.2-0.4c-0.1-0.1-0.1-0.1-0.1-0.1l-0.5-0.2l-0.2,0.5c-0.1,0.1,0,0.2,0.1,0.3l-0.3,0.1l-0.5-1.5
					c-0.1-0.1-0.1-0.2,0.1-0.3l-0.6-0.2L188.9,61.1L188.9,61.1z M190.9,59.3l-0.2-0.1l-0.6-1.4l-0.2,0.6c0.1,0,0.2,0.1,0.2,0.2
					l0.4,0.8l0.3,0.1l-0.1,0.4l0.2,0.5l0.9-0.4l-0.2-0.5l-0.4-0.1l0.1-0.3l-0.4-0.8c-0.1-0.1-0.1-0.2,0.1-0.3l-0.6-0.2L190.9,59.3
					L190.9,59.3L190.9,59.3z M186.3,60.3c0.1,0,0.1,0.1,0.1,0.1s-0.1,0.1-0.1,0.1s-0.1-0.1-0.1-0.1
					C186.2,60.3,186.2,60.3,186.3,60.3z M185.9,60.3c0.1,0,0.1,0.1,0.1,0.1s-0.1,0.1-0.1,0.1s-0.1-0.1-0.1-0.1
					C185.8,60.4,185.9,60.3,185.9,60.3z M180.2,62.6c0.1,0,0.1,0.1,0.1,0.1s-0.1,0.2-0.1,0.2s-0.1-0.1-0.1-0.1
					C180,62.7,180.1,62.6,180.2,62.6z M179.5,62.6c0.1,0,0.1,0.1,0.1,0.1s-0.1,0.1-0.1,0.1s-0.1-0.1-0.1-0.1S179.5,62.6,179.5,62.6z
					 M179.2,62.6c0.1,0,0.1,0.1,0.1,0.1s-0.1,0.1-0.1,0.1s-0.1-0.1-0.1-0.1S179.1,62.6,179.2,62.6z M178.7,59.7
					c0.1,0,0.1,0.1,0.1,0.1s-0.1,0.1-0.1,0.1s-0.1-0.1-0.1-0.1S178.6,59.7,178.7,59.7z M178.6,60c0.1,0,0.1,0.1,0.1,0.1
					s-0.1,0.1-0.1,0.1s-0.1-0.1-0.1-0.1C178.5,60.1,178.6,60,178.6,60z M175.5,59.9c0.1,0,0.1,0.1,0.1,0.1s-0.1,0.1-0.1,0.1
					c-0.1,0-0.1-0.1-0.1-0.1C175.3,60,175.4,59.9,175.5,59.9z M175.2,59.8c0.1,0,0.1,0.1,0.1,0.1s-0.1,0.1-0.1,0.1S175,60,175,59.9
					C175,59.9,175.1,59.8,175.2,59.8z M171.1,57.7c0.1,0,0.1,0.1,0.1,0.1s-0.1,0.1-0.1,0.1s-0.1-0.1-0.1-0.1
					C171,57.8,171,57.7,171.1,57.7z"/>
				
					<linearGradient id="SVGID_00000107587691731060264290000008452599877931351171_" gradientUnits="userSpaceOnUse" x1="14688.1553" y1="6732.6196" x2="14535.0645" y2="6915.7393" gradientTransform="matrix(2.834571e-02 0 0 2.834571e-02 -222.5088 -149.8552)">
					<stop  offset="0" style="stop-color:#8F8F8F"/>
					<stop  offset="0.2118" style="stop-color:#C7C7C7"/>
					<stop  offset="0.349" style="stop-color:#A6A6A6"/>
					<stop  offset="0.6314" style="stop-color:#E1E1E1"/>
					<stop  offset="1" style="stop-color:#FFFFFF"/>
				</linearGradient>
				<path style="fill-rule:evenodd;clip-rule:evenodd;fill:url(#SVGID_00000107587691731060264290000008452599877931351171_);" d="
					M189.3,41.4c0-0.3,0-0.5,0-0.6c-0.3-0.2-0.5-0.5-0.7-0.8c0,0.8,0,1.7,0,2.6c0,0.6,0.4,0.9,0.8,1.3l-0.1-0.8L189.3,41.4
					L189.3,41.4z M193.7,45.4c0,0.8,0.5,1.5,1.1,1.7c-0.1-0.2-0.2-0.5-0.2-0.8v-2.4c-0.2-0.1-0.8-0.5-0.9-0.6
					C193.7,44,193.7,44.7,193.7,45.4L193.7,45.4z M193.3,46.2c-0.2-0.8-0.1-2.1-0.1-3.1c-0.2-0.1-0.8-0.5-0.9-0.6v1.4
					C192.3,44.8,192.3,45.8,193.3,46.2L193.3,46.2z M191.9,45.4c-0.1-0.2-0.1-0.5-0.1-0.6v-2.4l-0.9-0.5c0,0.6-0.1,1.5,0,2.2
					c0,0.1,0.1,0.2,0.1,0.4C191.2,44.8,191.5,45.2,191.9,45.4L191.9,45.4z M190.5,44.7l-0.1-0.8v-1.1v-1.2c-0.2-0.2-0.5-0.4-0.7-0.6
					c0,0.4,0,0.9,0,1.5c0,0.4,0,0.8,0.1,1.1C189.9,44.1,190.2,44.4,190.5,44.7L190.5,44.7z"/>
				
					<linearGradient id="SVGID_00000052090919521709733600000009047843852419866253_" gradientUnits="userSpaceOnUse" x1="14650.8633" y1="6923.5083" x2="14568.4297" y2="7348.6284" gradientTransform="matrix(2.834571e-02 0 0 2.834571e-02 -222.5088 -149.8552)">
					<stop  offset="0" style="stop-color:#8F8F8F"/>
					<stop  offset="0.1451" style="stop-color:#C7C7C7"/>
					<stop  offset="0.2902" style="stop-color:#8F8F8F"/>
					<stop  offset="0.7412" style="stop-color:#FFFFFF"/>
					<stop  offset="1" style="stop-color:#FFFFFF"/>
				</linearGradient>
				<path style="fill-rule:evenodd;clip-rule:evenodd;fill:url(#SVGID_00000052090919521709733600000009047843852419866253_);" d="
					M189.2,47c-0.3-0.1-0.5-0.4-0.7-0.7c0,0.9,0,1.7,0,2.6c0,0.4,0.4,0.8,0.7,1.1C189.2,48.9,189.3,47.8,189.2,47L189.2,47z
					 M193.7,56.4c0,0.5-0.1,0.9,0.2,1.4c0.2,0.3,0.5,0.6,0.8,0.8c-0.1-0.2-0.1-0.4-0.1-0.6l-0.1-6c-0.4-0.1-0.6-0.4-0.9-0.6
					C193.7,53.1,193.8,54.8,193.7,56.4L193.7,56.4z M193.2,55.1v-3.9c-0.4-0.1-0.6-0.4-0.9-0.7v1.2c0.1,0.9-0.3,3.2,1,3.6
					L193.2,55.1z M191.8,53.7v-3.8c-0.4-0.2-0.6-0.4-0.8-0.7c-0.1,0.3,0,1.9,0,2.4C190.9,52.7,190.9,53,191.8,53.7L191.8,53.7z
					 M190.5,50.3v-0.7v-0.9c-0.2-0.1-0.5-0.4-0.7-0.6c0,0.3,0,0.9,0,1.5c0,0.4-0.1,0.8,0.1,1.2c0.1,0.7,0.5,0.9,0.6,1.1V50.3
					L190.5,50.3z"/>
				
					<linearGradient id="SVGID_00000087395929290774983170000012903529852826551968_" gradientUnits="userSpaceOnUse" x1="14683.7559" y1="6860.5537" x2="14539.498" y2="7071.9365" gradientTransform="matrix(2.834571e-02 0 0 2.834571e-02 -222.5088 -149.8552)">
					<stop  offset="0" style="stop-color:#BC9446"/>
					<stop  offset="0.1451" style="stop-color:#DDC9A2"/>
					<stop  offset="0.2392" style="stop-color:#CAAA6C"/>
					<stop  offset="0.7216" style="stop-color:#F0E6D4"/>
					<stop  offset="1" style="stop-color:#FFFFFF"/>
				</linearGradient>
				<path style="fill-rule:evenodd;clip-rule:evenodd;fill:url(#SVGID_00000087395929290774983170000012903529852826551968_);" d="
					M189.2,46.3v-0.7v-1c-0.3-0.2-0.5-0.5-0.7-0.8c0,0.3,0,0.5,0,0.8C188.5,45.3,188.6,45.8,189.2,46.3z M194.8,51.4
					c-0.3-0.6-0.1-1.5-0.2-2.2v-1.5c-0.4-0.2-0.6-0.4-0.9-0.6c0,0.4,0.1,1.8,0.1,2.6C193.8,50.4,193.9,51.1,194.8,51.4L194.8,51.4z
					 M192.3,48.2c0.1,0.8-0.1,1.9,1,2.3l-0.1-0.5v-3.2c-0.2-0.1-0.9-0.6-0.9-0.6V48.2L192.3,48.2z M191.8,49.2v-3.1
					c-0.2-0.1-0.6-0.4-0.9-0.5c0,0.2,0,1.4,0.1,2.4C191,48.6,191.4,49,191.8,49.2L191.8,49.2z M190.5,48v-2.6
					c-0.2-0.1-0.5-0.4-0.7-0.5c0,0.2-0.1,1.2,0,1.9C189.8,47.3,190.1,47.8,190.5,48z"/>
				
					<linearGradient id="SVGID_00000083777227861545232470000004609701837029154441_" gradientUnits="userSpaceOnUse" x1="13946.083" y1="6737.7759" x2="13792.4033" y2="6920.3066" gradientTransform="matrix(2.834571e-02 0 0 2.834571e-02 -222.5088 -149.8552)">
					<stop  offset="0" style="stop-color:#8F8F8F"/>
					<stop  offset="0.2118" style="stop-color:#C7C7C7"/>
					<stop  offset="0.349" style="stop-color:#A6A6A6"/>
					<stop  offset="0.6314" style="stop-color:#E1E1E1"/>
					<stop  offset="1" style="stop-color:#FFFFFF"/>
				</linearGradient>
				<path style="fill-rule:evenodd;clip-rule:evenodd;fill:url(#SVGID_00000083777227861545232470000004609701837029154441_);" d="
					M173,41.6c0-0.3,0-0.5,0-0.6c0.3-0.2,0.5-0.5,0.7-0.8c0,0.8,0,1.7,0,2.6c0,0.6-0.4,0.9-0.8,1.3l0.1-0.8L173,41.6L173,41.6z
					 M168.6,45.5c0,0.8-0.5,1.5-1.1,1.7c0.1-0.2,0.2-0.5,0.2-0.8v-2.4c0.2-0.1,0.8-0.5,0.9-0.6C168.6,44.2,168.6,44.8,168.6,45.5z
					 M169,46.4c0.2-0.8,0.1-2.1,0.1-3.1c0.2-0.1,0.8-0.5,0.9-0.6v1.4C170,45,170,46,169,46.4L169,46.4z M170.4,45.5
					c0.1-0.2,0.1-0.5,0.1-0.6v-2.4l0.9-0.5c0,0.6,0.1,1.5,0,2.2c0,0.1-0.1,0.2-0.1,0.4C171.1,45,170.7,45.4,170.4,45.5L170.4,45.5z
					 M171.7,44.8l0.1-0.8v-1v-1.2c0.2-0.2,0.5-0.4,0.7-0.6c0,0.4,0,0.9,0,1.5c0,0.4,0,0.8-0.1,1.1C172.3,44.3,172,44.6,171.7,44.8
					L171.7,44.8z"/>
				
					<linearGradient id="SVGID_00000013875500032090390780000008565104071365098916_" gradientUnits="userSpaceOnUse" x1="13901.1641" y1="6927.1914" x2="13819.3193" y2="7351.7231" gradientTransform="matrix(2.834571e-02 0 0 2.834571e-02 -222.5088 -149.8552)">
					<stop  offset="0" style="stop-color:#8F8F8F"/>
					<stop  offset="0.1451" style="stop-color:#C7C7C7"/>
					<stop  offset="0.2902" style="stop-color:#8F8F8F"/>
					<stop  offset="0.7412" style="stop-color:#FFFFFF"/>
					<stop  offset="1" style="stop-color:#FFFFFF"/>
				</linearGradient>
				<path style="fill-rule:evenodd;clip-rule:evenodd;fill:url(#SVGID_00000013875500032090390780000008565104071365098916_);" d="
					M173,47.1c0.3-0.1,0.5-0.4,0.7-0.7c0,0.9,0,1.7,0,2.6c0,0.4-0.4,0.8-0.7,1.1C173,49,173,48,173,47.1L173,47.1z M168.6,56.6
					c0,0.5,0.1,0.9-0.2,1.4c-0.2,0.3-0.5,0.6-0.8,0.8c0.1-0.2,0.1-0.4,0.1-0.6l0.1-6c0.4-0.1,0.6-0.4,0.9-0.6
					C168.6,53.3,168.5,55,168.6,56.6L168.6,56.6z M169,55.3v-3.9c0.4-0.1,0.6-0.4,0.9-0.7v1.2c-0.1,0.9,0.3,3.2-1,3.6L169,55.3z
					 M170.5,53.9v-3.8c0.4-0.2,0.6-0.4,0.8-0.7c0.1,0.3,0,1.9,0,2.4C171.3,52.8,171.3,53.2,170.5,53.9L170.5,53.9z M171.9,50.5v-0.7
					v-0.9c0.2-0.1,0.5-0.4,0.7-0.6c0,0.3,0,0.9,0,1.5c0,0.4,0.1,0.8-0.1,1.2c-0.1,0.7-0.5,0.9-0.6,1.1V50.5L171.9,50.5z"/>
				
					<linearGradient id="SVGID_00000159440526580207885710000002241378910694524051_" gradientUnits="userSpaceOnUse" x1="13926.6035" y1="6855.4849" x2="13782.9336" y2="7066.8677" gradientTransform="matrix(2.834571e-02 0 0 2.834571e-02 -222.5088 -149.8552)">
					<stop  offset="0" style="stop-color:#BC9446"/>
					<stop  offset="0.1451" style="stop-color:#DDC9A2"/>
					<stop  offset="0.2392" style="stop-color:#CAAA6C"/>
					<stop  offset="0.7216" style="stop-color:#F0E6D4"/>
					<stop  offset="1" style="stop-color:#FFFFFF"/>
				</linearGradient>
				<path style="fill-rule:evenodd;clip-rule:evenodd;fill:url(#SVGID_00000159440526580207885710000002241378910694524051_);" d="
					M173,46.4v-0.7v-1c0.3-0.2,0.5-0.5,0.7-0.8c0,0.3,0,0.5,0,0.8C173.8,45.4,173.7,46,173,46.4z M167.5,51.6
					c0.3-0.6,0.1-1.5,0.2-2.2v-1.5c0.4-0.2,0.6-0.4,0.9-0.6c0,0.4-0.1,1.8-0.1,2.6C168.6,50.6,168.4,51.2,167.5,51.6L167.5,51.6z
					 M170,48.4c-0.1,0.8,0.1,1.9-1,2.3l0.1-0.5V47c0.2-0.1,0.9-0.6,0.9-0.6V48.4L170,48.4z M170.5,49.3v-3.1
					c0.2-0.1,0.6-0.4,0.9-0.5c0,0.2,0,1.4-0.1,2.4C171.3,48.7,170.9,49.1,170.5,49.3L170.5,49.3z M171.9,48.1v-2.6
					c0.2-0.1,0.5-0.4,0.7-0.5c0,0.2,0.1,1.2,0,1.9C172.5,47.5,172.2,48,171.9,48.1z"/>
				<path class="st3" d="M187.9,56.4c-0.2,0.5-0.5,0.8-0.7,0.8c0.2-0.5,0.4-0.9,0.8-1.4c0.1-0.2,0.4-0.1,0.4,0.2
					c0.1,0.2,0.1,0.4,0.1,0.5c0.1,0.2,0.1,0.4,0.2,0.5c0.2,0.4,0.2,0.7-0.1,0.8c-0.2,0.1-0.4,0-0.4-0.3
					C188.1,57.1,188,56.7,187.9,56.4L187.9,56.4z M174.3,56.4c0.2,0.5,0.5,0.8,0.7,0.8c-0.2-0.5-0.4-0.9-0.8-1.4
					c-0.1-0.2-0.4-0.1-0.4,0.2c-0.1,0.2-0.1,0.4-0.1,0.5c-0.1,0.2-0.1,0.4-0.2,0.5c-0.2,0.4-0.2,0.7,0.1,0.8c0.2,0.1,0.4,0,0.4-0.3
					C174.2,57.1,174.2,56.7,174.3,56.4L174.3,56.4z M175.4,53.7c0.1-0.1,0.1-0.2,0.1-0.4c-0.2,0.2-0.4,0.4-0.5,0.5
					c0-0.4-0.1-0.7-0.1-1.1c-0.4,0.3-0.6,0.7-0.6,1.2c0,0.2-0.2,0.2-0.2,0.4c-0.1,0.2,0,0.3-0.1,0.4c-0.1,0.1-0.2,0.2-0.2,0.3
					s0,0.2-0.1,0.4c-0.1,0.2-0.2,0.3,0,0.4c0.1-0.2,0.3-0.4,0.8,0.1c0-0.1-0.1-0.2,0-0.2c0.1-0.1,0.2-0.2,0.2-0.2
					c0.1-0.1,0-0.3,0.1-0.4c0.1-0.2,0.3-0.3,0.4-0.5c0.1-0.2,0.1-0.4,0.2-0.5C175.3,53.9,175.4,53.8,175.4,53.7L175.4,53.7z
					 M172.4,55.5c0.4,0.2,0.5,0.5,0.5,0.8c-0.1-0.1-0.1-0.2-0.2-0.2c0,0.1,0,0.2,0,0.4c0.1,0.3,0.1,0.5-0.1,0.8
					c-0.1,0.2-0.4,0.2-0.5,0c-0.1-0.1-0.1-0.4,0.1-0.7c0.1-0.2,0.1-0.5,0-0.9C172.1,55.4,172.3,55.4,172.4,55.5L172.4,55.5z
					 M173.3,55.7c0.4,0.2,0.4,0.5,0.4,0.9c-0.1-0.2-0.1-0.3-0.2-0.4c0,0.4-0.1,0.8-0.1,1.1c-0.1,0.2-0.2,0.3-0.4,0.2
					c-0.2-0.1-0.2-0.3-0.1-0.4c0.1-0.3,0.2-0.6,0.2-1.1C173,55.7,173.2,55.7,173.3,55.7L173.3,55.7z M186.8,53.7
					c-0.1-0.1-0.1-0.2-0.1-0.4c0.2,0.2,0.4,0.4,0.5,0.5c0-0.4,0.1-0.7,0.1-1.1c0.4,0.3,0.6,0.7,0.6,1.2c0,0.2,0.2,0.2,0.2,0.4
					c0.1,0.2,0,0.3,0.1,0.4c0.1,0.1,0.2,0.2,0.2,0.3s0,0.2,0.1,0.4c0.1,0.2,0.2,0.3,0,0.4c-0.1-0.2-0.3-0.4-0.8,0.1
					c0-0.1,0.1-0.2,0-0.2c-0.1-0.1-0.2-0.2-0.2-0.2c-0.1-0.1,0-0.3-0.1-0.4c-0.1-0.2-0.3-0.3-0.4-0.5c-0.1-0.2-0.1-0.4-0.2-0.5
					C186.9,53.8,186.9,53.8,186.8,53.7L186.8,53.7z M189.8,55.5c-0.4,0.2-0.5,0.5-0.5,0.8c0.1-0.1,0.1-0.2,0.2-0.2
					c0,0.1,0,0.2,0,0.4c-0.1,0.3-0.1,0.5,0.1,0.8c0.1,0.2,0.4,0.2,0.5,0c0.1-0.1,0.1-0.4-0.1-0.7c-0.1-0.2-0.1-0.5,0-0.9
					C190.2,55.4,190,55.4,189.8,55.5L189.8,55.5z M189,55.7c-0.4,0.2-0.4,0.5-0.4,0.9c0.1-0.2,0.1-0.3,0.2-0.4
					c0,0.4,0.1,0.8,0.1,1.1c0.1,0.2,0.2,0.3,0.4,0.2c0.2-0.1,0.2-0.3,0.1-0.4c-0.1-0.3-0.2-0.6-0.2-1.1
					C189.2,55.7,189.1,55.7,189,55.7L189,55.7z"/>
				<path class="st10" d="M181.1,50L181.1,50c-0.4-0.6-1-0.8-1.7-0.8c-1.4-0.1-2.5,1.2-3.5,3.9c0,0,0-0.4,0.1-1.2
					c0,0-0.2,0.4-0.7,1.1c0,0,0-0.4,0.1-1.1c0,0-0.3,0.2-0.9,0.6c0,0,0.4-1.5,1-4.5c0.2-1.1,0.2-2.2-0.1-3.6
					c-0.5-2.4-0.5-4.5-0.1-6.4c-0.6,1.8-0.8,4.2-0.5,6.9c0.2,0.9-0.1,1.7-0.8,2.2c0.1-2.5,0.1-5.1,0-7.7c0.2-0.6,0.2-1.2,0-1.8
					c0,1-0.3,1.8-1,2.5c0.2-0.7,0.2-1.5,0-2.2c-0.1,1.6-0.5,2.6-1.3,2.9c0.2-0.3,0.2-1.2,0.2-2.8c-0.1,0.2-0.2,0.7-0.4,1.4
					c-0.2,1.1-0.5,1.8-1.1,2.1c0.1-0.3,0.1-0.6,0.1-0.9c0,0,0-0.8,0-2.2c-0.3,0.4-0.5,1.2-0.5,2.4c-0.1,0.6-0.4,1.2-1.1,1.6
					c0.1-0.3,0.1-0.6,0.1-0.9c0,0,0-0.6-0.1-1.8c0-0.2,0-0.5,0.1-0.7c-0.4,0.2-0.5,0.6-0.5,1.1c0,0,0,0.5,0,1.6
					c-0.1,0.8-0.5,1.4-1.1,1.6c0.1-0.2,0.2-0.6,0.2-1c0,0,0-1.5,0-4.5c-0.1-0.6,0.2-1.3,0.7-2.1c0.4-0.6,1.1-1.4,2-2.3
					c0.6-0.5,1.2-0.5,1.8-0.1c0.8,0.5,1.6,0.8,2.4,1.1c1.7,0.6,4.4-0.1,4.8-2c0.2-0.9-0.1-1.7-0.8-2.1c-0.5-0.4-0.8-0.8-1.1-1.3
					c0.1-0.3,0.5-0.6,1.2-0.9c1.5-0.5,2.7-0.3,3.7,0.7c-0.4-0.2-0.8-0.2-1.2-0.2c1.3,0.4,2.4,1.6,3.2,3.8c0.7,1.7,1.8,2.4,3.4,2
					c0.8-0.2,1.6-0.5,2.4-1.1c0.6-0.4,1.2-0.4,1.8,0.1c0.9,0.9,1.6,1.7,2,2.3c0.5,0.8,0.8,1.4,0.7,2.1c0,3,0,4.5,0,4.5
					c0,0.4,0.1,0.8,0.2,1c-0.6-0.2-1-0.8-1.1-1.6c0-1.1,0-1.6,0-1.6c0-0.5-0.2-0.9-0.5-1.1c0.1,0.2,0.1,0.5,0.1,0.7
					c0,1.2-0.1,1.8-0.1,1.8c0,0.4,0.1,0.6,0.1,0.9c-0.6-0.4-0.9-0.9-1.1-1.6c-0.1-1.2-0.2-2-0.5-2.4c0,1.5,0,2.2,0,2.2
					c0,0.2,0.1,0.5,0.1,0.9c-0.6-0.3-0.9-1-1.1-2.1c-0.1-0.7-0.2-1.2-0.4-1.4c-0.1,1.6,0,2.5,0.2,2.8c-0.8-0.4-1.2-1.4-1.3-2.9
					c-0.2,0.8-0.2,1.5,0,2.2c-0.7-0.6-1.1-1.5-1-2.5c-0.2,0.6-0.2,1.2,0,1.8c-0.1,2.5-0.1,5.1,0,7.7c-0.6-0.5-0.9-1.3-0.8-2.2
					c0.4-2.8,0.2-5.1-0.5-6.9c0.4,1.9,0.4,4.1-0.1,6.4c-0.3,1.4-0.3,2.5-0.1,3.6c0.6,3,1,4.5,1,4.5c-0.6-0.4-0.9-0.6-0.9-0.6
					c0.1,0.7,0.1,1.1,0.1,1.1c-0.5-0.7-0.7-1.1-0.7-1.1c0.1,0.8,0.1,1.2,0.1,1.2c-0.9-2.7-2.1-4-3.5-3.9
					C182.1,49.2,181.6,49.4,181.1,50L181.1,50z"/>
				<path class="st3" d="M176.8,34.9c-0.8,0.2-1.7,0.1-2.4-0.1c-0.9-0.2-1.8-0.6-2.5-1.1c-0.5-0.3-0.8-0.2-1.2,0.1
					c-0.6,0.7-1.4,1.4-1.9,2.2c-0.4,0.5-0.6,1.1-0.6,1.8l0,0l0,0c0,1.4,0,2.6,0,4L176.8,34.9z"/>
				
					<linearGradient id="SVGID_00000042718383009142753590000013373083613611293077_" gradientUnits="userSpaceOnUse" x1="14240.8359" y1="7047.9507" x2="14240.8359" y2="7308.5908" gradientTransform="matrix(2.834571e-02 0 0 2.834571e-02 -222.5088 -149.8552)">
					<stop  offset="0" style="stop-color:#AAAAAA"/>
					<stop  offset="1" style="stop-color:#FEFEFE"/>
				</linearGradient>
				<path style="fill-rule:evenodd;clip-rule:evenodd;fill:url(#SVGID_00000042718383009142753590000013373083613611293077_);" d="
					M178.1,50.4l-1.3,5c-0.1,0.3-0.2,0.5-0.3,0.6c0.6,0.1,0.9-0.1,1.1-0.6l1.2-5.6C178.6,50.1,178.3,50.2,178.1,50.4L178.1,50.4z
					 M184.2,50.4l1.3,5.1c0.1,0.3,0.2,0.5,0.3,0.6c-0.6,0.1-0.9-0.1-1.1-0.6l-1.2-5.6C183.7,50,184,50.2,184.2,50.4z M183.3,56.3
					l-0.9-6.3c-0.3,0.1-0.5,0.2-0.7,0.4l0.4,6c0.1,0.5,0.5,0.7,0.7,0.7C183,57,183.4,56.8,183.3,56.3L183.3,56.3z M184.6,56.3
					l-1.3-6.4c-0.2,0-0.4,0-0.6,0l1.1,6.5c0.1,0.3,0.4,0.4,0.5,0.4C184.5,56.7,184.6,56.7,184.6,56.3L184.6,56.3z M180.9,50.6
					l-0.1,5.8c0,0.5,0.2,0.8,0.4,0.9c0.3-0.2,0.5-0.5,0.5-0.9l-0.1-5.8c-0.2,0.1-0.3,0.3-0.4,0.5C181.1,50.8,181,50.7,180.9,50.6
					L180.9,50.6z M179,56.3l0.9-6.3c0.3,0.1,0.5,0.2,0.7,0.4l-0.4,6.1c-0.1,0.5-0.5,0.7-0.7,0.7C179.3,57,179,56.8,179,56.3
					L179,56.3z M177.8,56.3l1.3-6.4c0.2,0,0.4,0,0.6,0l-1.1,6.5c-0.1,0.3-0.4,0.4-0.5,0.4C177.9,56.8,177.7,56.7,177.8,56.3z"/>
				<g>
					<path class="st1" d="M181.2,35.9c3.1,0,5.5,2.5,5.5,5.5c0,3.1-2.5,5.5-5.5,5.5c-3.1,0-5.5-2.5-5.5-5.5S178.2,35.9,181.2,35.9z"
						/>
					<path class="st12" d="M181.2,36.3c2.8,0,5.1,2.3,5.1,5.1c0,2.8-2.3,5.1-5.1,5.1c-2.8,0-5.1-2.3-5.1-5.1
						C176.1,38.6,178.3,36.3,181.2,36.3z"/>
					<polygon class="st1" points="181.1,35.1 181.3,35.8 182,35.8 181.5,36.2 181.7,36.8 181.1,36.5 180.6,36.8 180.8,36.2 
						180.3,35.8 180.9,35.8 					"/>
					<polygon class="st1" points="185,37.2 185.4,37.8 186,37.5 185.7,38.1 186.1,38.7 185.5,38.5 185.1,39 185,38.4 184.4,38.1 
						185,38 					"/>
					<polygon class="st1" points="177.3,37.2 176.9,37.8 176.3,37.5 176.6,38.1 176.2,38.7 176.9,38.5 177.2,39 177.3,38.4 
						177.9,38.1 177.3,38 					"/>
					<polygon class="st1" points="175.4,41.9 175.6,42.5 175.1,42.9 175.7,43 175.9,43.6 176.2,43 176.8,43.1 176.3,42.6 176.6,42 
						176,42.3 					"/>
					<polygon class="st1" points="186.8,41.9 186.6,42.5 187.2,42.9 186.6,43 186.4,43.6 186.2,43 185.5,43.1 186,42.6 185.8,42 
						186.3,42.3 					"/>
					<polygon class="st1" points="183.6,45.4 183.7,46 184.3,46.1 183.8,46.4 183.9,47.1 183.4,46.6 182.8,46.9 183.1,46.3 
						182.7,45.8 183.3,46 					"/>
					<polygon class="st1" points="178.6,45.4 178.5,46 177.9,46.1 178.4,46.4 178.4,47.1 178.9,46.6 179.5,46.9 179.2,46.3 
						179.6,45.8 178.9,46 					"/>
					<path class="st12" d="M178.7,45.7l0.2,0.3l0.4-0.1l-0.2,0.3l0.2,0.4l-0.3-0.2l-0.2,0.2l0.1-0.4l-0.3-0.2l0.4-0.1L178.7,45.7
						L178.7,45.7z M181.2,35.6l-0.1,0.4h-0.4l0.3,0.2l-0.1,0.4l0.3-0.2l0.3,0.2l-0.1-0.4l0.3-0.2h-0.4L181.2,35.6L181.2,35.6z
						 M177.2,37.7V38l0.4,0.1l-0.4,0.1l-0.1,0.4l-0.2-0.3l-0.4,0.1l0.2-0.3l-0.2-0.3l0.4,0.1L177.2,37.7L177.2,37.7z M175.7,42.2
						l0.3,0.2l0.3-0.2l-0.1,0.4l0.3,0.2l-0.4-0.1l-0.1,0.4l-0.1-0.4l-0.4-0.1l0.3-0.2L175.7,42.2L175.7,42.2z M185.2,37.7V38
						l-0.4,0.1l0.4,0.1l0.1,0.4l0.2-0.3l0.4,0.1l-0.2-0.3l0.2-0.3l-0.4,0.1L185.2,37.7L185.2,37.7z M186.6,42.2l-0.3,0.2l-0.3-0.2
						l0.1,0.4l-0.3,0.2l0.4-0.1l0.1,0.4l0.1-0.4l0.4-0.1l-0.3-0.2L186.6,42.2L186.6,42.2z M183.6,45.7l-0.2,0.3L183,46l0.2,0.3
						l-0.2,0.4l0.3-0.2l0.2,0.2l-0.1-0.4l0.3-0.2l-0.4-0.1L183.6,45.7L183.6,45.7z"/>
					
						<linearGradient id="SVGID_00000139282086580632742900000004025357185581019567_" gradientUnits="userSpaceOnUse" x1="14216.9404" y1="6801.9653" x2="14363.5547" y2="6687.1475" gradientTransform="matrix(2.834571e-02 0 0 2.834571e-02 -222.5088 -149.8552)">
						<stop  offset="0" style="stop-color:#FFFFFF"/>
						<stop  offset="1" style="stop-color:#CDCDCD"/>
					</linearGradient>
					<path style="fill-rule:evenodd;clip-rule:evenodd;fill:url(#SVGID_00000139282086580632742900000004025357185581019567_);" d="
						M185.3,40c0.2,0.5,0.3,1,0.3,1.5c0,0.5-0.1,1.1-0.2,1.5l-5.7,0.4v-3.7C181.6,39.4,183.6,39.5,185.3,40L185.3,40z"/>
					
						<linearGradient id="SVGID_00000165210732913159201810000004549042710448194691_" gradientUnits="userSpaceOnUse" x1="14322.4238" y1="6687.0903" x2="14254.7109" y2="6802.4971" gradientTransform="matrix(2.834571e-02 0 0 2.834571e-02 -222.5088 -149.8552)">
						<stop  offset="0" style="stop-color:#FCFCFC"/>
						<stop  offset="1" style="stop-color:#CDCDCD"/>
					</linearGradient>
					<path style="fill-rule:evenodd;clip-rule:evenodd;fill:url(#SVGID_00000165210732913159201810000004549042710448194691_);" d="
						M185.1,40.2c-1.6-0.4-3.4-0.5-5.1-0.4V43l5.1-0.3c0.1-0.4,0.2-0.8,0.2-1.2C185.3,41.1,185.2,40.7,185.1,40.2L185.1,40.2z"/>
					<path class="st15" d="M181.1,37c1.9,0,3.7,1.2,4.2,3c-1.8-0.5-3.7-0.5-5.7-0.4v-2.4C180.1,37.1,180.6,37,181.1,37z"/>
					<path class="st3" d="M184.7,39.5c-0.7-1.3-2.1-2.2-3.7-2.2c-0.4,0-0.8,0.1-1.1,0.2v1.8C181.6,39.1,183.2,39.2,184.7,39.5
						L184.7,39.5z"/>
					<path class="st16" d="M179.6,45.7c-1.8-0.6-3.1-2.3-3.1-4.2c0-1.9,1.3-3.7,3-4.2L179.6,45.7L179.6,45.7z"/>
					<path class="st3" d="M179.3,45.3v-7.5c-1.4,0.7-2.4,2.1-2.4,3.8C176.9,43.1,177.9,44.5,179.3,45.3L179.3,45.3z"/>
					<path class="st17" d="M185.3,43l-5.7,0.4v2.4c0.5,0.2,0.9,0.2,1.5,0.2C183,46,184.7,44.7,185.3,43L185.3,43z"/>
					<path class="st3" d="M184.8,43.3l-4.9,0.3v1.8c0.4,0.1,0.8,0.2,1.1,0.2C182.7,45.6,184.1,44.7,184.8,43.3z"/>
				</g>
				<path class="st3" d="M178.4,30.2c-0.3-0.2-0.6-0.2-1-0.3c-0.2,0.1-0.5,0.2-0.7,0.2c-0.2-0.4,0-0.8,0.6-1.2
					C177.6,29.5,178,29.9,178.4,30.2L178.4,30.2L178.4,30.2z M177.2,29.4c0.1-0.1,0.3-0.1,0.3,0.1c-0.2,0-0.2,0.1-0.2,0.2
					C177.2,29.5,177.1,29.4,177.2,29.4z M177.7,30.5c-0.3,0.1-0.5,0.1-0.7,0.1c0.4-0.2,0.6-0.4,0.6-0.4c0.2,0.1,0.5,0.2,0.7,0.4
					C178,30.4,177.9,30.4,177.7,30.5z"/>
				<path class="st3" d="M194.2,41.8c0-1.4,0-2.6,0-4v-0.1c0.1-0.6-0.3-1.2-0.6-1.8c-0.5-0.8-1.2-1.5-1.9-2.2
					c-0.4-0.3-0.8-0.4-1.2-0.1c-0.8,0.5-1.6,0.9-2.6,1.1c-1.9,0.5-3.2-0.5-3.9-2.3l0,0l0,0c-0.5-1.3-1.3-3.4-2.7-3.9l0,0
					c0,0,0,0-0.1,0h-0.1c0.4,0,0.8,0.1,1.2,0.2c-1-1-2.2-1.3-3.7-0.7c-0.7,0.3-1.1,0.6-1.2,0.9c0.2,0.5,0.6,0.9,1.1,1.3
					c0.7,0.4,1.1,1.2,0.8,2.1c-0.4,1.6-2.4,2.4-3.9,2.2l1.5,0.4c-0.1,0-0.1,0-0.2,0.1l17.5,6.9L194.2,41.8z"/>
				<path class="st3" d="M181.1,49.7L181.1,49.7c-0.4-0.6-0.9-0.9-1.6-0.9c-1.4-0.1-2.6,1.7-3.5,4.4c0,0,0-0.4,0.1-1.2
					c0,0-0.2,0.4-0.7,1.1c0,0,0-0.4,0.1-1.1c0,0-0.3,0.2-0.9,0.6c0,0,0.4-1.5,1-4.5c0.1-0.2,0.1-0.4,0.1-0.5h11.3
					c0,0.2,0.1,0.4,0.1,0.5c0.6,3,1,4.5,1,4.5c-0.6-0.4-0.9-0.6-0.9-0.6c0.1,0.7,0.1,1.1,0.1,1.1c-0.5-0.7-0.7-1.1-0.7-1.1
					c0.1,0.8,0.1,1.2,0.1,1.2c-0.9-2.7-2.2-4.5-3.6-4.4C182,48.7,181.5,49.1,181.1,49.7L181.1,49.7z"/>
				<g>
					<path class="st1" d="M178.6,28.8c-0.2-0.1-0.4-0.1-0.5,0.1c-0.1-0.2,0-0.3,0.2-0.4c0.4-0.2,1.1-0.2,2.1-0.1
						c-0.3,0.1-0.5,0.1-0.7,0.2c0.1,0.1,0.1,0.2,0.1,0.3c0,0.4-0.3,0.6-0.6,0.6c-0.4,0-0.6-0.3-0.6-0.6
						C178.6,28.9,178.6,28.9,178.6,28.8L178.6,28.8z"/>
					<path class="st3" d="M179.5,28.8c-0.2-0.1-0.3-0.1-0.5,0c0.1-0.2,0.2-0.2,0.2-0.2C179.3,28.6,179.4,28.7,179.5,28.8L179.5,28.8
						z"/>
					<path class="st3" d="M179.2,28.4c0.3,0,0.5,0.2,0.5,0.5s-0.2,0.5-0.5,0.5c-0.2,0-0.3-0.1-0.4-0.2c0.1,0.1,0.2,0.1,0.3,0.1
						c0.3,0,0.5-0.2,0.5-0.5C179.6,28.6,179.4,28.5,179.2,28.4L179.2,28.4z"/>
				</g>
			</g>
		</g>
	</g>
</g>
</svg>
