<?xml version="1.0" encoding="utf-8"?>
<!-- Generator: Adobe Illustrator 27.4.1, SVG Export Plug-In . SVG Version: 6.00 Build 0)  -->
<svg version="1.1" id="Слой_1" xmlns="http://www.w3.org/2000/svg" xmlns:xlink="http://www.w3.org/1999/xlink" x="0px" y="0px"
	 viewBox="0 0 200 98.4" style="enable-background:new 0 0 200 98.4;" xml:space="preserve">
<style type="text/css">
	.st0{fill-rule:evenodd;clip-rule:evenodd;fill:#D1D3D3;}
	.st1{fill-rule:evenodd;clip-rule:evenodd;fill:#073D85;}
</style>
<g>
	<rect x="87.8" y="15.2" class="st0" width="91.6" height="64.8"/>
	<path class="st1" d="M93.2,18.1H94v5.7c0,0.2,0,0.6,0,0.8c0,0.3-0.1,0.6-0.2,0.9c-0.2,0.3-0.7,0.7-1.1,0.9l-0.3-0.7
		c0.3-0.1,0.7-0.4,0.8-0.7c0.1-0.2,0.2-0.6,0.2-1.2v-5.7H93.2z M85.1,46.3c0.8,0,1.5,0.7,1.5,1.5c0,0.8-0.7,1.5-1.5,1.5
		c-0.8,0-1.5-0.7-1.5-1.5S84.3,46.3,85.1,46.3L85.1,46.3z M80.9,46.3c0.8,0,1.5,0.7,1.5,1.5c0,0.8-0.7,1.5-1.5,1.5
		c-0.8,0-1.5-0.7-1.5-1.5S80.2,46.3,80.9,46.3L80.9,46.3z M157.1,51.5l-1.5,1.7c-0.9-0.7-1.8-1-2.8-1c-0.8,0-1.5,0.2-1.9,0.7
		c-0.9,0.9-1.1,2.2-1.1,4.2c0,1.9,0.3,3.1,1,3.8c0.4,0.4,1.2,0.8,2.1,0.8c0.6,0,1.1-0.1,1.5-0.3v-3h-2l-0.3-2.1h5.1v6.3
		c-1.3,0.8-2.8,1.2-4.4,1.2c-2,0-3.5-0.7-4.5-2c-1-1.2-1.5-2.7-1.5-4.6c0-2.8,0.9-4.8,2.8-6c1-0.7,1.9-0.9,3.2-0.9
		C154.5,50,156,50.5,157.1,51.5L157.1,51.5z M139.2,52.4V56h0.9c1.1,0,1.7-0.1,2-0.4c0.3-0.3,0.6-0.8,0.6-1.3c0-0.8-0.3-1.3-0.9-1.6
		c-0.3-0.1-0.9-0.2-1.5-0.2L139.2,52.4L139.2,52.4z M136.7,50.2h4.9c2.3,0,3.9,1.6,3.9,3.9c0,2-1.3,3.6-2.9,3.7
		c0.2,0.2,0.3,0.3,0.6,0.6c0.8,0.9,3.1,5.1,3.1,5.1h-3.1c-0.6-0.9-0.7-1.2-1.2-2.1c-1.3-2.3-1.7-3-2.2-3.2c-0.1-0.1-0.2-0.1-0.4-0.1
		v5.5h-2.6V50.2L136.7,50.2z M124.2,50.3h2.7V59c0,1,0,1.2,0.2,1.6c0.3,0.6,0.9,0.9,1.8,0.9c1.1,0,1.9-0.6,2-1.6c0-0.3,0-0.4,0-1.2
		v-8.5h2.8V59c0,1.2,0,1.5-0.2,2.1c-0.3,1-1.7,2.5-4.5,2.5c-2,0-3.5-0.6-4.2-1.8c-0.4-0.7-0.6-1.2-0.6-2.5V50.3L124.2,50.3z
		 M115.5,57.6v3.6h1.7c0.6,0,0.9-0.1,1.2-0.3c0.4-0.3,0.7-0.9,0.7-1.6c0-0.8-0.4-1.5-1-1.6c-0.2-0.1-0.3-0.1-0.9-0.1H115.5
		L115.5,57.6z M115.5,52.5v3h1.6c0.7,0,0.9,0,1.1-0.2c0.3-0.2,0.7-0.8,0.7-1.3s-0.3-1.1-0.8-1.3c-0.2-0.1-0.6-0.2-1.1-0.2h-1.5V52.5
		z M112.8,50.2h4.5c1.6,0,2.5,0.2,3.2,0.9c0.8,0.7,1.1,1.5,1.1,2.3s-0.3,1.7-0.9,2.2c-0.3,0.3-0.6,0.4-1.2,0.7
		c1.8,0.6,2.6,1.6,2.6,3.3s-1.1,3.5-3.5,3.7c-0.4,0-1,0-1.7,0h-4.1L112.8,50.2L112.8,50.2z M102.4,50.3h7.9v1.9l-4.9,8.3
		c-0.3,0.4-0.7,0.9-0.7,0.9s0.8-0.1,1.3-0.1h4.5l-0.7,2.1h-8.3v-1.9l4.8-8c0.3-0.6,0.8-1.2,0.8-1.2s-0.6,0.1-1.3,0.1h-4L102.4,50.3
		L102.4,50.3z M93.3,52.4V56h0.9c1.1,0,1.7-0.1,2-0.4c0.3-0.3,0.6-0.8,0.6-1.3c0-0.8-0.3-1.3-0.9-1.6c-0.3-0.1-0.9-0.2-1.5-0.2
		L93.3,52.4L93.3,52.4z M90.8,50.2h4.9c2.3,0,3.9,1.6,3.9,3.9c0,2-1.3,3.6-2.9,3.7c0.2,0.2,0.3,0.3,0.6,0.6c0.8,0.9,3.1,5.1,3.1,5.1
		h-3.1c-0.6-0.9-0.7-1.2-1.2-2.1c-1.3-2.3-1.7-3-2.2-3.2C93.7,58,93.6,58,93.3,58v5.5h-2.6L90.8,50.2L90.8,50.2z M78.3,50.3h2.7V59
		c0,1,0,1.2,0.2,1.6c0.3,0.6,0.9,0.9,1.8,0.9c1.1,0,1.9-0.6,2-1.6c0-0.3,0-0.4,0-1.2v-8.5h2.7V59c0,1.2,0,1.5-0.2,2.1
		c-0.3,1-1.7,2.5-4.5,2.5c-2,0-3.5-0.6-4.2-1.8c-0.4-0.7-0.6-1.2-0.6-2.5v-9H78.3z M60.7,50.3h2.8l1.1,5.2c0.6,2.5,0.7,4.4,0.7,4.4
		c0.1-0.6,0.3-2.3,0.7-4.2l1.2-5.4h2.9l1.2,5.9c0.2,1.2,0.6,3.5,0.6,3.5c0-0.4,0.4-3.2,0.7-4.4l1.1-5h2.8l-3.2,13.3h-2.9l-1.2-5.4
		c-0.4-2-0.6-3.7-0.7-3.8c0,0-0.2,1.9-0.7,3.8l-1.1,5.4h-3L60.7,50.3L60.7,50.3z M159.8,32h9.5l-0.4,2.2h-3.1v10.9H163V34.2h-3.2V32
		L159.8,32z M157.3,30.1c0,0.8-0.7,1.6-1.6,1.6c-0.8,0-1.5-0.7-1.5-1.6c0-0.8,0.7-1.6,1.6-1.6C156.7,28.6,157.3,29.3,157.3,30.1
		L157.3,30.1z M152.6,39.8h2.6c0,0-0.4-1.3-0.7-2.7c-0.1-0.6-0.6-2.3-0.6-2.3s-0.3,1.6-0.7,2.6C153.1,38.3,153,39,152.6,39.8
		L152.6,39.8z M151.9,28.6c0.8,0,1.5,0.7,1.5,1.6c0,0.8-0.7,1.6-1.6,1.6c-0.8,0-1.5-0.7-1.5-1.6C150.3,29.3,151.1,28.6,151.9,28.6
		L151.9,28.6z M152.6,32h2.9l4.1,13.2h-2.8L156,42h-3.9l-0.9,3.1h-2.8L152.6,32L152.6,32z M139.2,32v2.2h3.2v10.9h2.7V34.2h3.1
		l0.4-2.2H139.2L139.2,32z M134.8,45.1h2.8V32h-2.8V45.1L134.8,45.1z M132.2,32.9l-1.2,1.9c-1.2-0.7-2.1-1-3.1-1
		c-1.1,0-1.8,0.7-1.8,1.6c0,0.7,0.3,1,1.5,1.3l1.6,0.4c2.1,0.6,3.3,2,3.3,3.9c0,2.7-2.1,4.5-5.5,4.5c-1.5,0-3.1-0.4-4.5-1.2l1-2.1
		c1.2,0.7,2.3,1.1,3.6,1.1c1.6,0,2.3-0.7,2.3-1.8c0-0.9-0.6-1.5-1.7-1.7l-1.5-0.4c-1.3-0.3-2.1-0.9-2.6-1.7c-0.3-0.6-0.6-1.2-0.6-2
		c0-2.5,1.9-4.1,4.7-4.1C129.4,31.6,131,32.1,132.2,32.9L132.2,32.9z M114.9,34.1v3.6h0.9c1.1,0,1.7-0.1,2-0.4
		c0.3-0.3,0.6-0.8,0.6-1.3c0-0.8-0.3-1.3-0.9-1.6c-0.3-0.1-0.9-0.2-1.5-0.2H114.9L114.9,34.1z M112.3,32h4.9c2.3,0,3.9,1.6,3.9,3.9
		c0,2-1.3,3.6-2.9,3.7c0.2,0.2,0.3,0.3,0.6,0.6c0.8,0.9,3.1,5.1,3.1,5.1h-3.1c-0.6-0.9-0.7-1.2-1.2-2.1c-1.3-2.3-1.7-3-2.2-3.2
		c-0.1-0.1-0.2-0.1-0.4-0.1v5.5h-2.6V32L112.3,32z M102.6,32h7.5l-0.3,2.1h-4.5v3h3.8v2.1h-3.7v3.6h5V45h-7.7V32H102.6z M89.7,32
		h2.9l2.2,6.8c0.1,0.2,0.2,0.9,0.4,1.5c0.1,0.3,0.1,0.4,0.2,0.8c0.1-0.3,0.1-0.4,0.2-0.9c0.2-0.7,0.3-1,0.6-1.7l2.2-6.5h2.8
		l-4.6,13.3h-2.5L89.7,32L89.7,32z M85,45.1h2.8V32H85V45.1L85,45.1z M72.9,32h2.9l2.6,5.2c0.7,1.5,1.2,2.8,1.5,3.7
		c-0.1-1-0.2-2.7-0.2-3.6L79.5,32h2.6v13.2h-2.8l-2.2-5c-0.7-1.7-1.6-3.5-1.8-4.4c0.1,1.1,0.1,2.7,0.1,3.7l0.1,5.6h-2.6V32L72.9,32z
		 M60.7,32h2.7v8.7c0,1,0,1.2,0.2,1.6c0.3,0.6,0.9,0.9,1.8,0.9c1.1,0,1.9-0.6,2-1.6c0-0.3,0-0.4,0-1.2V32h2.7v8.9
		c0,1.2,0,1.5-0.2,2.1c-0.3,1-1.7,2.5-4.5,2.5c-2,0-3.5-0.6-4.2-1.8c-0.4-0.7-0.6-1.2-0.6-2.5V32H60.7z M23.1,80h64.8V67H35.9V28.2
		h51.8v-13H23.1V80L23.1,80z M166.8,20.1l-0.3,0.6c-0.4-0.2-0.8-0.3-1.2-0.3c-0.6,0-0.9,0.3-0.9,0.8c0,0.2,0,0.3,0.1,0.4
		c0.1,0.1,0.3,0.2,0.6,0.3l0.7,0.1c0.9,0.2,1.3,0.7,1.3,1.3c0,1-0.8,1.7-1.9,1.7c-0.7,0-1.3-0.2-1.8-0.4l0.3-0.6
		c0.6,0.3,1,0.4,1.6,0.4s1-0.3,1-0.9c0-0.4-0.2-0.7-0.8-0.8l-0.7-0.1c-0.4-0.1-0.7-0.2-0.9-0.4c-0.2-0.2-0.3-0.6-0.3-0.9
		c0-0.9,0.8-1.6,1.8-1.6C165.8,19.8,166.4,19.9,166.8,20.1L166.8,20.1z M158.3,20l0.8-0.2c0.1,0.3,0.2,0.4,0.2,0.8
		c0.6-0.6,1-0.8,1.6-0.8c0.6,0,1,0.3,1.2,0.8c0.1,0.2,0.1,0.3,0.1,0.6v3.8h-0.8v-3.3c0-0.6,0-0.7-0.2-0.8c-0.1-0.1-0.3-0.2-0.6-0.2
		c-0.4,0-1,0.3-1.3,0.7v3.7h-0.8v-3.7C158.6,20.6,158.6,20.5,158.3,20L158.3,20z M156.1,22.4c-0.2,0-0.2,0-0.4,0
		c-0.8,0-1.2,0.1-1.5,0.4c-0.2,0.2-0.3,0.4-0.3,0.8c0,0.6,0.3,0.9,0.9,0.9s1-0.3,1.2-0.8L156.1,22.4L156.1,22.4z M153.3,20.5
		c0.7-0.4,1.3-0.7,2.1-0.7c0.7,0,1.1,0.2,1.3,0.8c0.1,0.2,0.1,0.3,0.1,0.9c0,0.1,0,0.2,0,0.2v1.7c0,0.1,0,0.1,0,0.2
		c0,0.6,0.1,0.8,0.4,1l-0.4,0.6c-0.3-0.1-0.6-0.3-0.7-0.8c-0.4,0.4-0.9,0.7-1.5,0.7c-0.7,0-0.9-0.1-1.2-0.4c-0.3-0.2-0.4-0.7-0.4-1
		c0-1.1,1-1.8,2.7-1.8c0.1,0,0.2,0,0.3,0v-0.3c0-0.4,0-0.7-0.1-0.8c-0.1-0.2-0.3-0.2-0.7-0.2c-0.3,0-0.6,0.1-1,0.2
		c-0.3,0.1-0.4,0.2-0.7,0.3L153.3,20.5L153.3,20.5z M151,20l0.8-0.1V25H151V20L151,20z M151.4,17.8c0.3,0,0.6,0.2,0.6,0.6
		s-0.2,0.6-0.6,0.6s-0.6-0.2-0.6-0.6C150.8,18.1,151.1,17.8,151.4,17.8L151.4,17.8z M148.4,17.8l0.8-0.1c0.1,0.3,0.1,0.9,0.1,1.6
		v4.7c0,0.3,0.1,0.4,0.3,0.4h0.1l0.1,0.6c-0.2,0.1-0.3,0.1-0.4,0.1c-0.2,0-0.4-0.1-0.6-0.2c-0.2-0.1-0.2-0.3-0.2-0.7v-4.9
		C148.5,18.4,148.5,18.1,148.4,17.8L148.4,17.8z M146,20l0.8-0.1V25H146V20L146,20z M146.5,17.8c0.3,0,0.6,0.2,0.6,0.6
		s-0.2,0.6-0.6,0.6c-0.3,0-0.6-0.2-0.6-0.6C145.8,18.1,146.2,17.8,146.5,17.8L146.5,17.8z M138,20l0.8-0.2c0.1,0.2,0.2,0.4,0.2,0.7
		l0,0c0.2-0.2,0.3-0.3,0.6-0.4c0.3-0.2,0.6-0.2,0.9-0.2s0.8,0.2,1,0.4c0.1,0.1,0.1,0.1,0.2,0.3c0.4-0.6,1.1-0.8,1.6-0.8
		c0.8,0,1.2,0.6,1.2,1.3v3.8h-0.8v-3.7c0-0.4-0.2-0.8-0.7-0.8c-0.2,0-0.4,0.1-0.8,0.2c-0.1,0.1-0.3,0.2-0.4,0.4l-0.1,0.1v3.7h-0.8
		v-3.6c0-0.4,0-0.4-0.1-0.7c-0.1-0.1-0.3-0.2-0.6-0.2c-0.3,0-0.8,0.2-1.2,0.7v3.7h-0.8v-3.6C138.2,20.6,138.1,20.5,138,20L138,20z
		 M135.7,20l0.8-0.1V25h-0.8V20L135.7,20z M136.1,17.8c0.3,0,0.6,0.2,0.6,0.6s-0.2,0.6-0.6,0.6s-0.6-0.2-0.6-0.6
		C135.4,18.1,135.8,17.8,136.1,17.8L136.1,17.8z M130.6,20h1l1,1.7l1-1.7h0.9l-1.5,2.2L135,25h-1l-1.3-2.1l-1.3,2.1h-1l1.9-2.8
		L130.6,20L130.6,20z M128.7,22.4c-0.2,0-0.2,0-0.4,0c-0.8,0-1.2,0.1-1.5,0.4c-0.2,0.2-0.3,0.4-0.3,0.8c0,0.6,0.3,0.9,0.9,0.9
		c0.6,0,1-0.3,1.2-0.8L128.7,22.4L128.7,22.4z M125.9,20.5c0.7-0.4,1.3-0.7,2.1-0.7c0.7,0,1.1,0.2,1.3,0.8c0.1,0.2,0.1,0.3,0.1,0.9
		c0,0.1,0,0.2,0,0.2v1.7c0,0.1,0,0.1,0,0.2c0,0.6,0.1,0.8,0.4,1l-0.4,0.6c-0.3-0.1-0.6-0.3-0.7-0.8c-0.4,0.4-0.9,0.7-1.5,0.7
		c-0.7,0-0.9-0.1-1.2-0.4c-0.2-0.2-0.3-0.7-0.3-0.9c0-1.1,1-1.8,2.7-1.8c0.1,0,0.2,0,0.3,0v-0.4c0-0.4,0-0.7-0.1-0.8
		c-0.1-0.2-0.3-0.2-0.7-0.2c-0.3,0-0.6,0.1-1,0.2c-0.3,0.1-0.4,0.2-0.7,0.3L125.9,20.5L125.9,20.5z M119.1,18.1h1.1l1.2,4.5
		c0.1,0.4,0.2,0.7,0.2,1.2c0.1-0.6,0.1-0.8,0.2-1.1l1.3-4.6h1.2l0.6,6.8h-0.8l-0.4-5c0-0.4,0-1.1,0-1.1c-0.1,0.3-0.2,0.8-0.2,1.1
		l-1.5,5.1h-0.7l-1.3-4.9c-0.1-0.6-0.2-0.9-0.3-1.3c0,0,0,0.9-0.1,1.3l-0.3,4.9h-0.8L119.1,18.1L119.1,18.1z M168.5,22.7h1.9v-0.8
		h-1.9V22.7L168.5,22.7z M115.3,22.7h1.9v-0.8h-1.9V22.7L115.3,22.7z M114.1,20.1l-0.3,0.6c-0.4-0.2-0.8-0.3-1.2-0.3
		c-0.6,0-0.9,0.3-0.9,0.8c0,0.2,0,0.3,0.1,0.4c0.1,0.1,0.3,0.2,0.6,0.3L113,22c0.9,0.2,1.3,0.7,1.3,1.3c0,1-0.8,1.7-1.9,1.7
		c-0.7,0-1.3-0.2-1.8-0.4L111,24c0.6,0.3,1,0.4,1.6,0.4c0.6,0,1-0.3,1-0.9c0-0.4-0.2-0.7-0.8-0.8l-0.7-0.1c-0.4-0.1-0.7-0.2-0.9-0.4
		c-0.2-0.2-0.3-0.6-0.3-0.9c0-0.9,0.8-1.6,1.8-1.6C113.1,19.8,113.7,19.9,114.1,20.1L114.1,20.1z M105.8,20l0.8-0.1v3.6
		c0,0.4,0.1,0.7,0.3,0.8c0.1,0.1,0.4,0.2,0.7,0.2c0.4,0,1-0.3,1.2-0.9V20l0.8-0.1v3.6c0,0.6,0,0.8,0.1,0.9c0,0.1,0.1,0.1,0.2,0.3
		l-0.4,0.6c-0.3-0.2-0.4-0.4-0.6-0.8c-0.3,0.6-0.9,0.8-1.6,0.8c-0.7,0-1.1-0.2-1.3-0.7c-0.1-0.2-0.1-0.4-0.1-0.8V20H105.8z
		 M103.3,20l0.8-0.1V25h-0.8V20L103.3,20z M103.7,17.8c0.3,0,0.6,0.2,0.6,0.6s-0.2,0.6-0.6,0.6s-0.6-0.2-0.6-0.6
		C103.1,18.1,103.4,17.8,103.7,17.8L103.7,17.8z M100.7,17.8l0.8-0.1c0.1,0.3,0.1,0.9,0.1,1.6v4.7c0,0.3,0.1,0.4,0.3,0.4h0.1
		l0.1,0.6c-0.2,0.1-0.3,0.1-0.4,0.1c-0.2,0-0.4-0.1-0.6-0.2c-0.2-0.1-0.2-0.3-0.2-0.7v-4.9C100.8,18.4,100.8,18.1,100.7,17.8
		L100.7,17.8z M95.5,20l0.8-0.1v3.6c0,0.4,0.1,0.7,0.3,0.8c0.1,0.1,0.4,0.2,0.7,0.2c0.4,0,1-0.3,1.2-0.9V20l0.8-0.1v3.6
		c0,0.6,0,0.8,0.1,0.9c0,0.1,0.1,0.1,0.2,0.3L99,25.1c-0.3-0.2-0.4-0.4-0.6-0.8c-0.3,0.6-0.9,0.8-1.6,0.8s-1.1-0.2-1.3-0.7
		c-0.1-0.2-0.1-0.4-0.1-0.8V20z"/>
</g>
</svg>
