<?xml version="1.0" encoding="utf-8"?>
<!-- Generator: Adobe Illustrator 27.4.1, SVG Export Plug-In . SVG Version: 6.00 Build 0)  -->
<svg version="1.1" id="Слой_1" xmlns="http://www.w3.org/2000/svg" xmlns:xlink="http://www.w3.org/1999/xlink" x="0px" y="0px"
	 viewBox="0 0 200 98.4" style="enable-background:new 0 0 200 98.4;" xml:space="preserve">
<style type="text/css">
	.st0{fill-rule:evenodd;clip-rule:evenodd;fill:#353B46;}
</style>
<path class="st0" d="M140.2,63.8v1.7h-1.4v3.3c0,0.6,0,1,0.1,1.1c0,0.1,0.1,0.2,0.2,0.2s0.2,0.1,0.3,0.1c0.2,0,0.5-0.1,0.9-0.2
	l0.2,1.7c-0.5,0.2-1,0.3-1.7,0.3c-0.4,0-0.7-0.1-1-0.2c-0.3-0.2-0.6-0.3-0.6-0.5c-0.2-0.2-0.2-0.5-0.3-0.8c-0.1-0.2-0.1-0.7-0.1-1.5
	v-3.5h-1v-1.7h1v-1.6l2.1-1.3v2.8L140.2,63.8L140.2,63.8z M103.1,32.3c0.6,0,1,0.5,1,1c0,0.6-0.5,1-1,1s-1-0.5-1-1
	C102,32.8,102.5,32.3,103.1,32.3L103.1,32.3z M92.3,45.8c0.6,0,1,0.5,1,1s-0.5,1-1,1s-1-0.5-1-1S91.8,45.8,92.3,45.8L92.3,45.8z
	 M96.7,46.4c0.6,0,1,0.5,1,1c0,0.6-0.5,1-1,1s-1-0.5-1-1C95.7,46.9,96.1,46.4,96.7,46.4L96.7,46.4z M101.3,46.6c0.6,0,1,0.5,1,1
	c0,0.6-0.5,1-1,1c-0.6,0-1-0.5-1-1C100.2,47,100.7,46.6,101.3,46.6L101.3,46.6z M105.7,46.4c0.6,0,1,0.5,1,1c0,0.6-0.5,1-1,1
	s-1-0.5-1-1C104.6,46.9,105.1,46.4,105.7,46.4L105.7,46.4z M110.2,45.8c0.6,0,1,0.5,1,1s-0.5,1-1,1s-1-0.5-1-1
	C109.2,46.2,109.6,45.8,110.2,45.8L110.2,45.8z M107.7,42.9c0.6,0,1,0.5,1,1c0,0.6-0.5,1-1,1s-1-0.5-1-1S107.2,42.9,107.7,42.9
	L107.7,42.9z M103.3,43.2c0.6,0,1,0.5,1,1s-0.5,1-1,1s-1-0.5-1-1S102.8,43.2,103.3,43.2L103.3,43.2z M99,43.2c0.6,0,1,0.5,1,1
	s-0.5,1-1,1s-1-0.5-1-1S98.5,43.2,99,43.2L99,43.2z M101.3,40.2c0.6,0,1,0.5,1,1s-0.5,1-1,1s-1-0.5-1-1
	C100.1,40.7,100.6,40.2,101.3,40.2L101.3,40.2z M105.4,40c0.6,0,1,0.5,1,1s-0.5,1-1,1s-1-0.5-1-1C104.4,40.5,104.8,40,105.4,40
	L105.4,40z M109.6,39.5c0.6,0,1,0.5,1,1c0,0.6-0.5,1-1,1s-1-0.5-1-1C108.6,40,109,39.5,109.6,39.5L109.6,39.5z M112,42.4
	c0.6,0,1,0.5,1,1c0,0.6-0.5,1-1,1s-1-0.5-1-1C111,42.9,111.5,42.4,112,42.4L112,42.4z M116.5,41.6c0.6,0,1,0.5,1,1s-0.5,1-1,1
	c-0.6,0-1-0.5-1-1S115.9,41.6,116.5,41.6L116.5,41.6z M113.8,38.8c0.6,0,1,0.5,1,1s-0.5,1-1,1s-1-0.5-1-1S113.2,38.8,113.8,38.8
	L113.8,38.8z M107.2,37c0.6,0,1,0.5,1,1s-0.5,1-1,1s-1-0.5-1-1S106.6,37,107.2,37L107.2,37z M103.2,37.3c0.6,0,1,0.5,1,1s-0.5,1-1,1
	s-1-0.5-1-1C102.2,37.8,102.7,37.3,103.2,37.3L103.2,37.3z M99,37.3c0.6,0,1,0.5,1,1s-0.5,1-1,1s-1-0.5-1-1
	C98,37.8,98.5,37.3,99,37.3L99,37.3z M94.7,42.9c0.6,0,1,0.5,1,1c0,0.6-0.5,1-1,1c-0.6,0-1-0.5-1-1C93.6,43.4,94.1,42.9,94.7,42.9
	L94.7,42.9z M96.9,39.9c0.6,0,1,0.5,1,1c0,0.6-0.5,1-1,1s-1-0.5-1-1C95.9,40.4,96.4,39.9,96.9,39.9L96.9,39.9z M95.1,37
	c0.6,0,1,0.5,1,1s-0.5,1-1,1s-1-0.5-1-1S94.5,37,95.1,37L95.1,37z M92.8,39.6c0.6,0,1,0.5,1,1c0,0.6-0.5,1-1,1s-1-0.5-1-1
	C91.7,40.1,92.2,39.6,92.8,39.6L92.8,39.6z M90.3,42.4c0.6,0,1,0.5,1,1c0,0.6-0.5,1-1,1s-1-0.5-1-1C89.2,42.9,89.7,42.4,90.3,42.4
	L90.3,42.4z M86,41.5c0.6,0,1,0.5,1,1s-0.5,1-1,1s-1-0.5-1-1S85.5,41.5,86,41.5L86,41.5z M88.6,38.8c0.6,0,1,0.5,1,1s-0.5,1-1,1
	s-1-0.5-1-1C87.5,39.2,88,38.8,88.6,38.8L88.6,38.8z M91,36.5c0.6,0,1,0.5,1,1s-0.5,1-1,1s-1-0.5-1-1C90,37,90.5,36.5,91,36.5
	L91,36.5z M85,37.1c0.6,0,1,0.5,1,1s-0.5,1-1,1c-0.6,0-1-0.5-1-1S84.4,37.1,85,37.1L85,37.1z M81.6,35.3c0.6,0,1,0.5,1,1
	c0,0.6-0.5,1-1,1s-1-0.5-1-1C80.6,35.8,81.1,35.3,81.6,35.3L81.6,35.3z M84.7,32.8c0.6,0,1,0.5,1,1s-0.5,1-1,1s-1-0.5-1-1
	S84.1,32.8,84.7,32.8L84.7,32.8z M87.9,34.8c0.6,0,1,0.5,1,1s-0.5,1-1,1s-1-0.5-1-1S87.4,34.8,87.9,34.8L87.9,34.8z M90.6,32.4
	c0.6,0,1,0.5,1,1c0,0.6-0.5,1-1,1s-1-0.5-1-1C89.4,32.9,89.9,32.4,90.6,32.4L90.6,32.4z M93.4,34.1c0.6,0,1,0.5,1,1s-0.5,1-1,1
	s-1-0.5-1-1C92.3,34.6,92.8,34.1,93.4,34.1L93.4,34.1z M97.3,34.5c0.6,0,1,0.5,1,1s-0.5,1-1,1s-1-0.5-1-1
	C96.3,35,96.8,34.5,97.3,34.5L97.3,34.5z M101.3,34.8c0.6,0,1,0.5,1,1s-0.5,1-1,1s-1-0.5-1-1S100.7,34.8,101.3,34.8L101.3,34.8z
	 M95.5,32c0.6,0,1,0.5,1,1c0,0.6-0.5,1-1,1s-1-0.5-1-1C94.5,32.5,94.9,32,95.5,32L95.5,32z M99.3,32.4c0.6,0,1,0.5,1,1
	c0,0.6-0.5,1-1,1s-1-0.5-1-1C98.2,32.8,98.7,32.4,99.3,32.4L99.3,32.4z M97.5,30c-0.6,0-1,0.5-1,1s0.5,1,1,1s1-0.5,1-1
	S98.1,30,97.5,30L97.5,30z M93,30.2c0.6,0,1,0.5,1,1s-0.5,1-1,1s-1-0.5-1-1C91.8,30.7,92.3,30.2,93,30.2L93,30.2z M87.4,30.6
	c0.6,0,1,0.5,1,1s-0.5,1-1,1s-1-0.5-1-1C86.4,31.1,86.9,30.6,87.4,30.6L87.4,30.6z M81.1,30.8c0.6,0,1,0.5,1,1s-0.5,1-1,1
	s-1-0.5-1-1S80.5,30.8,81.1,30.8L81.1,30.8z M84.3,28.5c0.6,0,1,0.5,1,1s-0.5,1-1,1s-1-0.5-1-1C83.2,29,83.7,28.5,84.3,28.5
	L84.3,28.5z M90.2,28.4c0.6,0,1,0.5,1,1s-0.5,1-1,1s-1-0.5-1-1C89.2,28.9,89.7,28.4,90.2,28.4L90.2,28.4z M95.3,28.3
	c0.6,0,1,0.5,1,1s-0.5,1-1,1s-1-0.5-1-1C94.2,28.8,94.7,28.3,95.3,28.3L95.3,28.3z M92.9,26.3c0.6,0,1,0.5,1,1c0,0.6-0.5,1-1,1
	s-1-0.5-1-1C91.8,26.8,92.3,26.3,92.9,26.3L92.9,26.3z M87.3,26.3c0.6,0,1,0.5,1,1s-0.5,1-1,1s-1-0.5-1-1
	C86.2,26.8,86.7,26.3,87.3,26.3L87.3,26.3z M80.8,26.4c0.6,0,1,0.5,1,1s-0.5,1-1,1s-1-0.5-1-1C79.8,26.9,80.3,26.4,80.8,26.4
	L80.8,26.4z M84.3,24.1c0.6,0,1,0.5,1,1c0,0.6-0.5,1-1,1s-1-0.5-1-1C83.2,24.6,83.7,24.1,84.3,24.1L84.3,24.1z M90.2,24.4
	c0.6,0,1,0.5,1,1c0,0.6-0.5,1-1,1s-1-0.5-1-1C89.1,24.9,89.6,24.4,90.2,24.4L90.2,24.4z M90.6,20.4c0.6,0,1,0.5,1,1c0,0.6-0.5,1-1,1
	s-1-0.5-1-1C89.5,20.9,90,20.4,90.6,20.4L90.6,20.4z M87.4,22.1c0.6,0,1,0.5,1,1c0,0.6-0.5,1-1,1s-1-0.5-1-1
	C86.4,22.6,86.9,22.1,87.4,22.1L87.4,22.1z M81.1,21.8c0.6,0,1,0.5,1,1s-0.5,1-1,1c-0.6,0-1-0.5-1-1C80.1,22.2,80.6,21.8,81.1,21.8
	L81.1,21.8z M84.5,19.9c0.6,0,1,0.5,1,1c0,0.6-0.5,1-1,1c-0.6,0-1-0.5-1-1S83.9,19.9,84.5,19.9L84.5,19.9z M81.7,17.4
	c0.6,0,1,0.5,1,1c0,0.6-0.5,1-1,1c-0.6,0-1-0.5-1-1C80.7,17.8,81.1,17.4,81.7,17.4L81.7,17.4z M88,17.9c0.6,0,1,0.5,1,1
	c0,0.6-0.5,1-1,1s-1-0.5-1-1C87,18.4,87.4,17.9,88,17.9L88,17.9z M93.3,18.6c0.6,0,1,0.5,1,1c0,0.6-0.5,1-1,1s-1-0.5-1-1
	C92.2,19,92.7,18.6,93.3,18.6L93.3,18.6z M85.1,15.4c0.6,0,1,0.5,1,1c0,0.6-0.5,1-1,1s-1-0.5-1-1C84,15.9,84.5,15.4,85.1,15.4
	L85.1,15.4z M91.1,16.2c0.6,0,1,0.5,1,1s-0.5,1-1,1c-0.6,0-1-0.5-1-1C90,16.6,90.5,16.2,91.1,16.2L91.1,16.2z M95.1,15.7
	c0.6,0,1,0.5,1,1s-0.5,1-1,1s-1-0.5-1-1S94.5,15.7,95.1,15.7L95.1,15.7z M92.7,13.1c0.6,0,1,0.5,1,1c0,0.6-0.5,1-1,1s-1-0.5-1-1
	C91.7,13.6,92.2,13.1,92.7,13.1L92.7,13.1z M88.6,13.9c0.6,0,1,0.5,1,1c0,0.6-0.5,1-1,1s-1-0.5-1-1C87.5,14.4,88,13.9,88.6,13.9
	L88.6,13.9z M86.1,11.1c0.6,0,1,0.5,1,1s-0.5,1-1,1s-1-0.5-1-1C85.1,11.6,85.5,11.1,86.1,11.1L86.1,11.1z M90.4,10.3
	c0.6,0,1,0.5,1,1c0,0.6-0.5,1-1,1s-1-0.5-1-1C89.4,10.8,89.8,10.3,90.4,10.3L90.4,10.3z M96.9,12.7c0.6,0,1,0.5,1,1c0,0.6-0.5,1-1,1
	s-1-0.5-1-1C95.8,13.2,96.3,12.7,96.9,12.7L96.9,12.7z M99,15.4c0.6,0,1,0.5,1,1c0,0.6-0.5,1-1,1s-1-0.5-1-1
	C98,15.8,98.5,15.4,99,15.4L99,15.4z M101.2,12.6c0.6,0,1,0.5,1,1s-0.5,1-1,1s-1-0.5-1-1S100.6,12.6,101.2,12.6L101.2,12.6z
	 M103.2,15.4c0.6,0,1,0.5,1,1c0,0.6-0.5,1-1,1s-1-0.5-1-1C102.1,15.9,102.6,15.4,103.2,15.4L103.2,15.4z M105.3,12.8
	c0.6,0,1,0.5,1,1c0,0.6-0.5,1-1,1s-1-0.5-1-1C104.2,13.2,104.7,12.8,105.3,12.8L105.3,12.8z M107.6,9.8c0.6,0,1,0.5,1,1s-0.5,1-1,1
	s-1-0.5-1-1S107.1,9.8,107.6,9.8L107.6,9.8z M103.3,9.6c0.6,0,1,0.5,1,1s-0.5,1-1,1s-1-0.5-1-1S102.8,9.6,103.3,9.6L103.3,9.6z
	 M99,9.6c0.6,0,1,0.5,1,1s-0.5,1-1,1s-1-0.5-1-1C97.9,10.1,98.4,9.6,99,9.6L99,9.6z M94.6,9.9c0.6,0,1,0.5,1,1s-0.5,1-1,1
	s-1-0.5-1-1C93.6,10.3,94.1,9.9,94.6,9.9L94.6,9.9z M92.2,7c0.6,0,1,0.5,1,1s-0.5,1-1,1s-1-0.5-1-1S91.6,7,92.2,7L92.2,7z M96.7,6.3
	c0.6,0,1,0.5,1,1s-0.5,1-1,1s-1-0.5-1-1C95.6,6.7,96.1,6.3,96.7,6.3L96.7,6.3z M101.2,6.1c0.6,0,1.1,0.5,1.1,1.1c0,0.6-0.5,1-1,1
	s-1-0.5-1-1C100.1,6.6,100.6,6.1,101.2,6.1L101.2,6.1z M105.8,6.3c0.6,0,1,0.5,1,1s-0.5,1-1,1c-0.6,0-1-0.5-1-1
	C104.7,6.7,105.2,6.3,105.8,6.3L105.8,6.3z M110.2,6.8c0.6,0,1,0.5,1,1c0,0.6-0.5,1-1,1s-1-0.5-1-1C109.2,7.3,109.6,6.8,110.2,6.8
	L110.2,6.8z M97.3,18.2c0.6,0,1,0.5,1,1s-0.5,1-1,1s-1-0.5-1-1C96.3,18.6,96.8,18.2,97.3,18.2L97.3,18.2z M95.6,20.6
	c0.6,0,1,0.5,1,1c0,0.6-0.5,1-1,1s-1-0.5-1-1C94.5,21.1,94.9,20.6,95.6,20.6L95.6,20.6z M93,22.5c0.6,0,1,0.5,1,1c0,0.6-0.5,1-1,1
	s-1-0.5-1-1C91.8,22.9,92.3,22.5,93,22.5L93,22.5z M95.3,24.6c0.6,0,1,0.5,1,1s-0.5,1-1,1s-1-0.5-1-1C94.2,25.1,94.7,24.6,95.3,24.6
	L95.3,24.6z M97.4,26.4c0.6,0,1,0.5,1,1s-0.5,1-1,1s-1-0.5-1-1C96.4,26.9,96.9,26.4,97.4,26.4L97.4,26.4z M101.3,18.1
	c0.6,0,1,0.5,1,1s-0.5,1-1,1s-1-0.5-1-1C100.2,18.6,100.7,18.1,101.3,18.1L101.3,18.1z M99.3,20.5c0.6,0,1,0.5,1,1c0,0.6-0.5,1-1,1
	s-1-0.5-1-1C98.2,20.9,98.7,20.5,99.3,20.5L99.3,20.5z M97.6,22.8c-0.6,0-1,0.5-1,1s0.5,1,1,1s1-0.5,1-1
	C98.6,23.3,98.1,22.8,97.6,22.8L97.6,22.8z M99.4,24.6c-0.6,0-1,0.5-1,1s0.5,1,1,1s1-0.5,1-1C100.5,25.1,100,24.6,99.4,24.6
	L99.4,24.6z M101.2,22.6c0.6,0,1,0.5,1,1c0,0.6-0.5,1-1,1s-1-0.5-1-1S100.6,22.6,101.2,22.6L101.2,22.6z M102.9,24.5
	c-0.6,0-1,0.5-1,1s0.5,1,1,1s1-0.5,1-1C104,25,103.5,24.5,102.9,24.5L102.9,24.5z M104.8,22.6c0.6,0,1,0.5,1,1c0,0.6-0.5,1-1,1
	s-1-0.5-1-1S104.3,22.6,104.8,22.6L104.8,22.6z M103.1,20.4c0.6,0,1,0.5,1,1c0,0.6-0.5,1-1,1s-1-0.5-1-1
	C102.1,20.9,102.5,20.4,103.1,20.4L103.1,20.4z M106.8,20.6c-0.6,0-1,0.5-1,1c0,0.6,0.5,1,1,1s1-0.5,1-1
	C107.9,21.1,107.4,20.6,106.8,20.6L106.8,20.6z M105.1,18.2c0.6,0,1,0.5,1,1s-0.5,1-1,1s-1-0.5-1-1C104,18.7,104.4,18.2,105.1,18.2
	L105.1,18.2z M109,18.6c0.6,0,1,0.5,1,1c0,0.6-0.5,1-1,1s-1-0.5-1-1C108,19.1,108.4,18.6,109,18.6L109,18.6z M107.2,15.7
	c0.6,0,1,0.5,1,1s-0.5,1-1,1s-1-0.5-1-1S106.7,15.7,107.2,15.7L107.2,15.7z M111.3,16.2c0.6,0,1,0.5,1,1s-0.5,1-1,1s-1-0.5-1-1
	C110.3,16.6,110.8,16.2,111.3,16.2L111.3,16.2z M109.5,13c0.6,0,1,0.5,1,1c0,0.6-0.5,1-1,1s-1-0.5-1-1C108.4,13.5,108.9,13,109.5,13
	L109.5,13z M112,10.2c0.6,0,1,0.5,1,1c0,0.6-0.5,1-1,1s-1-0.5-1-1C111,10.6,111.5,10.2,112,10.2L112,10.2z M113.8,13.8
	c0.6,0,1,0.5,1,1c0,0.6-0.5,1-1,1s-1-0.5-1-1C112.7,14.3,113.2,13.8,113.8,13.8L113.8,13.8z M116.5,11.1c0.6,0,1,0.5,1,1s-0.5,1-1,1
	c-0.6,0-1-0.5-1-1S115.9,11.1,116.5,11.1L116.5,11.1z M111.8,20.4c0.6,0,1,0.5,1,1c0,0.6-0.5,1-1,1s-1-0.5-1-1
	C110.8,20.9,111.2,20.4,111.8,20.4L111.8,20.4z M114.3,18.1c0.6,0,1,0.5,1,1s-0.5,1-1,1c-0.6,0-1-0.5-1-1
	C113.3,18.6,113.8,18.1,114.3,18.1L114.3,18.1z M117.3,15.5c0.6,0,1,0.5,1,1c0,0.6-0.5,1-1,1c-0.6,0-1-0.5-1-1
	S116.7,15.5,117.3,15.5L117.3,15.5z M120.7,17.4c0.6,0,1,0.5,1,1c0,0.6-0.5,1-1,1c-0.6,0-1-0.5-1-1
	C119.7,17.8,120.2,17.4,120.7,17.4L120.7,17.4z M117.7,19.8c0.6,0,1,0.5,1,1s-0.5,1-1,1s-1-0.5-1-1
	C116.6,20.2,117.1,19.8,117.7,19.8L117.7,19.8z M114.9,22.1c0.6,0,1,0.5,1,1c0,0.6-0.5,1-1,1s-1-0.5-1-1
	C113.8,22.6,114.3,22.1,114.9,22.1L114.9,22.1z M112.2,24.3c0.6,0,1,0.5,1,1c0,0.6-0.5,1-1,1c-0.6,0-1-0.5-1-1
	C111.1,24.8,111.6,24.3,112.2,24.3L112.2,24.3z M109.4,22.5c0.6,0,1,0.5,1,1c0,0.6-0.5,1-1,1s-1-0.5-1-1
	C108.4,22.9,108.8,22.5,109.4,22.5L109.4,22.5z M107.1,24.5c0.6,0,1,0.5,1,1s-0.5,1-1,1s-1-0.5-1-1C106,25,106.4,24.5,107.1,24.5
	L107.1,24.5z M109.6,26.3c0.6,0,1,0.5,1,1s-0.5,1-1,1s-1-0.5-1-1C108.5,26.8,109,26.3,109.6,26.3L109.6,26.3z M115.1,26.4
	c0.6,0,1,0.5,1,1s-0.5,1-1,1s-1-0.5-1-1C113.9,26.9,114.4,26.4,115.1,26.4L115.1,26.4z M118.1,24.2c0.6,0,1,0.5,1,1c0,0.6-0.5,1-1,1
	c-0.6,0-1-0.5-1-1S117.5,24.2,118.1,24.2L118.1,24.2z M121.3,21.9c0.6,0,1,0.5,1,1c0,0.6-0.5,1-1,1s-1-0.5-1-1
	C120.3,22.4,120.7,21.9,121.3,21.9L121.3,21.9z M121.4,26.4c0.6,0,1,0.5,1,1s-0.5,1-1,1s-1-0.5-1-1
	C120.4,26.9,120.9,26.4,121.4,26.4L121.4,26.4z M121.3,30.8c0.6,0,1,0.5,1,1s-0.5,1-1,1s-1-0.5-1-1
	C120.3,31.2,120.7,30.8,121.3,30.8L121.3,30.8z M118.1,28.5c0.6,0,1,0.5,1,1s-0.5,1-1,1c-0.6,0-1-0.5-1-1
	C117,29,117.5,28.5,118.1,28.5L118.1,28.5z M114.8,30.6c0.6,0,1,0.5,1,1s-0.5,1-1,1c-0.6,0-1-0.5-1-1
	C113.7,31.1,114.2,30.6,114.8,30.6L114.8,30.6z M120.7,35.2c0.6,0,1,0.5,1,1s-0.5,1-1,1c-0.6,0-1-0.5-1-1
	C119.7,35.7,120.2,35.2,120.7,35.2L120.7,35.2z M117.3,37.2c0.6,0,1,0.5,1,1s-0.5,1-1,1c-0.6,0-1-0.5-1-1S116.7,37.2,117.3,37.2
	L117.3,37.2z M117.7,32.8c0.6,0,1,0.5,1,1s-0.5,1-1,1s-1-0.5-1-1S117.1,32.8,117.7,32.8L117.7,32.8z M114.5,34.8c0.6,0,1,0.5,1,1
	s-0.5,1-1,1c-0.6,0-1-0.5-1-1C113.4,35.2,113.9,34.8,114.5,34.8L114.5,34.8z M111.4,36.5c0.6,0,1,0.5,1,1s-0.5,1-1,1s-1-0.5-1-1
	C110.3,37,110.8,36.5,111.4,36.5L111.4,36.5z M111.9,32.3c0.6,0,1,0.5,1,1c0,0.6-0.5,1-1,1c-0.6,0-1-0.5-1-1
	C110.8,32.8,111.2,32.3,111.9,32.3L111.9,32.3z M109,34.2c0.6,0,1,0.5,1,1s-0.5,1-1,1s-1-0.5-1-1C108,34.7,108.4,34.2,109,34.2
	L109,34.2z M105,34.5c0.6,0,1,0.5,1,1s-0.5,1-1,1s-1-0.5-1-1C104,35,104.4,34.5,105,34.5L105,34.5z M106.9,32c0.6,0,1,0.5,1,1
	s-0.5,1-1,1s-1-0.5-1-1S106.4,32,106.9,32L106.9,32z M109.6,30.1c0.6,0,1,0.5,1,1c0,0.6-0.5,1-1,1s-1-0.5-1-1
	C108.5,30.6,109,30.1,109.6,30.1L109.6,30.1z M112.1,28.4c0.6,0,1,0.5,1,1s-0.5,1-1,1s-1-0.5-1-1C111.1,28.9,111.6,28.4,112.1,28.4
	L112.1,28.4z M107,28.1c0.6,0,1,0.5,1,1s-0.5,1-1,1s-1-0.5-1-1C106,28.6,106.4,28.1,107,28.1L107,28.1z M105,26.3c0.6,0,1,0.5,1,1
	s-0.5,1-1,1s-1-0.5-1-1C103.9,26.8,104.4,26.3,105,26.3L105,26.3z M101.2,26.4c0.6,0,1,0.5,1,1s-0.5,1-1,1s-1-0.5-1-1
	C100.1,26.9,100.6,26.4,101.2,26.4L101.2,26.4z M99.4,28.2c0.6,0,1,0.5,1,1s-0.5,1-1,1s-1-0.5-1-1C98.4,28.7,98.8,28.2,99.4,28.2
	L99.4,28.2z M101.3,30c-0.6,0-1,0.5-1,1s0.5,1,1,1s1-0.5,1-1S101.8,30,101.3,30L101.3,30z M104.8,30c-0.6,0-1,0.5-1,1
	c0,0.6,0.5,1,1,1s1-0.5,1-1C106,30.4,105.5,30,104.8,30L104.8,30z M102.9,28.1c-0.6,0-1,0.5-1,1s0.5,1,1,1s1-0.5,1-1
	C104,28.6,103.6,28.1,102.9,28.1L102.9,28.1z M131.7,62.8v-1.9h2.1v1.9H131.7L131.7,62.8z M128.6,62.8v-1.9h2.1v1.9H128.6
	L128.6,62.8z M132.5,81v1.7H131V86c0,0.6,0,1,0.1,1.1c0,0.1,0.1,0.2,0.2,0.2c0.1,0.1,0.2,0.1,0.3,0.1c0.2,0,0.5-0.1,0.9-0.2l0.2,1.7
	c-0.5,0.2-1,0.3-1.7,0.3c-0.4,0-0.7-0.1-1-0.2c-0.3-0.2-0.6-0.3-0.6-0.5c-0.2-0.2-0.2-0.5-0.3-0.8c-0.1-0.2-0.1-0.7-0.1-1.5v-3.5h-1
	V81h1v-1.6l2.1-1.3V81L132.5,81L132.5,81z M124.8,89h-2.1v-8h1.9v1.1c0.3-0.6,0.6-0.9,0.9-1c0.2-0.2,0.6-0.2,0.9-0.2
	c0.5,0,1,0.2,1.4,0.4l-0.6,1.8c-0.3-0.2-0.7-0.3-1-0.3c-0.3,0-0.6,0.1-0.7,0.2c-0.2,0.2-0.4,0.5-0.5,0.9c-0.1,0.4-0.2,1.4-0.2,2.7
	V89L124.8,89z M115.9,83.5l-1.9-0.3c0.2-0.8,0.6-1.4,1.1-1.8c0.6-0.4,1.3-0.6,2.3-0.6c1,0,1.7,0.1,2.1,0.3c0.5,0.2,0.8,0.5,1,0.9
	c0.2,0.3,0.3,1,0.3,1.9v2.5c0,0.7,0,1.2,0.1,1.5c0.1,0.3,0.2,0.7,0.4,1h-2.2c-0.1-0.2-0.2-0.3-0.2-0.6c0-0.2-0.1-0.2-0.1-0.2
	c-0.4,0.3-0.7,0.6-1.1,0.8c-0.4,0.2-0.9,0.2-1.3,0.2c-0.8,0-1.4-0.2-1.9-0.6c-0.5-0.5-0.7-1-0.7-1.7c0-0.5,0.1-0.9,0.3-1.2
	c0.2-0.3,0.5-0.6,0.9-0.8s1-0.3,1.7-0.5c1-0.2,1.7-0.4,2.1-0.5v-0.2c0-0.4-0.1-0.7-0.3-0.9c-0.2-0.2-0.6-0.2-1.1-0.2
	c-0.4,0-0.6,0.1-0.9,0.2C116.1,82.9,115.9,83.1,115.9,83.5L115.9,83.5z M118.7,85.2c-0.2,0.1-0.7,0.2-1.3,0.3
	c-0.6,0.2-1,0.2-1.1,0.4c-0.2,0.2-0.4,0.5-0.4,0.7c0,0.3,0.1,0.6,0.3,0.8c0.2,0.2,0.5,0.3,0.9,0.3c0.4,0,0.7-0.2,1.1-0.4
	c0.2-0.2,0.4-0.4,0.5-0.7c0.1-0.2,0.1-0.6,0.1-1L118.7,85.2L118.7,85.2z M104.7,89.5l2.4,0.3c0.1,0.3,0.2,0.5,0.2,0.6
	c0.2,0.2,0.5,0.2,1,0.2c0.6,0,1-0.1,1.3-0.2c0.2-0.1,0.3-0.3,0.4-0.6c0.1-0.2,0.1-0.5,0.1-1v-1.2c-0.6,0.9-1.4,1.3-2.4,1.3
	c-1,0-1.9-0.5-2.6-1.4c-0.5-0.7-0.7-1.6-0.7-2.6c0-1.4,0.3-2.4,1-3c0.6-0.7,1.4-1,2.4-1s1.8,0.4,2.5,1.3V81h2v7.2
	c0,1-0.1,1.7-0.2,2.1c-0.2,0.5-0.4,0.8-0.6,1.1c-0.3,0.2-0.6,0.5-1.1,0.6c-0.5,0.2-1,0.2-1.8,0.2c-1.4,0-2.3-0.2-2.9-0.7
	s-0.9-1-0.9-1.8C104.6,89.7,104.7,89.7,104.7,89.5L104.7,89.5z M106.5,84.9c0,0.9,0.2,1.4,0.5,1.8c0.3,0.4,0.7,0.6,1.2,0.6
	c0.5,0,1-0.2,1.3-0.6c0.3-0.4,0.6-1,0.6-1.8c0-0.8-0.2-1.4-0.5-1.8c-0.3-0.4-0.8-0.6-1.3-0.6c-0.5,0-1,0.2-1.3,0.6
	C106.7,83.4,106.5,84.1,106.5,84.9L106.5,84.9z M103.4,81v1.7H102V86c0,0.6,0,1,0.1,1.1c0,0.1,0.1,0.2,0.2,0.2
	c0.1,0.1,0.2,0.1,0.3,0.1c0.2,0,0.5-0.1,0.9-0.2l0.2,1.7c-0.5,0.2-1,0.3-1.7,0.3c-0.4,0-0.7-0.1-1-0.2c-0.3-0.2-0.6-0.3-0.6-0.5
	c-0.2-0.2-0.2-0.5-0.3-0.8c-0.1-0.2-0.1-0.7-0.1-1.5v-3.5h-1V81h1v-1.6l2.1-1.3V81L103.4,81L103.4,81z M98.2,81v1.7h-1.4V86
	c0,0.6,0,1,0.1,1.1c0,0.1,0.1,0.2,0.2,0.2c0.1,0.1,0.2,0.1,0.3,0.1c0.2,0,0.5-0.1,0.9-0.2l0.2,1.7c-0.5,0.2-1,0.3-1.7,0.3
	c-0.4,0-0.7-0.1-1-0.2c-0.3-0.2-0.6-0.3-0.6-0.5c-0.2-0.2-0.2-0.5-0.3-0.8c-0.1-0.2-0.1-0.7-0.1-1.5v-3.5h-1V81h1v-1.6l2.1-1.3V81
	L98.2,81L98.2,81z M90.5,89v-1.2c-0.3,0.4-0.6,0.8-1.1,1c-0.5,0.2-1,0.4-1.5,0.4s-1-0.1-1.4-0.3c-0.4-0.2-0.7-0.6-1-1
	c-0.2-0.4-0.3-1-0.3-1.8v-5h2.1v3.7c0,1.1,0,1.8,0.1,2.1c0.1,0.2,0.2,0.5,0.4,0.6c0.2,0.2,0.5,0.2,0.8,0.2c0.4,0,0.7-0.1,1-0.3
	c0.3-0.2,0.5-0.5,0.6-0.7c0.1-0.3,0.2-1,0.2-2.2v-3.4h2.1v8h-1.8V89z M83.7,81v1.7h-1.4V86c0,0.6,0,1,0.1,1.1c0,0.1,0.1,0.2,0.2,0.2
	c0.1,0.1,0.2,0.1,0.3,0.1c0.2,0,0.5-0.1,0.9-0.2l0.2,1.7c-0.5,0.2-1,0.3-1.7,0.3c-0.4,0-0.7-0.1-1-0.2c-0.3-0.2-0.6-0.3-0.6-0.5
	c-0.2-0.2-0.2-0.5-0.3-0.8c-0.1-0.2-0.1-0.7-0.1-1.5v-3.5h-1V81h1v-1.6l2.1-1.3V81L83.7,81L83.7,81z M69.2,85.4l2.2-0.2
	c0.2,0.7,0.4,1.3,0.8,1.6c0.4,0.3,1,0.5,1.6,0.5c0.7,0,1.3-0.2,1.6-0.5c0.4-0.3,0.6-0.6,0.6-1c0-0.2-0.1-0.5-0.2-0.6
	c-0.2-0.2-0.4-0.3-0.8-0.5c-0.2-0.1-0.9-0.2-1.8-0.5c-1.2-0.2-2-0.6-2.5-1c-0.6-0.6-1-1.4-1-2.2c0-0.6,0.2-1.1,0.5-1.6
	c0.3-0.5,0.8-0.9,1.4-1.1c0.6-0.2,1.3-0.4,2.2-0.4c1.4,0,2.4,0.3,3.1,1c0.7,0.6,1,1.4,1.1,2.5l-2.2,0.1c-0.1-0.6-0.3-1-0.6-1.2
	c-0.3-0.2-0.8-0.4-1.4-0.4s-1.1,0.2-1.5,0.4c-0.2,0.2-0.3,0.4-0.3,0.7c0,0.2,0.1,0.5,0.3,0.6c0.3,0.2,1,0.5,2.1,0.7
	c1.1,0.2,1.9,0.6,2.4,0.8c0.5,0.2,1,0.6,1.2,1.1c0.3,0.5,0.4,1,0.4,1.8c0,0.6-0.2,1.2-0.6,1.8c-0.3,0.6-0.9,1-1.5,1.2
	c-0.6,0.2-1.4,0.4-2.4,0.4c-1.4,0-2.5-0.3-3.2-1C69.8,87.6,69.4,86.7,69.2,85.4L69.2,85.4z M62.1,60.8h2.2v6c0,1,0,1.6,0.1,1.8
	c0.1,0.5,0.3,0.8,0.6,1.1c0.3,0.2,0.9,0.4,1.4,0.4c0.6,0,1.1-0.2,1.4-0.4c0.3-0.2,0.5-0.6,0.6-1c0.1-0.4,0.1-1,0.1-1.8v-6.1h2.2v5.8
	c0,1.4-0.1,2.2-0.2,2.8c-0.2,0.6-0.3,1-0.6,1.4c-0.3,0.4-0.7,0.6-1.3,0.9S67.4,72,66.6,72c-1,0-1.8-0.2-2.4-0.4
	c-0.6-0.2-1-0.6-1.3-1c-0.3-0.4-0.6-0.8-0.6-1.2c-0.2-0.6-0.2-1.6-0.2-2.8V60.8L62.1,60.8z M80.5,71.9h-2.2v-4.1
	c0-0.9-0.1-1.4-0.2-1.7c-0.1-0.2-0.2-0.5-0.5-0.6c-0.2-0.2-0.5-0.2-0.7-0.2c-0.4,0-0.7,0.1-1,0.3c-0.3,0.2-0.5,0.5-0.6,0.8
	c-0.1,0.3-0.2,1-0.2,1.8v3.6h-2.1v-8h2v1.2c0.7-0.9,1.6-1.4,2.6-1.4c0.5,0,0.9,0.1,1.3,0.2s0.7,0.4,0.9,0.6c0.2,0.2,0.3,0.6,0.4,0.9
	c0.1,0.3,0.1,0.8,0.1,1.4L80.5,71.9L80.5,71.9z M82.6,62.8v-1.9h2.2v1.9H82.6L82.6,62.8z M82.6,71.9v-8h2.2v8H82.6L82.6,71.9z
	 M89,71.9l-3.2-8h2.2l1.5,4.1l0.4,1.4c0.1-0.3,0.2-0.6,0.2-0.7c0.1-0.2,0.2-0.5,0.2-0.6l1.5-4.1h2.2l-3.2,8L89,71.9L89,71.9z
	 M100.2,67.2c0-0.6-0.2-1.1-0.5-1.4c-0.3-0.3-0.6-0.5-1.1-0.5c-0.5,0-0.9,0.2-1.1,0.5C97.2,66,97,66.5,97,67.1L100.2,67.2
	L100.2,67.2z M100.1,69.3l2.1,0.3c-0.2,0.8-0.7,1.4-1.3,1.8c-0.6,0.4-1.3,0.6-2.2,0.6c-1.4,0-2.4-0.5-3.1-1.4
	C95,70,94.8,69,94.8,67.9c0-1.4,0.3-2.4,1-3.1c0.7-0.7,1.6-1.1,2.6-1.1c1.2,0,2.2,0.4,2.8,1.2c0.7,0.8,1,2,1,3.6h-5.3
	c0,0.6,0.2,1.1,0.5,1.4c0.3,0.3,0.7,0.6,1.2,0.6c0.3,0,0.6-0.1,0.8-0.2C99.8,70,100,69.7,100.1,69.3L100.1,69.3z M106,71.9h-2.2v-8
	h1.9V65c0.3-0.6,0.6-0.9,0.9-1c0.2-0.2,0.6-0.2,0.9-0.2c0.5,0,1,0.2,1.4,0.4l-0.6,1.8c-0.3-0.2-0.7-0.3-1-0.3
	c-0.3,0-0.6,0.1-0.7,0.2c-0.2,0.2-0.4,0.5-0.5,0.9c-0.1,0.4-0.2,1.4-0.2,2.7L106,71.9L106,71.9z M109.2,69.6l2.2-0.3
	c0.1,0.4,0.2,0.7,0.6,1c0.2,0.2,0.6,0.3,1.1,0.3c0.6,0,1-0.1,1.2-0.3c0.2-0.2,0.2-0.3,0.2-0.6c0-0.2-0.1-0.3-0.2-0.4
	c-0.1-0.1-0.3-0.2-0.7-0.3c-1.7-0.4-2.8-0.7-3.3-1c-0.6-0.4-1-1-1-1.8c0-0.7,0.2-1.3,0.8-1.8s1.4-0.7,2.6-0.7c1.1,0,1.9,0.2,2.5,0.6
	c0.6,0.3,0.9,0.9,1.1,1.6l-2,0.4c-0.1-0.3-0.2-0.6-0.5-0.7c-0.2-0.2-0.6-0.2-1-0.2c-0.6,0-1,0.1-1.2,0.2c-0.2,0.1-0.2,0.2-0.2,0.4
	s0.1,0.3,0.2,0.4c0.2,0.2,0.9,0.3,2,0.6c1.1,0.2,1.9,0.6,2.4,1c0.5,0.4,0.6,0.9,0.6,1.6c0,0.7-0.3,1.4-1,1.9
	c-0.6,0.6-1.5,0.8-2.7,0.8c-1.1,0-1.9-0.2-2.6-0.6C109.9,70.9,109.5,70.4,109.2,69.6L109.2,69.6z M118.6,62.8v-1.9h2.1v1.9H118.6
	L118.6,62.8z M118.6,71.9v-8h2.1v8H118.6L118.6,71.9z M126.5,63.8v1.7H125v3.3c0,0.6,0,1,0.1,1.1c0,0.1,0.1,0.2,0.2,0.2
	c0.1,0.1,0.2,0.1,0.3,0.1c0.2,0,0.5-0.1,0.9-0.2l0.2,1.7c-0.5,0.2-1,0.3-1.7,0.3c-0.4,0-0.7-0.1-1-0.2c-0.3-0.2-0.6-0.3-0.6-0.5
	c-0.2-0.2-0.2-0.5-0.3-0.8c-0.1-0.2-0.1-0.7-0.1-1.5v-3.5h-1v-1.7h1v-1.6l2.1-1.3v2.8L126.5,63.8L126.5,63.8z M132.4,68
	c-0.2,0.1-0.7,0.2-1.3,0.3c-0.6,0.2-1,0.2-1.1,0.4c-0.2,0.2-0.4,0.5-0.4,0.7c0,0.3,0.1,0.6,0.3,0.8c0.2,0.2,0.5,0.3,0.9,0.3
	s0.7-0.2,1.1-0.4c0.2-0.2,0.4-0.4,0.5-0.7c0.1-0.2,0.1-0.6,0.1-1L132.4,68L132.4,68z M129.5,66.3l-1.9-0.3c0.2-0.8,0.6-1.4,1.1-1.8
	c0.6-0.4,1.3-0.6,2.3-0.6c1,0,1.7,0.1,2.1,0.3c0.5,0.2,0.8,0.5,1,0.9c0.2,0.3,0.3,1,0.3,1.9v2.5c0,0.7,0,1.2,0.1,1.5s0.2,0.7,0.4,1
	h-2.1c-0.1-0.2-0.2-0.3-0.2-0.6c0-0.2-0.1-0.2-0.1-0.2c-0.4,0.3-0.7,0.6-1.1,0.8c-0.4,0.2-0.9,0.2-1.3,0.2c-0.8,0-1.4-0.2-1.9-0.6
	c-0.5-0.5-0.7-1-0.7-1.7c0-0.5,0.1-0.9,0.3-1.2c0.2-0.3,0.5-0.6,0.9-0.8c0.4-0.2,1-0.3,1.7-0.5c1-0.2,1.7-0.4,2.1-0.5v-0.2
	c0-0.4-0.1-0.7-0.3-0.9s-0.6-0.2-1.1-0.2c-0.4,0-0.6,0.1-0.9,0.2C129.8,65.6,129.7,66,129.5,66.3z"/>
</svg>
